<svg xmlns="http://www.w3.org/2000/svg" width="249" height="254" viewBox="0 0 249 254" fill="none"><g id="3" opacity="0.3" clip-path="url(#clip0_90_6543)"><g id="Clip path group"><mask id="mask0_90_6543" style="mask-type:luminance" maskUnits="userSpaceOnUse" x="94" y="23" width="19" height="20"><g id="429f384823"><path id="Vector" d="M94.0925 27.3204L108.498 23.4718L112.516 38.5087L98.1096 42.3573L94.0925 27.3204Z" fill="white"></path></g></mask><g mask="url(#mask0_90_6543)"><g id="Group"><path id="Vector_2" d="M101.158 40.7085L103.385 40.1137L103.159 39.2679L100.854 39.5702L98.0893 29.2202L109.742 38.5777L110.417 38.3973L106.875 25.14L108.608 24.3902L108.38 23.5374L103.295 24.896L103.522 25.7488L105.82 25.4334L108.367 34.9694L97.7833 26.3684L94.6039 27.2178L94.8317 28.0706L96.3904 27.8543L96.6446 28.0582L99.8041 39.8847L98.073 40.6266L98.299 41.4724L101.158 40.7085Z" fill="#022E3C"></path></g></g></g><g id="Clip path group_2"><mask id="mask1_90_6543" style="mask-type:luminance" maskUnits="userSpaceOnUse" x="144" y="209" width="14" height="19"><g id="9890f7a864"><path id="Vector_3" d="M144.842 212.448L154.022 209.996L157.938 224.652L148.758 227.105L144.842 212.448Z" fill="white"></path></g></mask><g mask="url(#mask1_90_6543)"><g id="Group_2"><path id="Vector_4" d="M151.829 217.586L150.922 217.488C149.215 217.306 148.137 216.756 147.78 215.417C147.354 213.824 148.385 212.661 150.034 212.221C150.692 212.045 151.263 212.025 151.89 212.186L152.973 214.46L154.246 214.12L153.632 211.328C152.539 210.891 151.298 210.743 149.877 211.123C147.186 211.841 145.529 213.877 146.182 216.319C146.761 218.487 148.571 219.324 150.961 219.596L151.851 219.698C153.887 219.928 154.877 220.32 155.246 221.702C155.689 223.358 154.606 224.652 152.591 225.19C151.666 225.437 150.993 225.428 150.212 225.229L149.13 222.856L147.857 223.196L148.525 226.204C149.667 226.56 151.347 226.655 152.937 226.23C155.842 225.454 157.534 223.367 156.864 220.858C156.331 218.864 154.919 217.923 151.829 217.586Z" fill="#022E3C"></path></g></g></g><g id="Clip path group_3"><mask id="mask2_90_6543" style="mask-type:luminance" maskUnits="userSpaceOnUse" x="24" y="138" width="25" height="22"><g id="4569cb6db7"><path id="Vector_5" d="M24.6191 144.146L44.7649 138.763L48.8621 154.1L28.7163 159.482L24.6191 144.146Z" fill="white"></path></g></mask><g mask="url(#mask2_90_6543)"><g id="Group_3"><path id="Vector_6" d="M42.1084 140.259L39.8188 140.87L40.0447 141.716L42.0967 141.47L42.0119 152.098L36.1736 143.037L38.2651 142.191L38.0392 141.346L32.3169 142.874L32.5428 143.72L34.763 143.399L34.124 154.096L28.856 144.969L30.7632 144.196L30.5372 143.35L24.8149 144.879L25.0409 145.724L26.8831 145.455L34.2719 157.752L35.0984 157.532L35.623 145.517L42.3049 155.606L43.1525 155.38L43.1637 141.162L44.8772 140.425L44.6513 139.579L42.1084 140.259Z" fill="#022E3C"></path></g></g></g><g id="Clip path group_4"><mask id="mask3_90_6543" style="mask-type:luminance" maskUnits="userSpaceOnUse" x="208" y="92" width="16" height="19"><g id="1fcbe3712f"><path id="Vector_7" d="M208.608 95.5699L219.75 92.5933L223.63 107.116L212.488 110.092L208.608 95.5699Z" fill="white"></path></g></mask><g mask="url(#mask3_90_6543)"><g id="Group_4"><path id="Vector_8" d="M221.404 103.55L221.659 106.396L216.172 107.862C215.646 106.047 215.148 104.183 214.608 102.16L217.812 101.304L218.621 103.247L219.574 102.993L218.23 97.9605L217.277 98.2151L217.532 100.329L214.346 101.18C213.858 99.3549 213.373 97.54 212.939 95.7571L218 94.405L219.2 96.9952L220.386 96.6786L219.229 92.9403L208.695 95.7544L208.921 96.6002L210.959 96.3012C211.487 98.1233 211.979 99.9664 212.468 101.795L212.752 102.86C213.248 104.717 213.741 106.56 214.184 108.374L212.268 109.128L212.496 109.981L223.455 107.053L222.592 103.232L221.404 103.55Z" fill="#022E3C"></path></g></g></g><path id="Vector_9" d="M183.647 112.817L182.554 113.279L164.974 120.736L164.419 120.971L144.673 129.346L137.97 124.084C137.95 123.953 137.927 123.824 137.904 123.697L192.194 109.194L183.647 112.817ZM145.724 179.483L143.382 160.31C149.726 157.328 154.969 152.707 158.738 147.112L172.693 152.774C172.699 152.78 172.711 152.784 172.719 152.786C172.745 152.798 172.77 152.806 172.797 152.81C172.822 152.819 172.849 152.823 172.877 152.827C172.888 152.828 172.904 152.831 172.919 152.831C172.926 152.829 172.931 152.831 172.934 152.83C172.956 152.828 172.976 152.831 172.993 152.826C173.027 152.825 173.055 152.817 173.087 152.809C173.118 152.8 173.15 152.792 173.18 152.776C173.21 152.761 173.239 152.745 173.268 152.726C173.268 152.726 173.272 152.725 173.271 152.722C173.325 152.684 173.375 152.633 173.416 152.573C173.432 152.55 173.445 152.528 173.457 152.502C173.475 152.471 173.485 152.438 173.494 152.401C173.504 152.369 173.51 152.333 173.512 152.299C173.518 152.263 173.516 152.229 173.511 152.197C173.51 152.163 173.505 152.131 173.496 152.099L173.495 152.095C173.488 152.067 173.477 152.04 173.466 152.013C173.457 151.992 173.447 151.972 173.439 151.956C173.434 151.949 173.433 151.946 173.428 151.943C173.425 151.933 173.416 151.924 173.408 151.911C173.398 151.899 173.386 151.883 173.375 151.871C173.369 151.861 173.362 151.851 173.352 151.843C173.336 151.824 173.317 151.807 173.298 151.793C173.293 151.791 173.293 151.791 173.292 151.787L173.275 151.777L161.418 142.474C164.373 136.414 165.751 129.552 165.169 122.552L182.918 115.024C188.228 142.715 172.319 170.287 145.724 179.483ZM158.185 146.89C154.513 152.3 149.435 156.775 143.306 159.7L140.883 139.869L158.185 146.89ZM146.249 130.575L164.604 122.79C165.135 129.573 163.793 136.217 160.946 142.105L146.249 130.575ZM132.557 135.233C134.005 134.405 135.223 133.267 136.139 131.928C136.197 131.848 136.25 131.766 136.3 131.685L165.437 148.577L159.384 146.117L158.836 145.897L140.726 138.548L138.875 137.796L132.557 135.233ZM143.62 190.904L139.989 182.333L139.527 181.241L132.066 163.624L131.827 163.065L123.449 143.284L128.7 136.565C128.827 136.547 128.957 136.527 129.087 136.504L143.62 190.904ZM73.3999 144.283L92.5383 141.956C95.5207 148.31 100.14 153.57 105.724 157.349L100.074 171.348C100.072 171.356 100.071 171.364 100.069 171.372C100.06 171.393 100.051 171.418 100.05 171.441C100.042 171.469 100.038 171.497 100.034 171.524C100.033 171.532 100.035 171.543 100.034 171.551C100.033 171.577 100.036 171.599 100.034 171.623L100.036 171.63C100.04 171.659 100.044 171.688 100.052 171.716L100.053 171.723C100.062 171.755 100.073 171.782 100.089 171.815C100.101 171.843 100.116 171.872 100.139 171.9C100.14 171.904 100.14 171.904 100.14 171.907C100.181 171.961 100.228 172.009 100.288 172.049C100.311 172.066 100.337 172.078 100.359 172.091C100.394 172.108 100.427 172.118 100.459 172.128C100.459 172.128 100.459 172.128 100.464 172.131C100.492 172.138 100.528 172.144 100.559 172.147C100.563 172.149 100.563 172.149 100.567 172.149C100.598 172.152 100.631 172.15 100.665 172.149C100.702 172.146 100.733 172.138 100.765 172.13C100.797 172.121 100.825 172.114 100.855 172.098C100.869 172.094 100.885 172.086 100.897 172.075C100.908 172.072 100.912 172.071 100.921 172.065C100.934 172.058 100.946 172.047 100.956 172.041C100.978 172.024 101 172.006 101.017 171.987C101.039 171.97 101.056 171.95 101.072 171.927L101.089 171.903L110.361 160.037C116.418 163.006 123.267 164.396 130.253 163.818L137.786 181.604C110.147 186.896 82.6069 170.932 73.3999 144.283ZM61.9969 142.164L70.5494 138.535L71.636 138.075L89.219 130.618L89.7777 130.382L109.516 122.009L116.224 127.27C116.243 127.4 116.267 127.53 116.29 127.659L61.9969 142.164ZM108.469 71.8666L110.811 91.0434C104.467 94.0257 99.2245 98.6468 95.455 104.241L81.4992 98.5759C81.4938 98.5698 81.4823 98.5691 81.4744 98.5675C81.4476 98.552 81.4157 98.5454 81.3838 98.5388C81.3554 98.5313 81.3235 98.5247 81.297 98.5242C81.29 98.5261 81.282 98.5245 81.274 98.5228C81.2475 98.5223 81.222 98.5254 81.199 98.524C81.1664 98.5289 81.1373 98.5329 81.1057 98.5414C81.074 98.5498 81.0433 98.5618 81.0135 98.5773C80.9828 98.5893 80.954 98.6083 80.9252 98.6274C80.9216 98.6283 80.9216 98.6283 80.9226 98.6318C80.8649 98.6699 80.8171 98.7166 80.7775 98.7801C80.7248 98.8508 80.6944 98.9344 80.6851 99.0124C80.6793 99.0328 80.677 99.0523 80.6756 99.0754C80.6765 99.0789 80.6749 99.0869 80.6758 99.0904C80.6744 99.1134 80.6766 99.1355 80.6778 99.1541C80.6801 99.1912 80.6851 99.2238 80.6936 99.2555C80.702 99.2873 80.7131 99.3145 80.7241 99.3418C80.7241 99.3418 80.7241 99.3418 80.7251 99.3453C80.7378 99.3646 80.7479 99.3883 80.7615 99.4111C80.7669 99.4172 80.7688 99.4242 80.7751 99.4339C80.7913 99.4522 80.8094 99.4776 80.8301 99.4985C80.8427 99.5177 80.8625 99.5351 80.8812 99.549C80.8866 99.5551 80.892 99.5612 80.8974 99.5673L92.7763 108.883C89.8199 114.94 88.4391 121.803 89.0238 128.801L71.275 136.329C65.9614 108.639 81.8737 81.0632 108.469 71.8666ZM96.008 104.463C99.6763 99.0547 104.757 94.5749 110.884 91.6545L113.306 111.482L96.008 104.463ZM107.943 120.775L89.5886 128.56C89.0622 121.78 90.3963 115.137 93.2469 109.248L107.943 120.775ZM121.632 116.118C120.185 116.95 118.97 118.086 118.053 119.422C117.996 119.502 117.942 119.584 117.889 119.666L114.978 117.982L114.977 117.979L114.796 117.876L114.032 117.431L94.8338 106.302L94.3335 106.009L94.3299 106.01L88.7523 102.777L94.8081 105.233L95.3576 105.456L113.467 112.806L115.318 113.557L121.632 116.118ZM110.574 60.4498L114.205 69.0204L114.665 70.1093L122.127 87.7297L122.363 88.2895L130.741 108.07L125.496 114.783C125.366 114.803 125.239 114.822 125.107 114.85L110.574 60.4498ZM148.243 94.5523C153.648 98.2392 158.123 103.326 161.045 109.47L141.254 111.876L148.243 94.5523ZM124.178 88.1028C130.949 87.5777 137.583 88.9276 143.464 91.7853L131.967 106.497L124.178 88.1028ZM136.631 120.217C135.806 118.765 134.666 117.544 133.331 116.621C133.251 116.563 133.17 116.513 133.088 116.459L149.925 87.2805L147.474 93.3532L147.252 93.9034L139.937 112.039L139.559 112.967L139.184 113.89L136.631 120.217ZM122.221 144.854L130.01 163.248C123.243 163.772 116.606 162.427 110.729 159.568L122.221 144.854ZM105.95 156.798C100.546 153.114 96.0732 148.023 93.1508 141.879L112.939 139.474L105.95 156.798ZM106.72 158L106.942 157.45L114.256 139.314L114.635 138.39L115.009 137.463L117.562 131.137C118.387 132.589 119.526 133.806 120.862 134.729C120.941 134.787 121.022 134.837 121.105 134.891L119.317 137.989L118.878 138.755L107.786 157.972L107.787 157.976L107.499 158.479L107.496 158.48L104.269 164.073L106.72 158ZM130.318 134.355C130.229 134.39 130.136 134.422 130.042 134.451C129.863 134.514 129.678 134.571 129.495 134.62L129.478 134.625C129.291 134.675 129.107 134.716 128.92 134.751C128.824 134.773 128.727 134.791 128.633 134.805C128.619 134.809 128.605 134.813 128.59 134.813C126.728 135.122 124.881 134.837 123.252 134.087C123.166 134.046 123.076 134.005 122.989 133.961L122.985 133.962C122.811 133.872 122.643 133.781 122.474 133.683C122.304 133.585 122.141 133.481 121.98 133.373C121.898 133.32 121.82 133.269 121.741 133.211L121.74 133.207C120.28 132.17 119.115 130.703 118.448 128.937C118.445 128.926 118.437 128.913 118.434 128.899C118.401 128.806 118.369 128.713 118.336 128.619C118.278 128.442 118.221 128.257 118.172 128.074L118.166 128.053C118.116 127.866 118.071 127.682 118.036 127.495C118.018 127.398 117.999 127.301 117.982 127.208C117.978 127.193 117.974 127.179 117.974 127.164C117.668 125.298 117.949 123.445 118.694 121.819C118.734 121.729 118.778 121.641 118.823 121.554C118.908 121.38 118.998 121.209 119.097 121.043C119.195 120.873 119.293 120.707 119.401 120.546C119.455 120.464 119.512 120.384 119.569 120.301C120.603 118.839 122.067 117.674 123.83 117.011C123.844 117.007 123.857 117 123.875 116.995C123.963 116.96 124.057 116.927 124.151 116.899C124.33 116.836 124.511 116.78 124.697 116.73L124.715 116.725C124.901 116.675 125.086 116.634 125.272 116.599C125.368 116.577 125.465 116.559 125.559 116.545C125.574 116.541 125.588 116.537 125.606 116.536C127.465 116.228 129.315 116.512 130.94 117.263C131.031 117.307 131.121 117.347 131.207 117.388L131.208 117.392C131.382 117.477 131.55 117.572 131.72 117.67C131.888 117.765 132.051 117.869 132.212 117.977C132.294 118.03 132.376 118.084 132.452 118.143C133.913 119.18 135.081 120.646 135.746 122.417C135.75 122.431 135.753 122.445 135.757 122.459C135.792 122.548 135.825 122.641 135.857 122.734C135.92 122.914 135.973 123.096 136.022 123.283L136.028 123.304C136.077 123.487 136.12 123.676 136.157 123.858C136.176 123.955 136.194 124.052 136.209 124.15C136.213 124.164 136.217 124.179 136.219 124.189C136.522 126.056 136.24 127.906 135.496 129.536C135.456 129.626 135.414 129.709 135.37 129.796C135.371 129.8 135.371 129.8 135.371 129.8C135.285 129.974 135.194 130.141 135.097 130.311C134.999 130.481 134.895 130.644 134.792 130.808L134.789 130.808C134.735 130.891 134.677 130.97 134.623 131.049C133.586 132.512 132.127 133.679 130.359 134.34C130.346 134.348 130.332 134.351 130.318 134.355ZM180.793 107.071L161.655 109.397C158.668 103.041 154.052 97.78 148.468 94.0011L154.106 80.0246C154.111 80.0157 154.113 80.0077 154.118 79.9987C154.127 79.9774 154.135 79.9525 154.139 79.925C154.145 79.916 154.149 79.9036 154.146 79.893C154.149 79.877 154.152 79.8575 154.154 79.838C154.155 79.8265 154.159 79.8141 154.156 79.8035C154.159 79.7991 154.158 79.7955 154.159 79.7875C154.158 79.769 154.156 79.7469 154.154 79.7248C154.15 79.6957 154.146 79.6665 154.137 79.6348C154.129 79.6031 154.117 79.5723 154.1 79.539C154.088 79.5082 154.074 79.4819 154.05 79.4504C154.032 79.425 154.01 79.3971 153.984 79.3701C153.959 79.3466 153.933 79.3231 153.901 79.3015C153.879 79.2885 153.856 79.2721 153.831 79.2636C153.768 79.2274 153.697 79.2126 153.631 79.2075C153.63 79.2039 153.627 79.2049 153.627 79.2049C153.592 79.2028 153.558 79.2007 153.525 79.2056C153.492 79.207 153.459 79.2119 153.424 79.2213C153.396 79.2288 153.369 79.2399 153.338 79.2519C153.318 79.261 153.295 79.2747 153.272 79.2883C153.265 79.2902 153.263 79.2946 153.26 79.2991C153.234 79.3136 153.212 79.3308 153.188 79.3524C153.184 79.3534 153.182 79.3578 153.182 79.3578C153.157 79.3794 153.136 79.4001 153.121 79.4269L153.104 79.4466L143.832 91.3169C137.775 88.3478 130.926 86.957 123.94 87.5359L116.403 69.7469C144.044 64.4504 171.59 80.4204 180.793 107.071ZM204.812 104.788C204.809 104.778 204.806 104.767 204.799 104.754C204.789 104.73 204.776 104.711 204.763 104.688C204.733 104.632 204.693 104.582 204.651 104.537C204.64 104.525 204.628 104.509 204.614 104.498C204.543 104.43 204.46 104.373 204.366 104.334C204.344 104.321 204.319 104.312 204.294 104.304C204.273 104.294 204.253 104.288 204.225 104.284C204.208 104.278 204.192 104.274 204.176 104.271C204.156 104.265 204.136 104.263 204.113 104.261C204.055 104.254 203.994 104.252 203.936 104.26C203.924 104.259 203.914 104.262 203.902 104.261L203.859 104.269L181.975 106.925C172.638 79.506 144.31 63.0883 115.941 68.6509L107.325 48.3035C107.311 48.2657 107.294 48.2288 107.273 48.1928C107.259 48.17 107.25 48.1498 107.233 48.128C107.132 47.9774 106.992 47.8602 106.828 47.7981C106.777 47.7777 106.725 47.7652 106.673 47.7528C106.645 47.7488 106.618 47.7448 106.591 47.7443C106.536 47.7328 106.48 47.7363 106.424 47.7398C106.395 47.7438 106.37 47.7469 106.342 47.7544C106.302 47.7612 106.263 47.7716 106.226 47.7854C106.197 47.7929 106.174 47.803 106.147 47.8141C106.124 47.8277 106.097 47.8387 106.074 47.8524C106.021 47.8815 105.981 47.9149 105.938 47.9492C105.898 47.9825 105.859 48.0229 105.826 48.0659C105.809 48.0892 105.796 48.108 105.779 48.1312C105.765 48.15 105.75 48.1768 105.737 48.1991C105.725 48.225 105.712 48.2473 105.704 48.2722C105.671 48.3488 105.651 48.4261 105.642 48.5076C105.641 48.5306 105.636 48.5546 105.636 48.5811C105.633 48.5856 105.634 48.5891 105.636 48.5961C105.635 48.6342 105.634 48.6758 105.641 48.7155L108.323 70.6861C80.9599 80.0124 64.6004 108.369 70.1779 136.792L49.885 145.404C49.8604 145.41 49.8411 145.423 49.8175 145.433C49.7596 145.456 49.708 145.489 49.6609 145.524C49.6417 145.537 49.6295 145.547 49.6147 145.563C49.5041 145.656 49.4221 145.773 49.3704 145.904C49.3585 145.929 49.3501 145.954 49.3452 145.978C49.3384 145.995 49.336 146.015 49.3328 146.031C49.3078 146.12 49.3032 146.216 49.311 146.316C49.3176 146.34 49.3207 146.366 49.3228 146.388C49.3341 146.43 49.3444 146.469 49.3548 146.508C49.3659 146.535 49.376 146.559 49.3861 146.583C49.3981 146.613 49.4126 146.64 49.4316 146.669C49.4589 146.714 49.4897 146.759 49.5221 146.796C49.5589 146.835 49.5958 146.874 49.6387 146.908C49.6584 146.925 49.6817 146.942 49.704 146.955C49.7272 146.971 49.746 146.985 49.7718 146.997C49.8591 147.042 49.955 147.076 50.0559 147.087C50.0798 147.092 50.1028 147.093 50.1258 147.095C50.1532 147.099 50.1797 147.099 50.2098 147.099C50.2327 147.1 50.2618 147.096 50.2909 147.092L50.3235 147.087L72.217 144.425C81.5578 171.843 109.883 188.262 138.249 182.703L146.881 203.084C146.895 203.122 146.916 203.158 146.936 203.19C147.01 203.31 147.108 203.409 147.221 203.481C147.312 203.539 147.413 203.58 147.521 203.601C147.603 203.613 147.688 203.62 147.771 203.609C147.801 203.609 147.823 203.603 147.852 203.599C147.87 203.598 147.891 203.592 147.909 203.588C147.93 203.582 147.948 203.577 147.968 203.568C147.995 203.557 148.016 203.551 148.042 203.537C148.12 203.505 148.191 203.459 148.256 203.404C148.295 203.367 148.333 203.327 148.367 203.284C148.46 203.168 148.527 203.022 148.546 202.87C148.551 202.846 148.552 202.823 148.554 202.8C148.558 202.772 148.555 202.747 148.555 202.72C148.556 202.694 148.552 202.664 148.549 202.639L148.545 202.598L145.867 180.668C173.229 171.338 189.595 142.98 184.015 114.558L204.315 105.948C204.353 105.934 204.39 105.917 204.427 105.899C204.449 105.882 204.472 105.872 204.494 105.855C204.513 105.842 204.532 105.83 204.551 105.813C204.673 105.72 204.767 105.593 204.823 105.45C204.835 105.424 204.843 105.399 204.847 105.372C204.854 105.355 204.857 105.339 204.861 105.323C204.884 105.226 204.891 105.126 204.875 105.024C204.876 105.001 204.872 104.984 204.866 104.963C204.858 104.919 204.848 104.881 204.834 104.843C204.829 104.825 204.824 104.804 204.812 104.788Z" fill="#022E3C"></path><path id="Vector_10" d="M131.414 124.525C131.465 124.715 131.504 124.905 131.525 125.096C131.541 125.197 131.548 125.293 131.559 125.392C131.594 125.987 131.51 126.576 131.327 127.119C131.293 127.215 131.256 127.304 131.223 127.392L131.22 127.393C131.148 127.575 131.062 127.749 130.964 127.918C130.866 128.085 130.759 128.249 130.638 128.402C130.58 128.482 130.517 128.559 130.45 128.63C130.073 129.067 129.608 129.429 129.072 129.693C128.985 129.735 128.895 129.778 128.802 129.81C128.627 129.887 128.443 129.947 128.25 129.999C128.06 130.05 127.87 130.089 127.68 130.11C127.583 130.128 127.483 130.136 127.387 130.143C126.791 130.181 126.208 130.099 125.663 129.909C125.569 129.881 125.476 129.845 125.387 129.805C125.204 129.729 125.031 129.643 124.866 129.548C124.696 129.45 124.531 129.339 124.379 129.221C124.299 129.159 124.226 129.099 124.148 129.033C123.719 128.654 123.353 128.189 123.09 127.655C123.047 127.564 123.005 127.477 122.972 127.381C122.895 127.205 122.834 127.021 122.783 126.831L122.782 126.827C122.732 126.637 122.692 126.447 122.671 126.257C122.653 126.159 122.642 126.061 122.638 125.963C122.599 125.366 122.684 124.781 122.866 124.234C122.901 124.141 122.933 124.05 122.973 123.96C123.046 123.782 123.132 123.608 123.233 123.437C123.328 123.268 123.434 123.104 123.551 122.948C123.551 122.948 123.551 122.948 123.555 122.947C123.613 122.871 123.672 122.795 123.739 122.721C124.117 122.287 124.585 121.924 125.121 121.66C125.208 121.618 125.298 121.575 125.39 121.539C125.567 121.466 125.749 121.402 125.939 121.351C126.133 121.3 126.323 121.264 126.512 121.24C126.61 121.225 126.71 121.217 126.806 121.21C127.402 121.172 127.989 121.253 128.533 121.44C128.628 121.471 128.717 121.508 128.806 121.544L128.809 121.544C128.988 121.62 129.162 121.706 129.331 121.804C129.5 121.903 129.661 122.011 129.817 122.128C129.894 122.19 129.971 122.253 130.044 122.316C130.478 122.699 130.84 123.164 131.107 123.701C131.149 123.788 131.189 123.879 131.225 123.971C131.302 124.147 131.362 124.331 131.413 124.521L131.414 124.525ZM133.224 124.642C133.192 124.45 133.149 124.262 133.099 124.075L133.098 124.071C133.047 123.881 132.991 123.7 132.924 123.518C132.891 123.424 132.852 123.333 132.813 123.245C132.398 122.254 131.737 121.418 130.93 120.781C130.851 120.723 130.775 120.664 130.692 120.61C130.691 120.606 130.691 120.606 130.691 120.606C130.533 120.494 130.37 120.39 130.205 120.295C130.039 120.196 129.865 120.106 129.685 120.026C129.594 119.982 129.508 119.941 129.416 119.909C128.465 119.521 127.414 119.368 126.348 119.498C126.253 119.508 126.155 119.523 126.058 119.538C125.867 119.573 125.678 119.613 125.488 119.663C125.302 119.713 125.115 119.774 124.936 119.837C124.843 119.873 124.751 119.909 124.664 119.948C123.675 120.367 122.841 121.024 122.21 121.834C122.146 121.908 122.089 121.991 122.032 122.07C121.919 122.229 121.813 122.393 121.718 122.562C121.619 122.728 121.531 122.903 121.453 123.078C121.409 123.166 121.372 123.255 121.333 123.348C120.95 124.3 120.798 125.352 120.929 126.42C120.939 126.515 120.954 126.613 120.973 126.71C121.005 126.902 121.043 127.088 121.094 127.278L121.095 127.282C121.145 127.468 121.205 127.652 121.273 127.835C121.305 127.928 121.341 128.02 121.381 128.111C121.803 129.098 122.456 129.935 123.266 130.568C123.342 130.627 123.418 130.686 123.5 130.74C123.659 130.856 123.822 130.959 123.988 131.058C124.158 131.157 124.329 131.247 124.505 131.328C124.595 131.368 124.685 131.408 124.777 131.444C125.728 131.832 126.779 131.985 127.845 131.855C127.94 131.845 128.038 131.83 128.135 131.812C128.322 131.781 128.515 131.74 128.701 131.691C128.891 131.64 129.078 131.579 129.257 131.512C129.35 131.48 129.442 131.444 129.529 131.405C130.518 130.986 131.352 130.329 131.983 129.519C132.046 129.442 132.1 129.363 132.158 129.283C132.274 129.124 132.377 128.961 132.475 128.791C132.569 128.622 132.659 128.451 132.74 128.275C132.78 128.185 132.818 128.099 132.858 128.009C132.857 128.006 132.857 128.006 132.857 128.006C133.243 127.053 133.395 126.001 133.265 124.937C133.254 124.838 133.239 124.74 133.224 124.642Z" fill="#022E3C"></path></g><defs><clipPath id="clip0_90_6543"><rect width="202" height="208" fill="white" transform="translate(0 52.1365) rotate(-14.9574)"></rect></clipPath></defs></svg>