<svg xmlns="http://www.w3.org/2000/svg" width="66" height="66" viewBox="0 0 66 66" fill="none"><g id="3d-fire 1" clip-path="url(#clip0_90_5148)"><g id="Group"><g id="Group_2"><path id="Vector" d="M58.2592 32.3232C58.2407 32.3633 58.222 32.4033 58.2032 32.4432C57.4687 34.0062 55.119 33.3857 55.2637 31.6648C55.5282 28.5196 55.1392 25.2686 54.006 22.1029C50.3275 11.8273 37.9771 0.127075 27.0406 0.000101957C25.8727 -0.0134332 25.2021 1.32358 25.8914 2.2664C26.8104 3.52324 27.5566 4.94005 28.085 6.49414C29.8193 11.5956 28.7517 17.0269 25.6979 21.0622C24.4248 22.7445 21.7217 21.9137 21.6772 19.8045C21.6768 19.7893 21.6766 19.7739 21.6763 19.7586C21.6584 18.6405 21.8418 17.5669 22.1937 16.5727C22.3489 16.1343 21.9425 15.7028 21.4972 15.837C15.2972 17.7058 10.5828 26.8292 10.5828 33.3368C10.5828 33.8121 10.6092 34.2812 10.6583 34.7434C10.6643 35.6077 10.8104 36.4869 11.1158 37.3515C11.1267 37.3825 11.1378 37.4135 11.1489 37.4445C11.244 37.7102 11.3451 37.9721 11.449 38.232C9.98063 36.437 8.73153 34.4555 7.74359 32.328C7.28455 31.3395 5.83165 31.5357 5.65325 32.6109C5.33536 34.5257 5.16895 36.3933 5.16895 38.1687C5.16895 53.5395 17.6294 66 33.0002 66C48.371 66 60.8314 53.5395 60.8314 38.1687C60.8314 36.3932 60.665 34.5255 60.347 32.6104C60.169 31.5378 58.717 31.3368 58.2592 32.3232Z" fill="url(#paint0_linear_90_5148)"></path><path id="Vector_2" d="M10.5828 33.3367C10.5828 33.812 10.6092 34.2811 10.6583 34.7434C10.6643 35.6077 10.8104 36.4867 11.1158 37.3514C11.1267 37.3825 11.1378 37.4134 11.1489 37.4443C11.244 37.71 11.3451 37.972 11.449 38.2318C9.98063 36.4368 8.73153 34.4553 7.74359 32.3278C7.28455 31.3393 5.83165 31.5355 5.65325 32.6107C5.33536 34.5255 5.16895 36.3931 5.16895 38.1685C5.16882 53.5394 17.6293 65.9999 33.0001 65.9999C48.3708 65.9999 60.8313 53.5394 60.8313 38.1687C60.8313 36.3931 60.6649 34.5254 60.3469 32.6104C60.1687 31.5377 58.7167 31.3368 58.259 32.3232C58.2404 32.3632 58.2217 32.4032 58.2029 32.4432C57.4684 34.0062 55.1187 33.3856 55.2635 31.6647C55.3247 30.9366 55.3492 30.2028 55.3393 29.4658H11.0585C10.7484 30.8048 10.5828 32.1166 10.5828 33.3367Z" fill="url(#paint1_linear_90_5148)"></path><path id="Vector_3" d="M10.5828 33.3367C10.5828 33.812 10.6092 34.2811 10.6583 34.7434C10.6643 35.6077 10.8104 36.4867 11.1158 37.3514C11.1267 37.3825 11.1378 37.4134 11.1489 37.4443C11.244 37.71 11.3451 37.972 11.449 38.2318C9.98063 36.4368 8.73153 34.4553 7.74359 32.3278C7.28455 31.3393 5.83165 31.5355 5.65325 32.6107C5.33536 34.5255 5.16895 36.3931 5.16895 38.1685C5.16882 53.5394 17.6293 65.9999 33.0001 65.9999C48.3708 65.9999 60.8313 53.5394 60.8313 38.1687C60.8313 36.3931 60.6649 34.5254 60.3469 32.6104C60.1687 31.5377 58.7167 31.3368 58.259 32.3232C58.2404 32.3632 58.2217 32.4032 58.2029 32.4432C57.4684 34.0062 55.1187 33.3856 55.2635 31.6647C55.3247 30.9366 55.3492 30.2028 55.3393 29.4658H11.0585C10.7484 30.8048 10.5828 32.1166 10.5828 33.3367Z" fill="url(#paint2_linear_90_5148)"></path><path id="Vector_4" d="M60.8313 38.1687C60.8313 36.3932 60.6649 34.5255 60.3469 32.6104C60.1687 31.5378 58.7167 31.3368 58.259 32.3232C58.2404 32.3633 58.2217 32.4033 58.2029 32.4432C57.4684 34.0062 55.1187 33.3857 55.2634 31.6648C55.528 28.5196 55.1389 25.2686 54.0057 22.1029C50.3274 11.8273 37.977 0.127075 27.0404 0.000101957C25.8725 -0.0134332 25.202 1.32358 25.8912 2.26653C26.8102 3.52337 27.5565 4.94018 28.0848 6.49427C29.8191 11.5957 28.7515 17.0271 25.6978 21.0624C25.0638 21.9 24.0753 22.1142 23.2371 21.8581V64.2376C26.2751 65.3759 29.5646 66 33 66C48.3708 66 60.8313 53.5395 60.8313 38.1687Z" fill="url(#paint3_linear_90_5148)"></path></g><g id="Group_3"><path id="Vector_5" d="M47.0998 42.9142C47.0893 42.9366 47.079 42.9589 47.0685 42.9812C46.6585 43.8536 45.3469 43.5073 45.4276 42.5466C45.5752 40.7909 45.3581 38.9763 44.7255 37.2092C42.6721 31.4732 35.7781 24.942 29.6732 24.8712C29.0212 24.8635 28.647 25.6099 29.0318 26.1362C29.5447 26.8379 29.9613 27.6287 30.2562 28.4963C31.2243 31.3439 30.6284 34.3758 28.9237 36.6283C28.2131 37.5674 26.7042 37.1036 26.6794 35.9262C26.6792 35.9176 26.679 35.9091 26.6788 35.9005C26.6688 35.2763 26.7713 34.677 26.9677 34.1221C27.0543 33.8774 26.8275 33.6365 26.5789 33.7114C23.1181 34.7547 20.4864 39.8473 20.4864 43.4799C20.4864 43.7452 20.5013 44.007 20.5286 44.2651C20.5319 44.7476 20.6135 45.2382 20.784 45.7208C20.7901 45.7381 20.7962 45.7555 20.8024 45.7728C20.8555 45.9212 20.912 46.0672 20.9698 46.2124C20.1501 45.2104 19.453 44.1042 18.9014 42.9167C18.6451 42.3649 17.8342 42.4746 17.7345 43.0746C17.557 44.1435 17.4642 45.186 17.4642 46.177C17.4642 54.7572 24.4198 61.7127 32.9999 61.7127C41.58 61.7127 48.5355 54.7572 48.5355 46.177C48.5355 45.1859 48.4426 44.1433 48.2651 43.0744C48.1658 42.4757 47.3553 42.3636 47.0998 42.9142Z" fill="url(#paint4_linear_90_5148)"></path><path id="Vector_6" d="M48.5357 46.1772C48.5357 45.186 48.4428 44.1434 48.2653 43.0745C48.1659 42.4757 47.3553 42.3636 47.0998 42.9142C47.0894 42.9366 47.0791 42.9589 47.0685 42.9812C46.6586 43.8536 45.347 43.5073 45.4277 42.5466C45.5753 40.7909 45.3582 38.9763 44.7255 37.2092C42.6722 31.4732 35.7781 24.942 29.6732 24.8712C29.0212 24.8635 28.647 25.6099 29.0318 26.1362C29.5447 26.8379 29.9614 27.6287 30.2563 28.4963C31.2244 31.3439 30.6284 34.3758 28.9238 36.6283C28.5699 37.0958 28.0182 37.2155 27.5503 37.0725V60.729C29.2462 61.3644 31.0823 61.7128 33.0001 61.7128C41.5802 61.7128 48.5357 54.7572 48.5357 46.1772Z" fill="url(#paint5_linear_90_5148)"></path><path id="Vector_7" d="M20.4864 43.4799C20.4864 43.7452 20.5013 44.007 20.5286 44.2651C20.5319 44.7476 20.6135 45.2382 20.784 45.7209C20.7901 45.7381 20.7962 45.7555 20.8024 45.7728C20.8555 45.9212 20.912 46.0672 20.9698 46.2124C20.1501 45.2104 19.453 44.1042 18.9014 42.9168C18.6451 42.3649 17.8342 42.4746 17.7345 43.0747C17.557 44.1436 17.4642 45.186 17.4642 46.1771C17.4642 54.7572 24.4198 61.7127 32.9999 61.7127C41.58 61.7127 48.5355 54.7572 48.5355 46.1771C48.5355 45.1859 48.4426 44.1433 48.2651 43.0744C48.1657 42.4756 47.3551 42.3635 47.0997 42.9141C47.0892 42.9365 47.0789 42.9588 47.0683 42.9811C46.6584 43.8535 45.3468 43.5071 45.4275 42.5465C45.4616 42.1401 45.4753 41.7306 45.4698 41.3191H20.7521C20.579 42.0666 20.4864 42.7989 20.4864 43.4799Z" fill="url(#paint6_linear_90_5148)"></path><path id="Vector_8" d="M20.4864 43.4799C20.4864 43.7452 20.5013 44.007 20.5286 44.2651C20.5319 44.7476 20.6135 45.2382 20.784 45.7209C20.7901 45.7381 20.7962 45.7555 20.8024 45.7728C20.8555 45.9212 20.912 46.0672 20.9698 46.2124C20.1501 45.2104 19.453 44.1042 18.9014 42.9168C18.6451 42.3649 17.8342 42.4746 17.7345 43.0747C17.557 44.1436 17.4642 45.186 17.4642 46.1771C17.4642 54.7572 24.4198 61.7127 32.9999 61.7127C41.58 61.7127 48.5355 54.7572 48.5355 46.1771C48.5355 45.1859 48.4426 44.1433 48.2651 43.0744C48.1657 42.4756 47.3551 42.3635 47.0997 42.9141C47.0892 42.9365 47.0789 42.9588 47.0683 42.9811C46.6584 43.8535 45.3468 43.5071 45.4275 42.5465C45.4616 42.1401 45.4753 41.7306 45.4698 41.3191H20.7521C20.579 42.0666 20.4864 42.7989 20.4864 43.4799Z" fill="url(#paint7_linear_90_5148)"></path></g><g id="Group_4"><path id="Vector_9" d="M8.14409 23.1161C10.1804 23.5337 11.8031 21.4395 10.9902 19.5263C10.3827 18.0965 10.4781 16.3993 11.3945 15.003C11.396 15.0007 11.3976 14.9983 11.399 14.996C11.6306 14.6444 11.4456 14.171 11.0348 14.0785C9.13654 13.6509 7.08848 14.4083 5.95772 16.1312C4.50056 18.3514 5.11918 21.3327 7.33946 22.7899C7.58812 22.9529 7.85947 23.0577 8.14409 23.1161Z" fill="url(#paint8_linear_90_5148)"></path><path id="Vector_10" d="M8.14409 23.1161C10.1804 23.5337 11.8031 21.4395 10.9902 19.5263C10.3827 18.0965 10.4781 16.3993 11.3945 15.003C11.396 15.0007 11.3976 14.9983 11.399 14.996C11.6306 14.6444 11.4456 14.171 11.0348 14.0785C9.13654 13.6509 7.08848 14.4083 5.95772 16.1312C4.50056 18.3514 5.11918 21.3327 7.33946 22.7899C7.58812 22.9529 7.85947 23.0577 8.14409 23.1161Z" fill="url(#paint9_linear_90_5148)"></path><path id="Vector_11" d="M8.14409 23.1161C10.1804 23.5337 11.8031 21.4395 10.9902 19.5263C10.3827 18.0965 10.4781 16.3993 11.3945 15.003C11.396 15.0007 11.3976 14.9983 11.399 14.996C11.6306 14.6444 11.4456 14.171 11.0348 14.0785C9.13654 13.6509 7.08848 14.4083 5.95772 16.1312C4.50056 18.3514 5.11918 21.3327 7.33946 22.7899C7.58812 22.9529 7.85947 23.0577 8.14409 23.1161Z" fill="url(#paint10_linear_90_5148)"></path></g></g></g><defs><linearGradient id="paint0_linear_90_5148" x1="18.5802" y1="22.7619" x2="45.8021" y2="49.9838" gradientUnits="userSpaceOnUse"><stop stop-color="#66ADC0"></stop><stop offset="1" stop-color="#0F6177"></stop></linearGradient><linearGradient id="paint1_linear_90_5148" x1="39.2014" y1="48.0691" x2="48.8502" y2="59.7396" gradientUnits="userSpaceOnUse"><stop stop-color="#66ADC0" stop-opacity="0"></stop><stop offset="0.2343" stop-color="#66ADC0" stop-opacity="0.234"></stop><stop offset="0.5173" stop-color="#66ADC0" stop-opacity="0.517"></stop><stop offset="0.8243" stop-color="#66ADC0" stop-opacity="0.824"></stop><stop offset="1" stop-color="#0F6177"></stop></linearGradient><linearGradient id="paint2_linear_90_5148" x1="32.1257" y1="47.6001" x2="30.3798" y2="66.5301" gradientUnits="userSpaceOnUse"><stop stop-color="#66ADC0" stop-opacity="0"></stop><stop offset="0.2343" stop-color="#66ADC0" stop-opacity="0.234"></stop><stop offset="0.5173" stop-color="#66ADC0" stop-opacity="0.517"></stop><stop offset="0.8243" stop-color="#66ADC0" stop-opacity="0.824"></stop><stop offset="1" stop-color="#3295AF"></stop></linearGradient><linearGradient id="paint3_linear_90_5148" x1="39.8305" y1="29.8276" x2="57.1065" y2="21.9247" gradientUnits="userSpaceOnUse"><stop stop-color="#66ADC0" stop-opacity="0"></stop><stop offset="0.2343" stop-color="#66ADC0" stop-opacity="0.234"></stop><stop offset="0.5173" stop-color="#66ADC0" stop-opacity="0.517"></stop><stop offset="0.8243" stop-color="#66ADC0" stop-opacity="0.824"></stop><stop offset="1" stop-color="#25849D"></stop></linearGradient><linearGradient id="paint4_linear_90_5148" x1="26.6197" y1="38.5194" x2="39.1171" y2="53.0385" gradientUnits="userSpaceOnUse"><stop stop-color="#F5C683"></stop><stop offset="1" stop-color="#F9970C"></stop></linearGradient><linearGradient id="paint5_linear_90_5148" x1="40.0782" y1="40.6849" x2="44.3053" y2="39.2146" gradientUnits="userSpaceOnUse"><stop stop-color="#FE9738" stop-opacity="0"></stop><stop offset="1" stop-color="#FE9738"></stop></linearGradient><linearGradient id="paint6_linear_90_5148" x1="28.6862" y1="54.0182" x2="25.5619" y2="59.103" gradientUnits="userSpaceOnUse"><stop stop-color="#FE9738" stop-opacity="0"></stop><stop offset="1" stop-color="#FE9738"></stop></linearGradient><linearGradient id="paint7_linear_90_5148" x1="36.721" y1="54.5315" x2="39.1715" y2="59.7388" gradientUnits="userSpaceOnUse"><stop stop-color="#FE9738" stop-opacity="0"></stop><stop offset="1" stop-color="#FE9738"></stop></linearGradient><linearGradient id="paint8_linear_90_5148" x1="6.54836" y1="16.1988" x2="12.2458" y2="20.9774" gradientUnits="userSpaceOnUse"><stop stop-color="#81CADE"></stop><stop offset="1" stop-color="#0F6177"></stop></linearGradient><linearGradient id="paint9_linear_90_5148" x1="8.06611" y1="19.7757" x2="6.77949" y2="23.1299" gradientUnits="userSpaceOnUse"><stop stop-color="#66ADC0" stop-opacity="0"></stop><stop offset="0.2343" stop-color="#66ADC0" stop-opacity="0.234"></stop><stop offset="0.5173" stop-color="#66ADC0" stop-opacity="0.517"></stop><stop offset="0.8243" stop-color="#66ADC0" stop-opacity="0.824"></stop><stop offset="1" stop-color="#0F6177"></stop></linearGradient><linearGradient id="paint10_linear_90_5148" x1="8.03311" y1="18.1397" x2="12.2142" y2="19.3802" gradientUnits="userSpaceOnUse"><stop stop-color="#66ADC0" stop-opacity="0"></stop><stop offset="0.2343" stop-color="#66ADC0" stop-opacity="0.234"></stop><stop offset="0.5173" stop-color="#66ADC0" stop-opacity="0.517"></stop><stop offset="0.8243" stop-color="#66ADC0" stop-opacity="0.824"></stop><stop offset="1" stop-color="#0F6177"></stop></linearGradient><clipPath id="clip0_90_5148"><rect width="66" height="66" fill="white"></rect></clipPath></defs></svg>