<svg xmlns="http://www.w3.org/2000/svg" width="66" height="66" viewBox="0 0 66 66" fill="none"><g id="3d-target 1" clip-path="url(#clip0_86_1498)"><g id="Group"><g id="Group_2"><path id="Vector" d="M42.0344 2.72803H34.5858V63.2721H42.0344C55.2692 63.2722 66 49.7183 66 33.0001C66 16.2819 55.2692 2.72803 42.0344 2.72803Z" fill="url(#paint0_linear_86_1498)"></path><path id="Vector_2" d="M42.0344 2.72803H34.5858V63.2721H42.0344C55.2692 63.2722 66 49.7183 66 33.0001C66 16.2819 55.2692 2.72803 42.0344 2.72803Z" fill="url(#paint1_linear_86_1498)"></path><path id="Vector_3" d="M34.5857 63.2721H42.0343C55.2692 63.2721 66 49.7183 66 33.0001C66 31.5198 65.9143 30.065 65.7517 28.6416H34.5857V63.2721Z" fill="url(#paint2_linear_86_1498)"></path><g id="Group_3"><path id="Vector_4" d="M34.5857 63.2719C47.8214 63.2719 58.551 49.7188 58.551 33.0001C58.551 16.2814 47.8214 2.72827 34.5857 2.72827C21.35 2.72827 10.6203 16.2814 10.6203 33.0001C10.6203 49.7188 21.35 63.2719 34.5857 63.2719Z" fill="url(#paint3_linear_86_1498)"></path><path id="Vector_5" d="M34.8408 31.7463H10.6424C10.629 32.1623 10.6203 32.58 10.6203 33.0001C10.6203 49.7188 21.35 63.2719 34.5857 63.2719C42.5373 63.2719 49.583 58.3789 53.9425 50.8481L34.8408 31.7463Z" fill="url(#paint4_linear_86_1498)"></path><path id="Vector_6" d="M10.6203 33C10.6203 49.7188 21.35 63.2719 34.5857 63.2719C47.8214 63.2719 58.551 49.7188 58.551 33C58.551 32.3946 58.5353 31.7937 58.5076 31.197H10.6639C10.6361 31.7937 10.6203 32.3946 10.6203 33Z" fill="url(#paint5_linear_86_1498)"></path><path id="Vector_7" d="M29.4226 31.197H10.6639C10.6362 31.7937 10.6205 32.3946 10.6205 33C10.6205 47.4794 18.669 59.5822 29.4226 62.5652V31.197Z" fill="url(#paint6_linear_86_1498)"></path><path id="Vector_8" d="M34.5857 2.72827C33.24 2.72827 31.9211 2.87058 30.6359 3.13987V62.8605C31.9211 63.1297 33.2402 63.272 34.5857 63.272C47.8214 63.272 58.551 49.7188 58.551 33.0002C58.551 16.2816 47.8214 2.72827 34.5857 2.72827Z" fill="url(#paint7_linear_86_1498)"></path><path id="Vector_9" d="M34.5857 8.13184C23.7132 8.13184 14.8985 19.2665 14.8985 33.0002C14.8985 46.7338 23.7132 57.8685 34.5857 57.8685C45.4581 57.8685 54.273 46.7338 54.273 33.0002C54.273 19.2665 45.4583 8.13184 34.5857 8.13184ZM34.5857 52.8957C25.8871 52.8957 18.8353 43.9874 18.8353 33.0002C18.8353 22.013 25.8871 13.1047 34.5857 13.1047C43.2843 13.1047 50.3361 22.0128 50.3361 33.0002C50.3361 43.9875 43.2843 52.8957 34.5857 52.8957Z" fill="url(#paint8_linear_86_1498)"></path><path id="Vector_10" d="M34.5857 18.4998C28.2453 18.4998 23.1067 24.9917 23.1067 33.0002C23.1067 41.0086 28.2453 47.5006 34.5857 47.5006C40.926 47.5006 46.0648 41.0086 46.0648 33.0002C46.0648 24.9917 40.926 18.4998 34.5857 18.4998ZM34.5857 41.6888C30.7863 41.6888 27.7067 37.7987 27.7067 33.0002C27.7067 28.2016 30.7861 24.3115 34.5857 24.3115C38.3852 24.3115 41.4646 28.2016 41.4646 33.0002C41.4646 37.7987 38.3852 41.6888 34.5857 41.6888Z" fill="url(#paint9_linear_86_1498)"></path></g></g><g id="Group_4"><g id="Group_5"><path id="Vector_11" d="M23.6629 33H7.15261L0.218742 23.1193C-0.336844 22.3279 0.230343 21.2373 1.19714 21.2373H1.91386C2.61382 21.2373 3.26995 21.5776 3.67085 22.1512L5.26542 24.4226L4.6428 22.2389C4.49972 21.7375 4.87612 21.2373 5.39819 21.2373H8.24857C8.38521 21.2373 8.51682 21.2886 8.61737 21.3812L9.0282 21.759C9.20557 21.9222 9.46906 21.9494 9.67608 21.8259C9.84172 21.7271 10.0472 21.7233 10.2165 21.8157L10.8596 22.1671C11.1122 22.3052 11.426 22.2562 11.6245 22.0476C12.1571 21.4879 12.9543 21.2697 13.6998 21.4727C15.1804 21.876 16.4947 22.7843 17.3968 24.0705L23.6629 33Z" fill="url(#paint10_linear_86_1498)"></path><path id="Vector_12" d="M7.15262 33H23.6629L18.7615 26.0156H2.25122L7.15262 33Z" fill="url(#paint11_linear_86_1498)"></path><g id="Group_6"><path id="Vector_13" d="M17.3968 24.0707C16.4946 22.7844 15.1804 21.8762 13.6998 21.4728C12.9543 21.2698 12.1571 21.488 11.6245 22.0477C11.426 22.2563 11.1122 22.3053 10.8596 22.1672L10.2164 21.8158C10.0472 21.7233 9.84172 21.7271 9.67607 21.8259C9.46905 21.9493 9.20556 21.9221 9.02819 21.759L8.61736 21.3812C8.51682 21.2886 8.3852 21.2373 8.24856 21.2373H5.39819C4.87612 21.2373 4.49971 21.7375 4.6428 22.2389L5.25265 24.3778L11.3031 33H23.6628L17.3968 24.0707Z" fill="url(#paint12_linear_86_1498)"></path></g><g id="Group_7"><path id="Vector_14" d="M17.3968 24.0707C16.4946 22.7844 15.1804 21.8762 13.6998 21.4728C12.9543 21.2698 12.1571 21.488 11.6245 22.0477C11.426 22.2563 11.1122 22.3053 10.8596 22.1672L10.2165 21.8158C10.0472 21.7233 9.84173 21.7271 9.67609 21.8259C9.46907 21.9493 9.20558 21.9221 9.02821 21.759L8.61738 21.3812C8.51684 21.2886 8.38522 21.2373 8.24858 21.2373H5.39821C5.20936 21.2373 5.04011 21.3034 4.90707 21.4107C5.02038 21.4224 5.13356 21.4423 5.24558 21.4728C6.7262 21.8762 8.04053 22.7844 8.94261 24.0707L15.2087 33H23.6629L17.3968 24.0707Z" fill="url(#paint13_linear_86_1498)"></path></g><g id="Group_8"><path id="Vector_15" d="M17.3968 24.0706C16.4946 22.7844 15.1804 21.8761 13.6998 21.4727C12.9543 21.2697 12.1571 21.4879 11.6245 22.0477C11.426 22.2562 11.1122 22.3052 10.8596 22.1672L10.2165 21.8158C10.0472 21.7232 9.84173 21.7271 9.67609 21.8258C9.5379 21.9082 9.37496 21.922 9.22891 21.8745C10.2599 22.3606 11.1635 23.1101 11.8372 24.0706L18.1033 32.9999H23.6629L17.3968 24.0706Z" fill="url(#paint14_linear_86_1498)"></path></g><g id="Group_9"><path id="Vector_16" d="M17.3968 24.0706C16.4946 22.7844 15.1804 21.8761 13.6998 21.4727C12.9543 21.2697 12.1571 21.4879 11.6245 22.0477C11.426 22.2562 11.1122 22.3052 10.8596 22.1672L10.2165 21.8158C10.0472 21.7232 9.84173 21.7271 9.67609 21.8258C9.5379 21.9082 9.37496 21.922 9.22891 21.8745C10.2599 22.3606 11.1635 23.1101 11.8372 24.0706L18.1033 32.9999H23.6629L17.3968 24.0706Z" fill="url(#paint15_linear_86_1498)"></path></g></g><g id="Group_10"><path id="Vector_17" d="M23.6629 33H7.15261L0.218742 42.8807C-0.336844 43.6721 0.230343 44.7627 1.19714 44.7627H1.91386C2.61382 44.7627 3.26995 44.4224 3.67085 43.8488L5.26542 41.5774L4.6428 43.7611C4.49972 44.2625 4.87612 44.7627 5.39819 44.7627H8.24857C8.38521 44.7627 8.51682 44.7114 8.61737 44.6188L9.0282 44.241C9.20557 44.0778 9.46906 44.0506 9.67608 44.1741C9.84172 44.2729 10.0472 44.2767 10.2165 44.1843L10.8596 43.8329C11.1122 43.6948 11.426 43.7438 11.6245 43.9524C12.1571 44.5121 12.9543 44.7303 13.6998 44.5273C15.1804 44.124 16.4947 43.2157 17.3968 41.9295L23.6629 33Z" fill="url(#paint16_linear_86_1498)"></path><path id="Vector_18" d="M3.28362 38.5132L0.218742 42.8808C-0.336844 43.6723 0.230343 44.7628 1.19714 44.7628H1.91386C2.61382 44.7628 3.26995 44.4225 3.67085 43.8489L5.26542 41.5775L4.6428 43.7612C4.49972 44.2627 4.87612 44.7628 5.39819 44.7628H8.24857C8.38521 44.7628 8.51682 44.7115 8.61737 44.619L9.0282 44.2411C9.20557 44.0779 9.46906 44.0507 9.67608 44.1742C9.84172 44.273 10.0472 44.2768 10.2165 44.1844L10.8596 43.833C11.1122 43.695 11.426 43.7439 11.6245 43.9525C12.1571 44.5122 12.9543 44.7305 13.6998 44.5274C15.1804 44.1241 16.4947 43.2158 17.3968 41.9296L19.7941 38.5133H3.28362V38.5132Z" fill="url(#paint17_linear_86_1498)"></path><g id="Group_11"><path id="Vector_19" d="M17.3968 41.9293C16.4946 43.2156 15.1804 44.1238 13.6998 44.5272C12.9543 44.7302 12.1571 44.512 11.6245 43.9523C11.426 43.7437 11.1122 43.6947 10.8596 43.8328L10.2164 44.1842C10.0472 44.2767 9.84172 44.2729 9.67607 44.1741C9.46905 44.0507 9.20556 44.0779 9.02819 44.241L8.61736 44.6188C8.51682 44.7114 8.3852 44.7627 8.24856 44.7627H5.39819C4.87612 44.7627 4.49971 44.2625 4.6428 43.7611L5.25265 41.6222L11.3031 33H23.6628L17.3968 41.9293Z" fill="url(#paint18_linear_86_1498)"></path></g><g id="Group_12"><path id="Vector_20" d="M17.3968 41.9293C16.4946 43.2156 15.1804 44.1238 13.6998 44.5272C12.9543 44.7302 12.1571 44.512 11.6245 43.9523C11.426 43.7437 11.1122 43.6947 10.8596 43.8328L10.2165 44.1842C10.0472 44.2767 9.84173 44.2729 9.67609 44.1741C9.46907 44.0507 9.20558 44.0779 9.02821 44.241L8.61738 44.6188C8.51684 44.7114 8.38522 44.7627 8.24858 44.7627H5.39821C5.20936 44.7627 5.04011 44.6966 4.90707 44.5893C5.02038 44.5776 5.13356 44.5577 5.24558 44.5272C6.7262 44.1238 8.04053 43.2156 8.94261 41.9293L15.2087 33H23.6629L17.3968 41.9293Z" fill="url(#paint19_linear_86_1498)"></path></g><g id="Group_13"><path id="Vector_21" d="M17.3968 41.9293C16.4946 43.2156 15.1804 44.1238 13.6998 44.5272C12.9543 44.7302 12.1571 44.512 11.6245 43.9523C11.426 43.7437 11.1122 43.6947 10.8596 43.8328L10.2165 44.1842C10.0472 44.2767 9.84173 44.2729 9.67609 44.1741C9.5379 44.0917 9.37496 44.0779 9.22891 44.1254C10.2599 43.6393 11.1635 42.8898 11.8372 41.9293L18.1033 33H23.6629L17.3968 41.9293Z" fill="url(#paint20_linear_86_1498)"></path></g><g id="Group_14"><path id="Vector_22" d="M17.3968 41.9293C16.4946 43.2156 15.1804 44.1238 13.6998 44.5272C12.9543 44.7302 12.1571 44.512 11.6245 43.9523C11.426 43.7437 11.1122 43.6947 10.8596 43.8328L10.2165 44.1842C10.0472 44.2767 9.84173 44.2729 9.67609 44.1741C9.5379 44.0917 9.37496 44.0779 9.22891 44.1254C10.2599 43.6393 11.1635 42.8898 11.8372 41.9293L18.1033 33H23.6629L17.3968 41.9293Z" fill="url(#paint21_linear_86_1498)"></path></g></g></g><path id="Vector_23" d="M35.3387 33.0002V33.0187C35.338 34.0047 34.5384 34.8036 33.5524 34.8036H1.8034C0.807469 34.8036 0 33.9962 0 33.0002C0 32.0042 0.807469 31.1968 1.8034 31.1968H33.5525C34.5385 31.1968 35.338 31.9956 35.3389 32.9816L35.3387 33.0002Z" fill="url(#paint22_linear_86_1498)"></path></g></g><defs><linearGradient id="paint0_linear_86_1498" x1="50.2929" y1="5.13252" x2="50.2929" y2="64.1307" gradientUnits="userSpaceOnUse"><stop stop-color="#FFBE61"></stop><stop offset="1" stop-color="#CA7906"></stop></linearGradient><linearGradient id="paint1_linear_86_1498" x1="50.2058" y1="37.3181" x2="64.7534" y2="43.6827" gradientUnits="userSpaceOnUse"><stop stop-color="#F5A01B" stop-opacity="0"></stop><stop offset="0.2343" stop-color="#F5A01B" stop-opacity="0.234"></stop><stop offset="0.5173" stop-color="#F5A01B" stop-opacity="0.517"></stop><stop offset="0.8243" stop-color="#F5A01B" stop-opacity="0.824"></stop><stop offset="1" stop-color="#F9970C"></stop></linearGradient><linearGradient id="paint2_linear_86_1498" x1="50.2929" y1="34.6824" x2="50.2929" y2="61.4499" gradientUnits="userSpaceOnUse"><stop stop-color="#F5A01B" stop-opacity="0"></stop><stop offset="0.2343" stop-color="#F5A01B" stop-opacity="0.234"></stop><stop offset="0.5173" stop-color="#F5A01B" stop-opacity="0.517"></stop><stop offset="0.8243" stop-color="#F5A01B" stop-opacity="0.824"></stop><stop offset="1" stop-color="#F9970C"></stop></linearGradient><linearGradient id="paint3_linear_86_1498" x1="17.2675" y1="23.0375" x2="54.849" y2="44.657" gradientUnits="userSpaceOnUse"><stop stop-color="#FFBE61"></stop><stop offset="1" stop-color="#CA7906"></stop></linearGradient><linearGradient id="paint4_linear_86_1498" x1="32.2347" y1="44.5442" x2="28.7427" y2="32.8736" gradientUnits="userSpaceOnUse"><stop stop-color="#F5A01B" stop-opacity="0"></stop><stop offset="0.2343" stop-color="#F5A01B" stop-opacity="0.234"></stop><stop offset="0.5173" stop-color="#F5A01B" stop-opacity="0.517"></stop><stop offset="0.8243" stop-color="#F5A01B" stop-opacity="0.824"></stop><stop offset="1" stop-color="#F9970C"></stop></linearGradient><linearGradient id="paint5_linear_86_1498" x1="34.5857" y1="48.1693" x2="34.5857" y2="65.4858" gradientUnits="userSpaceOnUse"><stop stop-color="#F5A01B" stop-opacity="0"></stop><stop offset="0.2343" stop-color="#F5A01B" stop-opacity="0.234"></stop><stop offset="0.5173" stop-color="#F5A01B" stop-opacity="0.517"></stop><stop offset="0.8243" stop-color="#F5A01B" stop-opacity="0.824"></stop><stop offset="1" stop-color="#F9970C"></stop></linearGradient><linearGradient id="paint6_linear_86_1498" x1="22.4846" y1="42.0674" x2="18.6864" y2="38.5755" gradientUnits="userSpaceOnUse"><stop stop-color="#F5A01B" stop-opacity="0"></stop><stop offset="0.2343" stop-color="#F5A01B" stop-opacity="0.234"></stop><stop offset="0.5173" stop-color="#F5A01B" stop-opacity="0.517"></stop><stop offset="0.8243" stop-color="#F5A01B" stop-opacity="0.824"></stop><stop offset="1" stop-color="#F9970C"></stop></linearGradient><linearGradient id="paint7_linear_86_1498" x1="43.2718" y1="38.7679" x2="55.8494" y2="49.5272" gradientUnits="userSpaceOnUse"><stop stop-color="#F5A01B" stop-opacity="0"></stop><stop offset="0.2343" stop-color="#F5A01B" stop-opacity="0.234"></stop><stop offset="0.5173" stop-color="#F5A01B" stop-opacity="0.517"></stop><stop offset="0.8243" stop-color="#F5A01B" stop-opacity="0.824"></stop><stop offset="1" stop-color="#F9970C"></stop></linearGradient><linearGradient id="paint8_linear_86_1498" x1="20.3591" y1="24.816" x2="51.2316" y2="42.5761" gradientUnits="userSpaceOnUse"><stop stop-color="#F5FBFF"></stop><stop offset="1" stop-color="#DBD5EF"></stop></linearGradient><linearGradient id="paint9_linear_86_1498" x1="26.2903" y1="28.2281" x2="44.2918" y2="38.5837" gradientUnits="userSpaceOnUse"><stop stop-color="#F5FBFF"></stop><stop offset="1" stop-color="#DBD5EF"></stop></linearGradient><linearGradient id="paint10_linear_86_1498" x1="11.8314" y1="22.6691" x2="11.8314" y2="29.9176" gradientUnits="userSpaceOnUse"><stop stop-color="#65B2C7"></stop><stop offset="1" stop-color="#084252"></stop></linearGradient><linearGradient id="paint11_linear_86_1498" x1="12.957" y1="28.9562" x2="12.957" y2="32.1737" gradientUnits="userSpaceOnUse"><stop stop-color="#0F6177" stop-opacity="0"></stop><stop offset="0.2761" stop-color="#0F6177" stop-opacity="0.276"></stop><stop offset="0.5628" stop-color="#0F6177" stop-opacity="0.563"></stop><stop offset="0.8535" stop-color="#0F6177" stop-opacity="0.854"></stop><stop offset="1" stop-color="#073D4B"></stop></linearGradient><linearGradient id="paint12_linear_86_1498" x1="12.2935" y1="29.0463" x2="9.2151" y2="31.895" gradientUnits="userSpaceOnUse"><stop stop-color="#0F6177" stop-opacity="0"></stop><stop offset="0.2761" stop-color="#0F6177" stop-opacity="0.276"></stop><stop offset="0.5628" stop-color="#0F6177" stop-opacity="0.563"></stop><stop offset="0.8535" stop-color="#0F6177" stop-opacity="0.854"></stop><stop offset="1" stop-color="#073D4B"></stop></linearGradient><linearGradient id="paint13_linear_86_1498" x1="13.93" y1="27.6848" x2="11.311" y2="31.2228" gradientUnits="userSpaceOnUse"><stop stop-color="#0F6177" stop-opacity="0"></stop><stop offset="0.2761" stop-color="#0F6177" stop-opacity="0.276"></stop><stop offset="0.5628" stop-color="#0F6177" stop-opacity="0.563"></stop><stop offset="0.8535" stop-color="#0F6177" stop-opacity="0.854"></stop><stop offset="1" stop-color="#073D4B"></stop></linearGradient><linearGradient id="paint14_linear_86_1498" x1="15.2318" y1="27.9254" x2="10.775" y2="29.7173" gradientUnits="userSpaceOnUse"><stop stop-color="#0F6177" stop-opacity="0"></stop><stop offset="0.2761" stop-color="#0F6177" stop-opacity="0.276"></stop><stop offset="0.5628" stop-color="#0F6177" stop-opacity="0.563"></stop><stop offset="0.8535" stop-color="#0F6177" stop-opacity="0.854"></stop><stop offset="1" stop-color="#073D4B"></stop></linearGradient><linearGradient id="paint15_linear_86_1498" x1="16.7654" y1="27.2619" x2="19.1087" y2="25.9753" gradientUnits="userSpaceOnUse"><stop stop-color="#0F6177" stop-opacity="0"></stop><stop offset="0.2761" stop-color="#0F6177" stop-opacity="0.276"></stop><stop offset="0.5628" stop-color="#0F6177" stop-opacity="0.563"></stop><stop offset="0.8535" stop-color="#0F6177" stop-opacity="0.854"></stop><stop offset="1" stop-color="#073D4B"></stop></linearGradient><linearGradient id="paint16_linear_86_1498" x1="9.23419" y1="34.3446" x2="13.9667" y2="41.8339" gradientUnits="userSpaceOnUse"><stop stop-color="#65B2C7"></stop><stop offset="1" stop-color="#084252"></stop></linearGradient><linearGradient id="paint17_linear_86_1498" x1="9.89702" y1="41.5917" x2="9.89702" y2="45.1441" gradientUnits="userSpaceOnUse"><stop stop-color="#0F6177" stop-opacity="0"></stop><stop offset="0.2761" stop-color="#0F6177" stop-opacity="0.276"></stop><stop offset="0.5628" stop-color="#0F6177" stop-opacity="0.563"></stop><stop offset="0.8535" stop-color="#0F6177" stop-opacity="0.854"></stop><stop offset="1" stop-color="#073D4B"></stop></linearGradient><linearGradient id="paint18_linear_86_1498" x1="12.2935" y1="36.9537" x2="9.2151" y2="34.105" gradientUnits="userSpaceOnUse"><stop stop-color="#0F6177" stop-opacity="0"></stop><stop offset="0.2761" stop-color="#0F6177" stop-opacity="0.276"></stop><stop offset="0.5628" stop-color="#0F6177" stop-opacity="0.563"></stop><stop offset="0.8535" stop-color="#0F6177" stop-opacity="0.854"></stop><stop offset="1" stop-color="#073D4B"></stop></linearGradient><linearGradient id="paint19_linear_86_1498" x1="13.93" y1="38.3152" x2="11.311" y2="34.7774" gradientUnits="userSpaceOnUse"><stop stop-color="#0F6177" stop-opacity="0"></stop><stop offset="0.2761" stop-color="#0F6177" stop-opacity="0.276"></stop><stop offset="0.5628" stop-color="#0F6177" stop-opacity="0.563"></stop><stop offset="0.8535" stop-color="#0F6177" stop-opacity="0.854"></stop><stop offset="1" stop-color="#073D4B"></stop></linearGradient><linearGradient id="paint20_linear_86_1498" x1="15.2318" y1="38.0745" x2="10.775" y2="36.2826" gradientUnits="userSpaceOnUse"><stop stop-color="#0F6177" stop-opacity="0"></stop><stop offset="0.2761" stop-color="#0F6177" stop-opacity="0.276"></stop><stop offset="0.5628" stop-color="#0F6177" stop-opacity="0.563"></stop><stop offset="0.8535" stop-color="#0F6177" stop-opacity="0.854"></stop><stop offset="1" stop-color="#073D4B"></stop></linearGradient><linearGradient id="paint21_linear_86_1498" x1="16.7654" y1="38.7381" x2="19.1087" y2="40.0246" gradientUnits="userSpaceOnUse"><stop stop-color="#0F6177" stop-opacity="0"></stop><stop offset="0.2761" stop-color="#0F6177" stop-opacity="0.276"></stop><stop offset="0.5628" stop-color="#0F6177" stop-opacity="0.563"></stop><stop offset="0.8535" stop-color="#0F6177" stop-opacity="0.854"></stop><stop offset="1" stop-color="#073D4B"></stop></linearGradient><linearGradient id="paint22_linear_86_1498" x1="17.6694" y1="31.6358" x2="17.6694" y2="33.8584" gradientUnits="userSpaceOnUse"><stop stop-color="#5A5A5A"></stop><stop offset="1" stop-color="#444444"></stop></linearGradient><clipPath id="clip0_86_1498"><rect width="66" height="66" fill="white"></rect></clipPath></defs></svg>