<svg xmlns="http://www.w3.org/2000/svg" width="62" height="61" viewBox="0 0 62 61" fill="none"><g id="alarm 1" clip-path="url(#clip0_20_2031)"><g id="Group"><g id="Group_2"><g id="Group_3"><path id="Vector" d="M47.4126 43.918L20.9238 49.5295L18.0022 35.7383C16.4526 28.4236 21.1261 21.2377 28.4408 19.6881C35.7555 18.1386 42.9413 22.8121 44.4909 30.1268L47.4125 43.918L47.4126 43.918Z" fill="url(#paint0_linear_20_2031)"></path><path id="Vector_2" d="M34.8149 19.8727C32.0849 19.1249 29.199 19.7363 27.0067 21.5268C23.2076 24.6297 21.2331 29.6943 22.3197 34.8236L25.2413 48.6148L47.4126 43.9179L44.491 30.1268C43.4043 24.9973 39.5458 21.1685 34.8149 19.8727Z" fill="url(#paint1_linear_20_2031)"></path><path id="Vector_3" d="M28.4408 19.6882C27.5188 19.8835 26.6391 20.1688 25.8082 20.5322C32.0961 20.4992 37.7554 24.8741 39.1097 31.2668L42.0313 45.058L47.4125 43.918L44.4909 30.1269C42.9414 22.8122 35.7555 18.1386 28.4408 19.6882Z" fill="url(#paint2_linear_20_2031)"></path><path id="Vector_4" d="M31.4802 34.0355C36.5888 32.9533 40.096 29.083 39.3139 25.391C38.5317 21.699 33.7564 19.5834 28.6479 20.6656C23.5394 21.7478 20.0321 25.6181 20.8142 29.3101C21.5964 33.0021 26.3717 35.1177 31.4802 34.0355Z" fill="url(#paint3_linear_20_2031)"></path></g><g id="Group_4"><path id="Vector_5" d="M32.4154 41.4804L26.3379 44.1285C24.5064 44.9265 22.4037 43.8436 21.9897 41.8893L21.2028 38.1751C20.7888 36.2207 22.2718 34.3782 24.2695 34.365L30.8987 34.3212C31.6412 34.3163 32.2847 34.8343 32.4385 35.5606L33.3203 39.7231C33.4742 40.4495 33.096 41.1839 32.4154 41.4804Z" fill="url(#paint4_linear_20_2031)"></path><path id="Vector_6" d="M32.1276 34.061L38.2052 31.4129C40.0366 30.615 42.1393 31.6978 42.5533 33.6522L43.3402 37.3664C43.7542 39.3208 42.2712 41.1633 40.2735 41.1765L33.6443 41.2202C32.9018 41.2252 32.2583 40.7072 32.1045 39.9808L31.2227 35.8184C31.0688 35.092 31.447 34.3576 32.1276 34.061Z" fill="url(#paint5_linear_20_2031)"></path></g><path id="Vector_7" d="M18.4241 37.7302L44.9129 32.1187L47.4125 43.9181L20.9238 49.5296L18.4241 37.7302Z" fill="url(#paint6_linear_20_2031)"></path><path id="Vector_8" d="M49.6123 47.2311L20.4248 53.4143L19.8328 50.6198C19.4905 49.0042 20.5228 47.4171 22.1383 47.0749L45.4753 42.1311C47.0909 41.7888 48.678 42.8211 49.0203 44.4366L49.6123 47.2311Z" fill="url(#paint7_linear_20_2031)"></path><path id="Vector_9" d="M52.6064 49.585L18.4741 56.8157C17.6672 56.9867 16.8744 56.4711 16.7034 55.6641L16.421 54.3308C16.0787 52.7152 17.111 51.1281 18.7265 50.7858L49.9305 44.1754C51.5461 43.8332 53.1332 44.8655 53.4754 46.481L53.7579 47.8144C53.9289 48.6213 53.4134 49.414 52.6064 49.585Z" fill="url(#paint8_linear_20_2031)"></path></g><g id="Group_5"><g id="Group_6"><path id="Vector_10" d="M27.6187 15.8071C26.7757 15.9857 25.9477 15.4471 25.7691 14.6042L24.7247 9.67404C24.5461 8.83108 25.0847 8.00306 25.9276 7.82451C26.7705 7.64593 27.5986 8.18454 27.7771 9.0274L28.8215 13.9575C29.0001 14.8005 28.4616 15.6286 27.6187 15.8071Z" fill="url(#paint9_linear_20_2031)"></path></g><g id="Group_7"><path id="Vector_11" d="M48.2418 29.2198C48.0632 28.3769 48.6018 27.5488 49.4447 27.3703L54.3748 26.3259C55.2177 26.1473 56.0457 26.6859 56.2243 27.5288C56.4029 28.3717 55.8643 29.1997 55.0214 29.3783L50.0913 30.4227C49.2484 30.6013 48.4203 30.0627 48.2418 29.2198Z" fill="url(#paint10_linear_20_2031)"></path><path id="Vector_12" d="M6.22328 38.1212C6.04471 37.2782 6.58331 36.4502 7.42617 36.2717L12.3563 35.2272C13.1992 35.0487 14.0273 35.5873 14.2058 36.4301C14.3844 37.2731 13.8458 38.1011 13.0029 38.2797L8.07281 39.3241C7.22995 39.5026 6.40184 38.964 6.22328 38.1212Z" fill="url(#paint11_linear_20_2031)"></path></g><g id="Group_8"><path id="Vector_13" d="M40.7081 18.2423C39.9858 17.7726 39.7811 16.8062 40.2509 16.0839L42.9985 11.8593C43.4682 11.137 44.4346 10.9323 45.1569 11.402C45.8791 11.8718 46.0838 12.8381 45.6141 13.5604L42.8665 17.7851C42.3967 18.5073 41.4303 18.7121 40.7081 18.2423Z" fill="url(#paint12_linear_20_2031)"></path></g><g id="Group_9"><path id="Vector_14" d="M9.80076 18.892C10.2705 18.1697 11.2369 17.965 11.9591 18.4347L16.1838 21.1823C16.9061 21.6521 17.1108 22.6185 16.6411 23.3407C16.1713 24.063 15.2049 24.2677 14.4827 23.798L10.258 21.0503C9.53568 20.5807 9.33095 19.6143 9.80076 18.892Z" fill="url(#paint13_linear_20_2031)"></path></g></g></g></g><defs><linearGradient id="paint0_linear_20_2031" x1="27.7956" y1="26.2712" x2="33.2705" y2="41.1541" gradientUnits="userSpaceOnUse"><stop stop-color="#FF7044"></stop><stop offset="0.2346" stop-color="#FE653C"></stop><stop offset="0.6509" stop-color="#FB4628"></stop><stop offset="1" stop-color="#F82814"></stop></linearGradient><linearGradient id="paint1_linear_20_2031" x1="30.2737" y1="31.209" x2="14.4164" y2="5.67986" gradientUnits="userSpaceOnUse"><stop stop-color="#FFD945" stop-opacity="0"></stop><stop offset="1" stop-color="#FBED21"></stop></linearGradient><linearGradient id="paint2_linear_20_2031" x1="33.8187" y1="19.0468" x2="39.9324" y2="47.9064" gradientUnits="userSpaceOnUse"><stop stop-color="#F82814" stop-opacity="0"></stop><stop offset="1" stop-color="#C0272D"></stop></linearGradient><linearGradient id="paint3_linear_20_2031" x1="30.1767" y1="27.8822" x2="25.2586" y2="4.66662" gradientUnits="userSpaceOnUse"><stop stop-color="white" stop-opacity="0"></stop><stop offset="1" stop-color="white"></stop></linearGradient><linearGradient id="paint4_linear_20_2031" x1="29.382" y1="39.9527" x2="7.05979" y2="31.2958" gradientUnits="userSpaceOnUse"><stop stop-color="#FFD945" stop-opacity="0"></stop><stop offset="1" stop-color="#FBED21"></stop></linearGradient><linearGradient id="paint5_linear_20_2031" x1="35.161" y1="35.5888" x2="57.4832" y2="44.2456" gradientUnits="userSpaceOnUse"><stop stop-color="#FFD945" stop-opacity="0"></stop><stop offset="1" stop-color="#FBED21"></stop></linearGradient><linearGradient id="paint6_linear_20_2031" x1="32.707" y1="39.8265" x2="33.884" y2="45.3823" gradientUnits="userSpaceOnUse"><stop stop-color="#F82814" stop-opacity="0"></stop><stop offset="0.1249" stop-color="#ED2819" stop-opacity="0.125"></stop><stop offset="0.4524" stop-color="#D42724" stop-opacity="0.452"></stop><stop offset="0.7531" stop-color="#C5272B" stop-opacity="0.753"></stop><stop offset="1" stop-color="#C0272D"></stop></linearGradient><linearGradient id="paint7_linear_20_2031" x1="33.8915" y1="45.0025" x2="34.6739" y2="48.6961" gradientUnits="userSpaceOnUse"><stop stop-color="#8A7889"></stop><stop offset="1" stop-color="#6E566E"></stop></linearGradient><linearGradient id="paint8_linear_20_2031" x1="34.4132" y1="47.8801" x2="35.1957" y2="51.5737" gradientUnits="userSpaceOnUse"><stop stop-color="#8A7889"></stop><stop offset="1" stop-color="#6E566E"></stop></linearGradient><linearGradient id="paint9_linear_20_2031" x1="24.448" y1="12.3083" x2="28.6298" y2="11.4224" gradientUnits="userSpaceOnUse"><stop stop-color="#FFD945"></stop><stop offset="0.3043" stop-color="#FFCD3E"></stop><stop offset="0.8558" stop-color="#FFAD2B"></stop><stop offset="1" stop-color="#FFA325"></stop></linearGradient><linearGradient id="paint10_linear_20_2031" x1="51.7406" y1="26.0491" x2="52.6265" y2="30.2309" gradientUnits="userSpaceOnUse"><stop stop-color="#FFD945"></stop><stop offset="0.3043" stop-color="#FFCD3E"></stop><stop offset="0.8558" stop-color="#FFAD2B"></stop><stop offset="1" stop-color="#FFA325"></stop></linearGradient><linearGradient id="paint11_linear_20_2031" x1="9.72198" y1="34.9505" x2="10.6079" y2="39.1323" gradientUnits="userSpaceOnUse"><stop stop-color="#FFD945"></stop><stop offset="0.3043" stop-color="#FFCD3E"></stop><stop offset="0.8558" stop-color="#FFAD2B"></stop><stop offset="1" stop-color="#FFA325"></stop></linearGradient><linearGradient id="paint12_linear_20_2031" x1="40.9193" y1="13.5202" x2="44.5021" y2="15.8504" gradientUnits="userSpaceOnUse"><stop stop-color="#FFD945"></stop><stop offset="0.3043" stop-color="#FFCD3E"></stop><stop offset="0.8558" stop-color="#FFAD2B"></stop><stop offset="1" stop-color="#FFA325"></stop></linearGradient><linearGradient id="paint13_linear_20_2031" x1="14.4992" y1="19.0878" x2="12.1691" y2="22.6706" gradientUnits="userSpaceOnUse"><stop stop-color="#FFD945"></stop><stop offset="0.3043" stop-color="#FFCD3E"></stop><stop offset="0.8558" stop-color="#FFAD2B"></stop><stop offset="1" stop-color="#FFA325"></stop></linearGradient><clipPath id="clip0_20_2031"><rect width="51.1108" height="51.1108" fill="white" transform="translate(0.437134 10.8081) rotate(-11.961)"></rect></clipPath></defs></svg>