<svg xmlns="http://www.w3.org/2000/svg" width="25" height="24" viewBox="0 0 25 24" fill="none"><g id="balance_fill" clip-path="url(#clip0_20_160)"><g id="Group"><path id="Vector" fill-rule="evenodd" clip-rule="evenodd" d="M12.5 3C12.7652 3 13.0196 3.10536 13.2071 3.29289C13.3946 3.48043 13.5 3.73478 13.5 4V5H14.264C14.5743 5.00002 14.8804 5.07226 15.158 5.211L16.736 6H20.5C20.7652 6 21.0196 6.10536 21.2071 6.29289C21.3946 6.48043 21.5 6.73478 21.5 7C21.5 7.26522 21.3946 7.51957 21.2071 7.70711C21.0196 7.89464 20.7652 8 20.5 8H20.118L22.394 12.553C22.464 12.692 22.5 12.845 22.5 13C22.5 14.0609 22.0786 15.0783 21.3284 15.8284C20.5783 16.5786 19.5609 17 18.5 17C17.4391 17 16.4217 16.5786 15.6716 15.8284C14.9214 15.0783 14.5 14.0609 14.5 13C14.5 12.845 14.536 12.692 14.606 12.553L16.882 8H16.736C16.4257 7.99998 16.1196 7.92774 15.842 7.789L14.264 7H13.5V19H16.5C16.7652 19 17.0196 19.1054 17.2071 19.2929C17.3946 19.4804 17.5 19.7348 17.5 20C17.5 20.2652 17.3946 20.5196 17.2071 20.7071C17.0196 20.8946 16.7652 21 16.5 21H8.5C8.23478 21 7.98043 20.8946 7.79289 20.7071C7.60536 20.5196 7.5 20.2652 7.5 20C7.5 19.7348 7.60536 19.4804 7.79289 19.2929C7.98043 19.1054 8.23478 19 8.5 19H11.5V7H10.736L9.158 7.789C8.88041 7.92774 8.57433 7.99998 8.264 8H8.118L10.394 12.553C10.4635 12.6918 10.4998 12.8448 10.5 13C10.5 14.0609 10.0786 15.0783 9.32843 15.8284C8.57828 16.5786 7.56087 17 6.5 17C5.43913 17 4.42172 16.5786 3.67157 15.8284C2.92143 15.0783 2.5 14.0609 2.5 13C2.50017 12.8448 2.53646 12.6918 2.606 12.553L4.882 8H4.5C4.23478 8 3.98043 7.89464 3.79289 7.70711C3.60536 7.51957 3.5 7.26522 3.5 7C3.5 6.73478 3.60536 6.48043 3.79289 6.29289C3.98043 6.10536 4.23478 6 4.5 6H8.264L9.842 5.211C10.1196 5.07226 10.4257 5.00002 10.736 5H11.5V4C11.5 3.73478 11.6054 3.48043 11.7929 3.29289C11.9804 3.10536 12.2348 3 12.5 3Z" fill="white"></path></g></g><defs><clipPath id="clip0_20_160"><rect width="24" height="24" fill="white" transform="translate(0.5)"></rect></clipPath></defs></svg>