<svg xmlns="http://www.w3.org/2000/svg" width="25" height="24" viewBox="0 0 25 24" fill="none"><g id="book_4_fill" clip-path="url(#clip0_20_169)"><g id="Group"><path id="Vector" fill-rule="evenodd" clip-rule="evenodd" d="M14.612 3.74379L22.056 7.50479C22.3706 7.66484 22.6192 7.93003 22.7585 8.25429C22.8979 8.57855 22.9193 8.9414 22.819 9.27979C22.429 10.6108 22.472 11.1698 22.727 11.8008C22.984 12.4388 22.806 13.2498 22.14 13.6708L11.856 20.1808C11.425 20.4538 10.876 20.4958 10.399 20.2628L6.55901 18.3678L4.95501 17.5628L3.81501 16.9808L3.11901 16.6158L2.75901 16.4198L2.49801 16.2698C1.47801 15.6548 1.16001 14.4048 1.16601 13.4498C1.17001 12.4788 1.50401 11.2658 2.43101 10.5998L2.73101 10.3928L3.58901 9.83179L5.63401 8.52579L13.142 3.81079C13.3607 3.67433 13.6109 3.59657 13.8684 3.585C14.1259 3.57344 14.382 3.62748 14.612 3.74379ZM20.533 10.6878L11.86 16.1778L11.752 16.2408L11.641 16.2928C11.531 16.7008 11.493 16.9938 11.497 17.2658C11.499 17.4278 11.517 17.5938 11.552 17.7828L11.594 17.9798L20.742 12.1898L20.67 11.9408C20.5849 11.6154 20.5386 11.2811 20.532 10.9448L20.533 10.6878ZM3.30001 12.6778C3.20973 12.9279 3.16436 13.1919 3.16601 13.4578C3.16301 14.1298 3.40301 14.4808 3.53101 14.5578L3.83901 14.7328L4.46501 15.0658L6.23501 15.9688L9.51001 17.5998C9.502 17.499 9.49733 17.3979 9.49601 17.2968C9.49233 16.9227 9.53057 16.5494 9.61001 16.1838L9.67701 15.8958L3.30001 12.6778ZM14.464 6.91379C14.2379 6.79454 13.9747 6.7664 13.7285 6.83516C13.4823 6.90392 13.2718 7.06436 13.1402 7.28351C13.0086 7.50267 12.9659 7.7639 13.0209 8.01353C13.0759 8.26317 13.2245 8.48226 13.436 8.62579L13.536 8.68579L15.636 9.78579C15.8621 9.90505 16.1253 9.93318 16.3715 9.86442C16.6177 9.79566 16.8282 9.63522 16.9598 9.41607C17.0914 9.19691 17.1341 8.93569 17.0791 8.68605C17.0241 8.43641 16.8755 8.21732 16.664 8.07379L16.564 8.01379L14.464 6.91379Z" fill="white"></path></g></g><defs><clipPath id="clip0_20_169"><rect width="24" height="24" fill="white" transform="translate(0.5)"></rect></clipPath></defs></svg>