<svg xmlns="http://www.w3.org/2000/svg" width="25" height="25" viewBox="0 0 25 25" fill="none"><g id="brain_fill" clip-path="url(#clip0_20_26)"><g id="Group"><path id="Vector" fill-rule="evenodd" clip-rule="evenodd" d="M15.9177 3.36451C16.9786 3.36451 17.996 3.78593 18.7461 4.53608C19.4963 5.28623 19.9177 6.30364 19.9177 7.36451V8.49051C20.9204 8.7584 21.7798 9.40534 22.3145 10.2948C22.8493 11.1843 23.0176 12.2467 22.7839 13.2579C22.5503 14.2691 21.9329 15.15 21.0621 15.7147C20.1914 16.2794 19.1353 16.4837 18.1167 16.2845C17.988 16.2584 17.8554 16.2578 17.7265 16.283C17.5976 16.3081 17.4749 16.3583 17.3654 16.4308C17.256 16.5034 17.1618 16.5967 17.0884 16.7056C17.0151 16.8145 16.9638 16.9368 16.9377 17.0655C16.9116 17.1942 16.911 17.3268 16.9361 17.4557C16.9612 17.5846 17.0115 17.7073 17.084 17.8168C17.1565 17.9262 17.2499 18.0204 17.3588 18.0938C17.4677 18.1671 17.59 18.2184 17.7187 18.2445C18.4069 18.3842 19.1142 18.4025 19.8087 18.2985C19.6373 19.0105 19.2739 19.6617 18.758 20.1814C18.2421 20.7011 17.5934 21.0693 16.8828 21.2458C16.1721 21.4224 15.4266 21.4006 14.7274 21.1828C14.0283 20.9649 13.4023 20.5595 12.9177 20.0105C12.433 20.5592 11.8071 20.9644 11.1081 21.1821C10.4091 21.3997 9.66378 21.4214 8.95328 21.2449C8.24278 21.0684 7.59433 20.7003 7.07849 20.1808C6.56265 19.6613 6.1992 19.0102 6.0277 18.2985C6.72188 18.402 7.42879 18.3837 8.1167 18.2445C8.24539 18.2184 8.36768 18.1671 8.47658 18.0938C8.58548 18.0204 8.67885 17.9262 8.75138 17.8168C8.8239 17.7073 8.87415 17.5846 8.89925 17.4557C8.92436 17.3268 8.92383 17.1942 8.8977 17.0655C8.87157 16.9368 8.82034 16.8145 8.74695 16.7056C8.67355 16.5967 8.57943 16.5034 8.46995 16.4308C8.36047 16.3583 8.23778 16.3081 8.10888 16.283C7.97998 16.2578 7.84739 16.2584 7.7187 16.2845C7.12262 16.4056 6.50682 16.3899 5.9177 16.2385C5.05946 16.0161 4.29938 15.5149 3.75677 14.8138C3.21416 14.1126 2.91975 13.2511 2.91975 12.3645C2.91975 11.4779 3.21416 10.6164 3.75677 9.91524C4.29938 9.21408 5.05946 8.71294 5.9177 8.49051V7.36451C5.91765 6.552 6.16503 5.75874 6.62693 5.0903C7.08884 4.42186 7.74335 3.90993 8.50337 3.62265C9.26339 3.33536 10.0929 3.28633 10.8814 3.4821C11.67 3.67786 12.3803 4.10913 12.9177 4.71851C13.2927 4.29242 13.7542 3.95125 14.2716 3.71775C14.7889 3.48426 15.3501 3.36383 15.9177 3.36451ZM12.9177 6.36451C12.6728 6.36454 12.4364 6.45446 12.2533 6.61722C12.0703 6.77998 11.9534 7.00426 11.9247 7.24751L11.9177 7.36451V11.8995C11.3099 11.548 10.6199 11.3634 9.9177 11.3645C9.65248 11.3645 9.39813 11.4699 9.21059 11.6574C9.02306 11.8449 8.9177 12.0993 8.9177 12.3645C8.9177 12.6297 9.02306 12.8841 9.21059 13.0716C9.39813 13.2592 9.65248 13.3645 9.9177 13.3645C10.4223 13.3643 10.9083 13.5549 11.2782 13.898C11.6482 14.2411 11.8749 14.7114 11.9127 15.2145L11.9177 15.3645V17.3645C11.918 17.6194 12.0156 17.8645 12.1905 18.0499C12.3655 18.2352 12.6047 18.3467 12.8591 18.3617C13.1135 18.3766 13.3641 18.2938 13.5595 18.1302C13.755 17.9667 13.8806 17.7346 13.9107 17.4815L13.9177 17.3645V15.3585C13.9193 14.8291 14.1307 14.3219 14.5056 13.9482C14.8805 13.5744 15.3883 13.3645 15.9177 13.3645C16.1829 13.3645 16.4373 13.2592 16.6248 13.0716C16.8123 12.8841 16.9177 12.6297 16.9177 12.3645C16.9177 12.0993 16.8123 11.8449 16.6248 11.6574C16.4373 11.4699 16.1829 11.3645 15.9177 11.3645C15.3021 11.3641 14.6946 11.5058 14.1427 11.7785L13.9177 11.8995V7.36451C13.9177 7.09929 13.8123 6.84494 13.6248 6.6574C13.4373 6.46986 13.1829 6.36451 12.9177 6.36451Z" fill="white"></path></g></g><defs><clipPath id="clip0_20_26"><rect width="24" height="24" fill="white" transform="translate(0.917694 0.364746)"></rect></clipPath></defs></svg>