<svg xmlns="http://www.w3.org/2000/svg" width="25" height="24" viewBox="0 0 25 24" fill="none"><g id="brush_2_fill" clip-path="url(#clip0_20_133)"><g id="Group"><path id="Vector" d="M20.985 10.5859L22.045 11.6459C22.4922 12.0927 22.7536 12.6924 22.7764 13.3242C22.7992 13.956 22.5818 14.5729 22.168 15.0509L22.046 15.1809L15.682 21.5459C15.235 21.993 14.6353 22.2541 14.0035 22.2767C13.3717 22.2994 12.7548 22.0818 12.277 21.6679L12.147 21.5459L11.086 20.4859L20.985 10.5859ZM3.308 2.80786C4.193 1.92186 5.318 1.47786 6.492 1.60486C7.653 1.72986 8.717 2.39786 9.548 3.45086C10.436 4.57786 11.248 6.18286 11.884 7.62486C12.195 8.32886 13.044 8.49886 13.56 8.09986L13.653 8.01886L14.268 7.40386C14.715 6.95677 15.3147 6.69562 15.9465 6.67298C16.5783 6.65035 17.1952 6.86791 17.673 7.28186L17.803 7.40386L19.571 9.17186L9.671 19.0709L7.904 17.3029C7.45691 16.8559 7.19576 16.2561 7.17312 15.6244C7.15049 14.9926 7.36804 14.3757 7.782 13.8979L7.904 13.7679L8.519 13.1529C9.019 12.6529 8.873 11.7139 8.125 11.3839C6.683 10.7479 5.078 9.93586 3.951 9.04786C2.898 8.21686 2.231 7.15286 2.105 5.99186C1.978 4.81786 2.422 3.69186 3.308 2.80786Z" fill="white"></path></g></g><defs><clipPath id="clip0_20_133"><rect width="24" height="24" fill="white" transform="translate(0.5)"></rect></clipPath></defs></svg>