<svg xmlns="http://www.w3.org/2000/svg" width="25" height="24" viewBox="0 0 25 24" fill="none"><g id="chart_bar_2_fill" clip-path="url(#clip0_20_142)"><g id="Group"><path id="Vector" fill-rule="evenodd" clip-rule="evenodd" d="M14.5 5C14.5 4.46957 14.7107 3.96086 15.0858 3.58579C15.4609 3.21071 15.9696 3 16.5 3H20.5C21.0304 3 21.5391 3.21071 21.9142 3.58579C22.2893 3.96086 22.5 4.46957 22.5 5V19C22.5 19.5304 22.2893 20.0391 21.9142 20.4142C21.5391 20.7893 21.0304 21 20.5 21H4.5C3.96957 21 3.46086 20.7893 3.08579 20.4142C2.71071 20.0391 2.5 19.5304 2.5 19V14C2.5 13.4696 2.71071 12.9609 3.08579 12.5858C3.46086 12.2107 3.96957 12 4.5 12H8.5V10C8.5 9.46957 8.71071 8.96086 9.08579 8.58579C9.46086 8.21071 9.96957 8 10.5 8H14.5V5Z" fill="white"></path></g></g><defs><clipPath id="clip0_20_142"><rect width="24" height="24" fill="white" transform="translate(0.5)"></rect></clipPath></defs></svg>