<svg xmlns="http://www.w3.org/2000/svg" width="87" height="86" viewBox="0 0 87 86" fill="none"><g id="checkbox-circle-fill"><path id="Rectangle 33" d="M12.8563 13H72.1667V74H12.8563V13Z" fill="white"></path><path id="Vector" d="M43.5 86C19.7517 86 0.5 66.748 0.5 43C0.5 19.2517 19.7517 0 43.5 0C67.248 0 86.5 19.2517 86.5 43C86.5 66.748 67.248 86 43.5 86ZM35.6757 56.6645C37.6283 58.6171 40.7941 58.6171 42.7467 56.6645L66.5764 32.8349C68.2556 31.1557 68.2556 28.4331 66.5764 26.7539C64.8971 25.0746 62.1745 25.0746 60.4953 26.7538L39.2112 48.0379L30.0898 38.9162C28.4105 37.2368 25.6877 37.2368 24.0084 38.9162C22.3292 40.5955 22.3292 43.3181 24.0085 44.9974L35.6757 56.6645Z" fill="url(#paint0_linear_169_1976)"></path></g><defs><linearGradient id="paint0_linear_169_1976" x1="0.499934" y1="42.9998" x2="86.4999" y2="42.9998" gradientUnits="userSpaceOnUse"><stop stop-color="#F9970C"></stop><stop offset="1" stop-color="#F5A01B"></stop></linearGradient></defs></svg>