<svg xmlns="http://www.w3.org/2000/svg" width="25" height="25" viewBox="0 0 25 25" fill="none"><g id="diamond_2_fill" clip-path="url(#clip0_20_17)"><g id="Group"><path id="Vector" d="M17.1982 3.39355C17.4799 3.39354 17.7585 3.45304 18.0156 3.56816C18.2727 3.68328 18.5026 3.85141 18.6902 4.06155L18.7982 4.19355L22.5022 9.13256C22.764 9.48148 22.9044 9.9064 22.9023 10.3426C22.9001 10.7787 22.7554 11.2022 22.4902 11.5486L22.3822 11.6786L13.1232 21.8626C12.9023 22.1057 12.5945 22.2521 12.2664 22.2701C11.9384 22.2881 11.6164 22.1761 11.3702 21.9586L11.2732 21.8626L2.01423 11.6776C1.72076 11.3547 1.54091 10.9448 1.50209 10.5102C1.46327 10.0756 1.56762 9.6403 1.79923 9.27055L1.89423 9.13256L5.59823 4.19355C5.76727 3.96809 5.98205 3.7809 6.22849 3.64424C6.47492 3.50758 6.74746 3.42453 7.02823 3.40055L7.19823 3.39355H17.1982ZM13.8882 6.25655L14.5262 9.15055C14.5327 9.17974 14.5325 9.21 14.5257 9.23911C14.5188 9.26821 14.5056 9.29542 14.4869 9.31873C14.4682 9.34204 14.4445 9.36086 14.4176 9.37381C14.3906 9.38676 14.3611 9.39351 14.3312 9.39355H10.0652C10.0353 9.39351 10.0058 9.38676 9.97891 9.37381C9.95197 9.36086 9.92827 9.34204 9.90957 9.31873C9.89086 9.29542 9.87762 9.26821 9.87081 9.23911C9.864 9.21 9.8638 9.17974 9.87023 9.15055L10.5082 6.25655C10.5542 6.04855 10.2862 5.92255 10.1552 6.09055L7.62423 9.33755C7.59596 9.37383 7.55606 9.39926 7.51123 9.40955L4.28423 10.1506C4.08123 10.1976 4.07623 10.4856 4.27823 10.5396L7.43823 11.3716C7.46439 11.3785 7.48886 11.3907 7.51018 11.4073C7.53149 11.424 7.5492 11.4448 7.56223 11.4686L12.0222 19.5886C12.0394 19.6201 12.0648 19.6463 12.0957 19.6647C12.1266 19.683 12.1618 19.6926 12.1977 19.6926C12.2336 19.6926 12.2689 19.683 12.2998 19.6647C12.3306 19.6463 12.356 19.6201 12.3732 19.5886L16.8332 11.4686C16.8464 11.4447 16.8642 11.4238 16.8857 11.4072C16.9072 11.3905 16.9319 11.3784 16.9582 11.3716L20.1182 10.5396C20.3202 10.4856 20.3152 10.1976 20.1122 10.1506L16.8852 9.40955C16.8404 9.39926 16.8005 9.37383 16.7722 9.33755L14.2422 6.09055C14.1102 5.92255 13.8422 6.04855 13.8882 6.25655ZM14.4262 11.3936C14.454 11.3936 14.4815 11.3994 14.5069 11.4106C14.5322 11.4218 14.555 11.4382 14.5738 11.4587C14.5925 11.4792 14.6067 11.5034 14.6156 11.5297C14.6244 11.556 14.6277 11.5839 14.6252 11.6116L14.6112 11.6676L12.3842 17.2376C12.3714 17.2699 12.3505 17.2983 12.3234 17.32C12.2962 17.3418 12.2639 17.3561 12.2296 17.3615C12.1953 17.367 12.1602 17.3634 12.1277 17.3511C12.0951 17.3388 12.0664 17.3183 12.0442 17.2916L12.0122 17.2366L9.78523 11.6676C9.77489 11.6418 9.77003 11.6141 9.77096 11.5864C9.77189 11.5586 9.77858 11.5314 9.79063 11.5064C9.80267 11.4813 9.81979 11.4591 9.8409 11.441C9.862 11.423 9.88664 11.4096 9.91323 11.4016L9.97023 11.3936H14.4262Z" fill="white"></path></g></g><defs><clipPath id="clip0_20_17"><rect width="24" height="24" fill="white" transform="translate(0.198227 0.393555)"></rect></clipPath></defs></svg>