<svg xmlns="http://www.w3.org/2000/svg" width="13" height="13" viewBox="0 0 13 13" fill="none"><g id="EarthIcon"><mask id="mask0_47_229" style="mask-type:alpha" maskUnits="userSpaceOnUse" x="0" y="0" width="13" height="13"><rect id="Bounding box" x="0.666626" y="0.216797" width="12" height="12" fill="#D9D9D9"></rect></mask><g mask="url(#mask0_47_229)"><path id="public" d="M6.66663 11.2168C5.97496 11.2168 5.32496 11.0855 4.71663 10.8228C4.10829 10.5605 3.57913 10.2043 3.12913 9.7543C2.67913 9.3043 2.32296 8.77513 2.06063 8.1668C1.79796 7.55846 1.66663 6.90846 1.66663 6.2168C1.66663 5.52513 1.79796 4.87513 2.06063 4.2668C2.32296 3.65846 2.67913 3.1293 3.12913 2.6793C3.57913 2.2293 4.10829 1.87296 4.71663 1.6103C5.32496 1.34796 5.97496 1.2168 6.66663 1.2168C7.35829 1.2168 8.00829 1.34796 8.61663 1.6103C9.22496 1.87296 9.75413 2.2293 10.2041 2.6793C10.6541 3.1293 11.0103 3.65846 11.2726 4.2668C11.5353 4.87513 11.6666 5.52513 11.6666 6.2168C11.6666 6.90846 11.5353 7.55846 11.2726 8.1668C11.0103 8.77513 10.6541 9.3043 10.2041 9.7543C9.75413 10.2043 9.22496 10.5605 8.61663 10.8228C8.00829 11.0855 7.35829 11.2168 6.66663 11.2168ZM6.16663 10.1918V9.2168C5.89163 9.2168 5.65629 9.11896 5.46063 8.9233C5.26463 8.7273 5.16663 8.4918 5.16663 8.2168V7.7168L2.76663 5.3168C2.74163 5.4668 2.71863 5.6168 2.69763 5.7668C2.67696 5.9168 2.66663 6.0668 2.66663 6.2168C2.66663 7.22513 2.99796 8.10846 3.66063 8.8668C4.32296 9.62513 5.15829 10.0668 6.16663 10.1918ZM9.61663 8.9168C9.78329 8.73346 9.93329 8.53546 10.0666 8.3228C10.2 8.11046 10.3105 7.88963 10.3981 7.6603C10.4855 7.4313 10.5521 7.19596 10.5981 6.9543C10.6438 6.71263 10.6666 6.4668 10.6666 6.2168C10.6666 5.40013 10.4396 4.6543 9.98563 3.9793C9.53129 3.3043 8.92496 2.8168 8.16663 2.5168V2.7168C8.16663 2.9918 8.06879 3.22713 7.87313 3.4228C7.67713 3.6188 7.44163 3.7168 7.16663 3.7168H6.16663V4.7168C6.16663 4.85846 6.11879 4.97713 6.02313 5.0728C5.92713 5.1688 5.80829 5.2168 5.66663 5.2168H4.66663V6.2168H7.66663C7.80829 6.2168 7.92713 6.26463 8.02313 6.3603C8.11879 6.4563 8.16663 6.57513 8.16663 6.7168V8.2168H8.66663C8.88329 8.2168 9.07913 8.2813 9.25413 8.4103C9.42913 8.53963 9.54996 8.70846 9.61663 8.9168Z" fill="#4A596E"></path></g></g></svg>