<svg xmlns="http://www.w3.org/2000/svg" width="24" height="25" viewBox="0 0 24 25" fill="none"><g id="facebook_line" clip-path="url(#clip0_169_1891)"><g id="Group"><path id="Vector" fill-rule="evenodd" clip-rule="evenodd" d="M4 12.2168C4.00014 10.6772 4.44451 9.17044 5.27979 7.87718C6.11506 6.58392 7.30576 5.55914 8.70901 4.92581C10.1123 4.29248 11.6684 4.0775 13.1908 4.30667C14.7132 4.53584 16.1372 5.19942 17.2918 6.21779C18.4464 7.23616 19.2826 8.56606 19.7002 10.0479C20.1177 11.5298 20.0988 13.1006 19.6457 14.572C19.1926 16.0433 18.3246 17.3527 17.1458 18.343C15.967 19.3333 14.5275 19.9624 13 20.1548V14.2168H15C15.2652 14.2168 15.5196 14.1114 15.7071 13.9239C15.8946 13.7364 16 13.482 16 13.2168C16 12.9516 15.8946 12.6972 15.7071 12.5097C15.5196 12.3222 15.2652 12.2168 15 12.2168H13V10.2168C13 9.95158 13.1054 9.69723 13.2929 9.50969C13.4804 9.32215 13.7348 9.2168 14 9.2168H14.5C14.7652 9.2168 15.0196 9.11144 15.2071 8.9239C15.3946 8.73637 15.5 8.48201 15.5 8.2168C15.5 7.95158 15.3946 7.69723 15.2071 7.50969C15.0196 7.32215 14.7652 7.2168 14.5 7.2168H14C13.2044 7.2168 12.4413 7.53287 11.8787 8.09548C11.3161 8.65809 11 9.42115 11 10.2168V12.2168H9C8.73478 12.2168 8.48043 12.3222 8.29289 12.5097C8.10536 12.6972 8 12.9516 8 13.2168C8 13.482 8.10536 13.7364 8.29289 13.9239C8.48043 14.1114 8.73478 14.2168 9 14.2168H11V20.1548C9.0667 19.911 7.28882 18.9701 6 17.5085C4.71119 16.047 4.00003 14.1654 4 12.2168ZM12 22.2168C17.523 22.2168 22 17.7398 22 12.2168C22 6.6938 17.523 2.2168 12 2.2168C6.477 2.2168 2 6.6938 2 12.2168C2 17.7398 6.477 22.2168 12 22.2168Z" fill="#022E3C"></path></g></g><defs><clipPath id="clip0_169_1891"><rect width="24" height="24" fill="white" transform="translate(0 0.216797)"></rect></clipPath></defs></svg>