<svg xmlns="http://www.w3.org/2000/svg" width="140" height="156" viewBox="0 0 140 156" fill="none"><g id="fi_11042331" opacity="0.1" clip-path="url(#clip0_20_1479)"><g id="Page-1" opacity="0.33"><g id="flat"><g id="quote-right-saying-speech"><path id="Combined-Shape" d="M88.6875 -40.0137C112.355 -40.0137 131.542 -20.8272 131.542 2.8405C131.542 20.3218 122.441 37.2362 108.859 40.5C103.62 41.7589 99.4475 48.4823 100.344 56.1576C101.544 66.4308 110.834 76.8099 129.229 84.9891C133.324 86.8102 131.609 92.9713 127.162 92.4145C79.2231 86.4127 45.9933 55.1597 45.8339 10.9426C45.8333 -19.4667 63.7993 -40.0137 88.6875 -40.0137Z" fill="#022E3C"></path><path id="Combined-Shape_2" d="M-4.81308 -40.0137C18.8546 -40.0137 38.0411 -20.8272 38.0411 2.8405C38.0411 20.3218 28.9408 37.2362 15.3585 40.5C10.1194 41.7589 5.94699 48.4823 6.84351 56.1576C8.04348 66.4308 17.3336 76.8099 35.7281 84.9891C39.8238 86.8102 38.1088 92.9713 33.6613 92.4145C-14.2775 86.4127 -47.5073 55.1597 -47.6667 10.9426C-47.6673 -19.4667 -29.7013 -40.0137 -4.81308 -40.0137Z" fill="#022E3C"></path></g></g></g></g><defs><clipPath id="clip0_20_1479"><rect width="187" height="187" fill="white" transform="translate(-47.6667 -31.7832)"></rect></clipPath></defs></svg>