<svg xmlns="http://www.w3.org/2000/svg" width="128" height="194" viewBox="0 0 128 194" fill="none"><g id="fi_2097045" clip-path="url(#clip0_20_424)"><path id="Vector" d="M120.311 59.5498C104.452 41.9419 77.1268 40.8032 59.8527 57.2578C43.4443 72.8878 42.4028 98.9475 57.4885 115.858C65.1634 124.461 75.5603 129.174 86.2103 129.87C96.0016 130.51 105.177 134.868 111.743 142.159L113.905 144.558L142.839 118.496L140.678 116.097C134.143 108.841 130.698 99.3147 131.111 89.5586C131.562 78.914 128.005 68.0921 120.311 59.5498Z" fill="url(#paint0_radial_20_424)"></path><path id="Vector_2" d="M115.378 117.101C131.571 102.516 132.874 77.5649 118.289 61.3718C103.704 45.1788 78.7528 43.8754 62.5597 58.4606C46.3666 73.0459 45.0632 97.9967 59.6485 114.19C74.2338 130.383 99.1846 131.686 115.378 117.101Z" fill="url(#paint1_linear_20_424)"></path><path id="Vector_3" d="M83.16 81.3316C93.6636 71.871 97.7205 59.2523 92.2214 53.147C86.7223 47.0417 73.7496 49.7618 63.2461 59.2225C52.7425 68.6832 48.6855 81.3018 54.1846 87.4071C59.6837 93.5124 72.6564 90.7923 83.16 81.3316Z" fill="url(#paint2_linear_20_424)"></path><path id="Vector_4" d="M77.7357 47.1154C83.6496 49.4303 89.1299 53.1183 93.6696 58.1585C109.261 75.4686 107.868 102.14 90.5576 117.732C85.5174 122.272 79.6829 125.369 73.5598 127.055C87.9567 132.69 104.93 130.175 117.199 119.124C134.509 103.532 135.903 76.8603 120.311 59.5502C109.26 47.2803 92.6414 43.0105 77.7357 47.1154Z" fill="url(#paint3_linear_20_424)"></path><path id="Vector_5" d="M121.306 123.683C131.81 114.222 132.655 98.0377 123.194 87.5342C113.734 77.0306 97.5494 76.1851 87.0459 85.6458C76.5423 95.1065 75.6969 111.291 85.1575 121.794C94.6182 132.298 110.802 133.143 121.306 123.683Z" fill="url(#paint4_radial_20_424)"></path><path id="Vector_6" d="M151.826 134.62C147.719 144.571 139.329 152.128 129.004 155.176C126.322 155.968 123.423 155.149 121.552 153.071L107.463 137.429L136.42 111.348L150.509 126.99C152.38 129.067 152.893 132.036 151.826 134.62Z" fill="url(#paint5_linear_20_424)"></path><path id="Vector_7" d="M110.497 140.798L115.954 141.083L142.04 117.588L139.432 114.692L110.475 140.774L110.497 140.798Z" fill="url(#paint6_linear_20_424)"></path><path id="Vector_8" d="M116.924 147.933L122.381 148.218L148.467 124.722L145.859 121.827L116.902 147.909L116.924 147.933Z" fill="url(#paint7_linear_20_424)"></path><path id="Vector_9" d="M123.288 154.479C123.473 154.587 123.663 154.687 123.857 154.778L128.508 155.021L152.117 133.757C152.564 132.117 152.416 130.387 151.728 128.863L123.288 154.479Z" fill="url(#paint8_linear_20_424)"></path><path id="Vector_10" d="M112.333 97.3176L111.744 97.8472C109.414 99.9463 109.226 103.55 111.325 105.88L112.551 107.241L109.209 110.252L105.866 113.262L104.64 111.901C102.541 109.571 98.9376 109.383 96.6071 111.482L96.0191 112.011C93.6887 114.11 93.5005 117.714 95.5995 120.044C97.6985 122.375 101.302 122.563 103.632 120.464L105.582 118.708L115.43 129.642L118.295 127.061L108.447 116.127L111.789 113.117L115.132 110.106L124.98 121.04L127.845 118.46L117.997 107.526L119.946 105.77C122.276 103.671 122.464 100.068 120.365 97.7372C118.266 95.4068 114.663 95.2186 112.333 97.3176ZM103.001 115.843L101.052 117.599C100.301 118.275 99.1408 118.214 98.4647 117.463C97.7887 116.713 97.8493 115.552 98.5999 114.876L99.1879 114.346C99.9385 113.67 101.099 113.731 101.775 114.482L103.001 115.843ZM117.365 102.905L115.416 104.661L114.19 103.3C113.514 102.549 113.574 101.388 114.325 100.712L114.913 100.183C115.664 99.5066 116.824 99.5672 117.5 100.318C118.177 101.068 118.116 102.229 117.365 102.905Z" fill="url(#paint9_linear_20_424)"></path><path id="Vector_11" d="M112.333 97.3176L111.744 97.8472C109.414 99.9463 109.226 103.55 111.325 105.88L112.551 107.241L109.209 110.252L105.866 113.262L104.64 111.901C102.541 109.571 98.9376 109.383 96.6071 111.482L96.0191 112.011C93.6887 114.11 93.5005 117.714 95.5995 120.044C97.6985 122.375 101.302 122.563 103.632 120.464L105.582 118.708L115.43 129.642L118.295 127.061L108.447 116.127L111.789 113.117L115.132 110.106L124.98 121.04L127.845 118.46L117.997 107.526L119.946 105.77C122.276 103.671 122.464 100.068 120.365 97.7372C118.266 95.4068 114.663 95.2186 112.333 97.3176ZM103.001 115.843L101.052 117.599C100.301 118.275 99.1408 118.214 98.4647 117.463C97.7887 116.713 97.8493 115.552 98.5999 114.876L99.1879 114.346C99.9385 113.67 101.099 113.731 101.775 114.482L103.001 115.843ZM117.365 102.905L115.416 104.661L114.19 103.3C113.514 102.549 113.574 101.388 114.325 100.712L114.913 100.183C115.664 99.5066 116.824 99.5672 117.5 100.318C118.177 101.068 118.116 102.229 117.365 102.905Z" fill="url(#paint10_linear_20_424)"></path><path id="Vector_12" d="M138.766 115.541L111.39 140.199C110.018 141.434 107.906 141.324 106.671 139.953C105.435 138.581 105.546 136.468 106.917 135.233L134.293 110.576C135.664 109.34 137.777 109.451 139.012 110.822C140.247 112.193 140.137 114.306 138.766 115.541Z" fill="url(#paint11_linear_20_424)"></path><path id="Vector_13" d="M145.197 122.682L117.821 147.34C116.45 148.575 114.337 148.464 113.102 147.093C111.867 145.722 111.977 143.609 113.348 142.374L140.724 117.716C142.096 116.481 144.209 116.592 145.444 117.963C146.679 119.334 146.568 121.447 145.197 122.682Z" fill="url(#paint12_linear_20_424)"></path><path id="Vector_14" d="M151.628 129.822L124.252 154.48C122.881 155.715 120.768 155.605 119.533 154.233C118.298 152.862 118.409 150.749 119.78 149.514L147.156 124.856C148.527 123.621 150.64 123.732 151.875 125.103C153.11 126.474 153 128.587 151.628 129.822Z" fill="url(#paint13_linear_20_424)"></path><path id="Vector_15" d="M55.347 122.268L51.1911 126.011C50.0888 127.004 48.3904 126.916 47.3975 125.813C46.4045 124.711 46.4933 123.013 47.5956 122.02L51.7515 118.276C52.8538 117.284 54.5524 117.372 55.5451 118.475C56.5381 119.577 56.4493 121.275 55.347 122.268Z" fill="url(#paint14_linear_20_424)"></path><path id="Vector_16" d="M130.927 54.1921L126.772 57.9353C125.669 58.9282 123.971 58.8395 122.978 57.7371C121.985 56.6347 122.074 54.9364 123.176 53.9435L127.332 50.2003C128.434 49.2074 130.133 49.2963 131.126 50.3985C132.119 51.5007 132.03 53.1992 130.927 54.1921Z" fill="url(#paint15_linear_20_424)"></path><path id="Vector_17" d="M59.0907 50.5958L55.3476 46.44C54.3548 45.3378 52.6563 45.2489 51.5539 46.2418C50.4515 47.2347 50.363 48.9333 51.3557 50.0355L55.0989 54.1913C56.0918 55.2937 57.7902 55.3824 58.8926 54.3895C59.9951 53.3967 60.0837 51.6982 59.0907 50.5958Z" fill="url(#paint16_linear_20_424)"></path><path id="Vector_18" d="M41.1236 88.281L35.538 87.9892C34.0567 87.9118 32.9184 86.648 32.9956 85.1664C33.073 83.685 34.3369 82.5466 35.8183 82.624L41.4039 82.9157C42.8853 82.9931 44.0236 84.2569 43.9464 85.7385C43.869 87.2203 42.6052 88.3586 41.1236 88.281Z" fill="url(#paint17_linear_20_424)"></path><path id="Vector_19" d="M94.4513 40.2482L94.7431 34.6626C94.8207 33.181 93.6824 31.9172 92.2006 31.8398C90.7192 31.7625 89.4554 32.9008 89.3779 34.3823L89.0861 39.9679C89.0087 41.4493 90.147 42.7131 91.6286 42.7907C93.1103 42.8681 94.3741 41.7298 94.4513 40.2482Z" fill="url(#paint18_linear_20_424)"></path></g><defs><radialGradient id="paint0_radial_20_424" cx="0" cy="0" r="1" gradientUnits="userSpaceOnUse" gradientTransform="translate(67.8565 85.3967) rotate(-42.0097) scale(66.7444 66.7444)"><stop stop-color="#FFDA45"></stop><stop offset="0.3043" stop-color="#FFCE3E"></stop><stop offset="0.8558" stop-color="#FFAE2B"></stop><stop offset="1" stop-color="#FFA425"></stop></radialGradient><linearGradient id="paint1_linear_20_424" x1="95.6206" y1="88.1283" x2="35.1918" y2="84.9716" gradientUnits="userSpaceOnUse"><stop stop-color="#FFDA45" stop-opacity="0"></stop><stop offset="1" stop-color="#FCEE21"></stop></linearGradient><linearGradient id="paint2_linear_20_424" x1="83.1841" y1="77.1903" x2="55.7406" y2="58.1821" gradientUnits="userSpaceOnUse"><stop stop-color="#FFDA45" stop-opacity="0"></stop><stop offset="1" stop-color="white"></stop></linearGradient><linearGradient id="paint3_linear_20_424" x1="100.876" y1="98.8125" x2="71.7878" y2="-20.1186" gradientUnits="userSpaceOnUse"><stop stop-color="#FFDA45" stop-opacity="0"></stop><stop offset="1" stop-color="#B53759"></stop></linearGradient><radialGradient id="paint4_radial_20_424" cx="0" cy="0" r="1" gradientUnits="userSpaceOnUse" gradientTransform="translate(104.176 104.664) rotate(-42.0097) scale(25.5957)"><stop stop-color="#FCEE21" stop-opacity="0.6"></stop><stop offset="0.3263" stop-color="#FDEA28" stop-opacity="0.404"></stop><stop offset="0.7865" stop-color="#FEE03A" stop-opacity="0.128"></stop><stop offset="1" stop-color="#FFDA45" stop-opacity="0"></stop></radialGradient><linearGradient id="paint5_linear_20_424" x1="117.866" y1="148.978" x2="146.822" y2="122.897" gradientUnits="userSpaceOnUse"><stop stop-color="#7E8595"></stop><stop offset="1" stop-color="#555A66"></stop></linearGradient><linearGradient id="paint6_linear_20_424" x1="127.367" y1="130.459" x2="124.334" y2="126.964" gradientUnits="userSpaceOnUse"><stop stop-color="#555A66" stop-opacity="0"></stop><stop offset="1" stop-color="#555A66"></stop></linearGradient><linearGradient id="paint7_linear_20_424" x1="133.794" y1="137.594" x2="130.761" y2="134.099" gradientUnits="userSpaceOnUse"><stop stop-color="#555A66" stop-opacity="0"></stop><stop offset="1" stop-color="#555A66"></stop></linearGradient><linearGradient id="paint8_linear_20_424" x1="139.894" y1="144.421" x2="136.865" y2="140.931" gradientUnits="userSpaceOnUse"><stop stop-color="#555A66" stop-opacity="0"></stop><stop offset="1" stop-color="#555A66"></stop></linearGradient><linearGradient id="paint9_linear_20_424" x1="110.512" y1="111.699" x2="101.446" y2="101.633" gradientUnits="userSpaceOnUse"><stop stop-color="#FFDA45" stop-opacity="0"></stop><stop offset="1" stop-color="#FCEE21"></stop></linearGradient><linearGradient id="paint10_linear_20_424" x1="112.347" y1="113.737" x2="123.131" y2="125.708" gradientUnits="userSpaceOnUse"><stop stop-color="#FFDA45" stop-opacity="0"></stop><stop offset="1" stop-color="#B53759"></stop></linearGradient><linearGradient id="paint11_linear_20_424" x1="121.177" y1="123.691" x2="125.273" y2="127.866" gradientUnits="userSpaceOnUse"><stop stop-color="#F9F7FC"></stop><stop offset="1" stop-color="#F0DDFC"></stop></linearGradient><linearGradient id="paint12_linear_20_424" x1="127.609" y1="130.832" x2="131.705" y2="135.007" gradientUnits="userSpaceOnUse"><stop stop-color="#7E8595"></stop><stop offset="1" stop-color="#555A66"></stop></linearGradient><linearGradient id="paint13_linear_20_424" x1="134.04" y1="137.972" x2="138.136" y2="142.147" gradientUnits="userSpaceOnUse"><stop stop-color="#7E8595"></stop><stop offset="1" stop-color="#555A66"></stop></linearGradient><linearGradient id="paint14_linear_20_424" x1="51.0525" y1="121.679" x2="54.7517" y2="125.786" gradientUnits="userSpaceOnUse"><stop stop-color="#3F889A"></stop><stop offset="1" stop-color="#073D4B"></stop></linearGradient><linearGradient id="paint15_linear_20_424" x1="126.633" y1="53.6029" x2="130.332" y2="57.7098" gradientUnits="userSpaceOnUse"><stop stop-color="#3F889A"></stop><stop offset="1" stop-color="#073D4B"></stop></linearGradient><linearGradient id="paint16_linear_20_424" x1="54.7585" y1="50.7342" x2="58.8655" y2="47.035" gradientUnits="userSpaceOnUse"><stop stop-color="#3F889A"></stop><stop offset="1" stop-color="#073D4B"></stop></linearGradient><linearGradient id="paint17_linear_20_424" x1="38.5007" y1="84.8204" x2="38.2124" y2="90.3394" gradientUnits="userSpaceOnUse"><stop stop-color="#3F889A"></stop><stop offset="1" stop-color="#073D4B"></stop></linearGradient><linearGradient id="paint18_linear_20_424" x1="91.2829" y1="37.279" x2="96.8018" y2="37.5673" gradientUnits="userSpaceOnUse"><stop stop-color="#3F889A"></stop><stop offset="1" stop-color="#073D4B"></stop></linearGradient><clipPath id="clip0_20_424"><rect width="136.259" height="136.259" fill="white" transform="translate(0.931396 91.8379) rotate(-42.0097)"></rect></clipPath></defs></svg>