<svg xmlns="http://www.w3.org/2000/svg" width="87" height="86" viewBox="0 0 87 86" fill="none"><g id="fi_2097055" clip-path="url(#clip0_13_2285)"><path id="Vector" d="M86.5 55.7477V83.3483C86.5 84.6521 85.1055 85.5436 83.8193 85.0644C77.6337 82.7625 71.3178 81.6126 65 81.6126C58.2846 81.6126 51.571 82.9127 45.0165 85.5148C44.5335 85.7065 44.0199 85.8101 43.5002 85.8101C42.9801 85.8101 42.4663 85.7065 41.983 85.5148C29.2631 80.4671 15.9389 80.3169 3.1805 85.0646C1.89455 85.5435 0.5 84.6519 0.5 83.3483V55.7477C0.5 54.8087 1.08969 53.9547 2.00888 53.5897C8.56731 50.986 15.2817 49.6862 21.998 49.6862C29.2311 49.6862 36.466 51.1951 43.5 54.213C57.0686 48.3921 71.3731 48.1851 84.9911 53.5897C85.9103 53.9547 86.5 54.8087 86.5 55.7477Z" fill="url(#paint0_linear_13_2285)"></path><path id="Vector_2" d="M83.8193 81.2843C77.6337 78.9824 71.3178 77.8325 65 77.8325C58.2846 77.8325 51.571 79.1326 45.0165 81.7347C44.5335 81.9265 44.0199 82.03 43.5002 82.03C42.9801 82.03 42.4663 81.9265 41.983 81.7347C29.2631 76.687 15.9389 76.537 3.1805 81.2845C1.89455 81.7637 0.5 80.872 0.5 79.5684V83.3485C0.5 84.6523 1.89455 85.5439 3.18067 85.0646C15.939 80.3171 29.2631 80.4672 41.9832 85.515C42.4665 85.7067 42.9805 85.8103 43.5003 85.8103C44.02 85.8103 44.5337 85.7067 45.0166 85.515C51.571 82.9129 58.2848 81.6128 65.0002 81.6128C71.318 81.6128 77.6339 82.7627 83.8195 85.0646C85.1056 85.5439 86.5002 84.6523 86.5002 83.3485V79.5684C86.5 80.872 85.1055 81.7637 83.8193 81.2843Z" fill="url(#paint1_linear_13_2285)"></path><path id="Vector_3" d="M84.0324 54.7625V77.6166C84.0324 78.9204 82.7188 79.8119 81.5057 79.3327C75.6751 77.0308 69.7222 75.8809 63.7673 75.8809C58.0242 75.8809 52.2828 76.9505 46.6518 79.0929C45.6442 79.4762 44.5782 79.6838 43.5001 79.6838C42.4207 79.6838 41.3538 79.4753 40.3449 79.0917C28.8783 74.7315 16.9453 74.8123 5.49437 79.3325C4.28126 79.8118 2.96765 78.9202 2.96765 77.6164V54.7623C2.96765 53.8234 3.52395 52.9693 4.38986 52.6044C10.5716 50.0006 16.9032 48.7008 23.233 48.7008C30.0517 48.7008 36.8687 50.2097 43.5001 53.2276C56.2897 47.4068 69.7735 47.1997 82.6104 52.6044C83.4761 52.9695 84.0324 53.8236 84.0324 54.7625Z" fill="url(#paint2_linear_13_2285)"></path><path id="Vector_4" d="M84.0324 54.7625V77.6166C84.0324 78.9204 82.7188 79.8119 81.5057 79.3327C75.6751 77.0308 69.7222 75.8809 63.7673 75.8809C58.0242 75.8809 52.2828 76.9505 46.6518 79.0929C45.6442 79.4762 44.5782 79.6838 43.5001 79.6838C42.4207 79.6838 41.3538 79.4753 40.3449 79.0917C28.8783 74.7315 16.9453 74.8123 5.49437 79.3325C4.28126 79.8118 2.96765 78.9202 2.96765 77.6164V54.7623C2.96765 53.8234 3.52395 52.9693 4.38986 52.6044C10.5716 50.0006 16.9032 48.7008 23.233 48.7008C30.0517 48.7008 36.8687 50.2097 43.5001 53.2276C56.2897 47.4068 69.7735 47.1997 82.6104 52.6044C83.4761 52.9695 84.0324 53.8236 84.0324 54.7625Z" fill="url(#paint3_linear_13_2285)"></path><path id="Vector_5" d="M84.0324 53.2239V76.078C84.0324 77.3818 82.7188 78.2734 81.5057 77.7941C75.6751 75.4922 69.7222 74.3423 63.7673 74.3423C58.0242 74.3423 52.2828 75.4119 46.6518 77.5543C45.6442 77.9376 44.5782 78.1452 43.5001 78.1452C42.4207 78.1452 41.3538 77.9368 40.3449 77.5531C28.8783 73.1929 16.9453 73.2737 5.49437 77.7939C4.28126 78.2732 2.96765 77.3816 2.96765 76.0778V53.2237C2.96765 52.2848 3.52395 51.4307 4.38986 51.0658C10.5716 48.462 16.9032 47.1623 23.233 47.1623C30.0517 47.1623 36.8687 48.6711 43.5001 51.6891C56.2897 45.8682 69.7735 45.6611 82.6104 51.0658C83.4761 51.4309 84.0324 52.285 84.0324 53.2239Z" fill="url(#paint4_linear_13_2285)"></path><path id="Vector_6" d="M2.96753 52.0408V74.8949C2.96753 76.1987 4.28114 77.0903 5.49424 76.6108C11.3249 74.3089 17.2778 73.159 23.2327 73.159C28.9758 73.159 34.7172 74.2286 40.3482 76.3711C41.3557 76.7543 42.4218 76.9619 43.4998 76.9619C44.5792 76.9619 45.6461 76.7535 46.655 76.3699C58.1217 72.0097 70.0546 72.0904 81.5056 76.6107C82.7187 77.0899 84.0323 76.1984 84.0323 74.8947V52.0406C84.0323 51.1017 83.476 50.2476 82.6101 49.8827C76.4284 47.2789 70.0968 45.9792 63.767 45.9792C56.9482 45.9792 50.1313 47.488 43.4998 50.506C30.7103 44.6851 17.2265 44.478 4.38956 49.8827C3.52383 50.2478 2.96753 51.1019 2.96753 52.0408Z" fill="url(#paint5_linear_13_2285)"></path><path id="Vector_7" d="M4.38901 47.9417C3.52395 48.3059 2.96765 49.1607 2.96765 50.0992V72.9528C2.96765 74.2572 4.2821 75.1487 5.49521 74.6696C18.0006 69.7309 31.0792 70.0897 43.5 75.7438C43.5 57.3499 43.5 66.9584 43.5 48.5644C30.7118 42.7439 17.2281 42.5351 4.38901 47.9417Z" fill="url(#paint6_linear_13_2285)"></path><path id="Vector_8" d="M82.611 47.9417C69.7732 42.5362 56.2897 42.7426 43.5 48.5645V75.7439C55.9223 70.0889 69.0009 69.7318 81.5048 74.6699C82.7179 75.1489 84.0323 74.2574 84.0323 72.9531C84.0323 56.0011 84.0323 67.0515 84.0323 50.0995C84.0325 49.1606 83.476 48.306 82.611 47.9417Z" fill="url(#paint7_linear_13_2285)"></path><path id="Vector_9" d="M6.94661 51.5911C6.13804 51.9316 5.61816 52.7304 5.61816 53.6076V73.1355C5.61816 74.3545 6.84662 75.1879 7.98047 74.74C19.668 70.1243 31.8913 70.4595 43.5 75.7438C43.5 58.5528 43.5 69.3641 43.5 52.1731C31.548 46.7333 18.9463 46.538 6.94661 51.5911Z" fill="url(#paint8_linear_13_2285)"></path><g id="Group"><path id="Vector_10" d="M9.06219 52.3089C12.6336 51.0434 16.2434 50.2557 19.8675 49.9465C20.2043 49.9176 20.4926 50.1869 20.4926 50.5248V51.9025C20.4926 52.2039 20.2614 52.4524 19.9613 52.4789C16.4366 52.7897 12.9265 53.5831 9.45307 54.8576C9.07602 54.9958 8.67688 54.7152 8.67688 54.3136V52.8566C8.67671 52.6113 8.83101 52.3909 9.06219 52.3089Z" fill="#BEC3D2"></path><path id="Vector_11" d="M29.4618 50.7548V52.1368C29.4618 52.4872 29.1527 52.7596 28.8059 52.7107C26.7525 52.422 24.6984 52.2972 22.6486 52.3358C22.3228 52.3419 22.0542 52.0827 22.0542 51.7569V50.3866C22.0542 50.072 22.3055 49.8121 22.6201 49.8062C24.7327 49.7674 26.8474 49.8919 28.9625 50.1796C29.2489 50.2185 29.4618 50.4656 29.4618 50.7548Z" fill="#BEC3D2"></path><path id="Vector_12" d="M36.5863 52.3574V53.7966C36.5863 54.1889 36.2039 54.4698 35.831 54.3481C34.3908 53.8772 32.9367 53.4874 31.4831 53.1812C31.2145 53.1245 31.0216 52.8899 31.0216 52.6154V51.2136C31.0216 50.849 31.3548 50.5721 31.712 50.645C33.2063 50.9494 34.7007 51.3364 36.1823 51.8038C36.4231 51.8797 36.5863 52.105 36.5863 52.3574Z" fill="#BEC3D2"></path><path id="Vector_13" d="M9.06203 57.6366C10.0261 57.2954 10.9935 56.9887 11.9644 56.7169C12.3353 56.613 12.7035 56.889 12.7035 57.2742V58.7008C12.7035 58.9593 12.532 59.1846 12.2838 59.2562C11.3366 59.5299 10.3922 59.8392 9.4524 60.1837C9.07568 60.3218 8.67688 60.0407 8.67688 59.6395V58.1839C8.67671 57.9386 8.83084 57.7184 9.06203 57.6366Z" fill="#BEC3D2"></path><path id="Vector_14" d="M25.6035 55.7409V57.1118C25.6035 57.4398 25.3315 57.7044 25.0039 57.6906C24.2476 57.6587 23.4915 57.6496 22.7352 57.6616C20.143 57.7049 17.5465 58.0103 14.9679 58.5738C14.6061 58.6529 14.265 58.3732 14.265 58.0029V56.6071C14.265 56.334 14.4557 56.0959 14.723 56.0394C17.3683 55.4805 20.0306 55.1767 22.693 55.132C23.4785 55.1183 24.2651 55.1279 25.0511 55.1607C25.3604 55.1738 25.6035 55.4313 25.6035 55.7409Z" fill="#BEC3D2"></path><path id="Vector_15" d="M36.5863 57.6843V59.1223C36.5863 59.5147 36.2036 59.7951 35.8306 59.6734C33.1393 58.7952 30.415 58.2009 27.6827 57.8961C27.3885 57.8632 27.165 57.6171 27.165 57.321V55.9423C27.165 55.5995 27.4613 55.329 27.8021 55.3656C30.6118 55.6673 33.4132 56.258 36.1822 57.1305C36.423 57.2067 36.5863 57.4318 36.5863 57.6843Z" fill="#BEC3D2"></path><path id="Vector_16" d="M9.06224 62.9629C12.6198 61.7031 16.2389 60.9131 19.8681 60.6037C20.2046 60.575 20.4925 60.8438 20.4925 61.1815V62.5581C20.4925 62.8594 20.2613 63.1079 19.961 63.1344C16.4333 63.4454 12.9137 64.2408 9.45278 65.5099C9.0759 65.6482 8.67676 65.3674 8.67676 64.9659V63.5105C8.67676 63.2653 8.83105 63.0449 9.06224 62.9629Z" fill="#BEC3D2"></path><path id="Vector_17" d="M36.5863 63.0096V64.4492C36.5863 64.8414 36.2038 65.1222 35.831 65.0006C31.5146 63.5919 27.1167 62.9169 22.7352 62.9885C22.7054 62.989 22.6755 62.9896 22.6457 62.9901C22.3209 62.9961 22.054 62.7361 22.054 62.4113V61.0399C22.054 60.7245 22.3062 60.466 22.6216 60.4605C22.6453 60.46 22.6693 60.4596 22.6931 60.4593C27.2101 60.3841 31.7384 61.0552 36.1821 62.4562C36.4229 62.5319 36.5863 62.757 36.5863 63.0096Z" fill="#BEC3D2"></path><path id="Vector_18" d="M9.06203 68.2888C10.0259 67.948 10.9933 67.6419 11.9643 67.3698C12.3351 67.2657 12.7035 67.5419 12.7035 67.9271V69.3535C12.7035 69.6118 12.5324 69.8369 12.2843 69.9088C11.337 70.1833 10.3923 70.4929 9.4524 70.8376C9.07568 70.9757 8.67688 70.6946 8.67688 70.2934V68.8363C8.67671 68.5908 8.83084 68.3706 9.06203 68.2888Z" fill="#BEC3D2"></path><path id="Vector_19" d="M29.4617 66.7349V68.1173C29.4617 68.4712 29.1476 68.7394 28.7972 68.6903C26.7795 68.4073 24.756 68.2819 22.7352 68.3154C20.143 68.3588 17.5465 68.6626 14.9679 69.2274C14.6061 69.3066 14.265 69.0269 14.265 68.6566V67.2608C14.265 66.9877 14.4556 66.7496 14.7228 66.6931C17.3683 66.1329 20.0306 65.8305 22.693 65.7858C24.7842 65.7514 26.8768 65.8762 28.9628 66.16C29.2491 66.1992 29.4617 66.446 29.4617 66.7349Z" fill="#BEC3D2"></path></g><path id="Vector_20" d="M81.5049 74.6697C82.718 75.1488 84.0324 74.2572 84.0324 72.9529C84.0324 56.001 84.0324 67.0513 84.0324 50.0993C84.0324 49.1606 83.4761 48.306 82.6109 47.9417C69.7731 42.5362 56.2897 42.7426 43.5 48.5645C41.1188 47.4807 38.7135 46.5921 36.2927 45.8975L34.3445 51.347C34.1612 51.8596 34.5386 52.3564 35.0251 52.3891L54.7408 72.1049C63.6614 70.3496 72.7246 71.2024 81.5049 74.6697Z" fill="url(#paint9_linear_13_2285)"></path><path id="Vector_21" d="M83.2065 11.851L74.8389 3.48334L77.7553 0.566932C78.1831 0.139124 78.8514 0.0669518 79.3606 0.39392C82.1441 2.18036 84.5097 4.54587 86.2961 7.3294C86.6229 7.83865 86.5509 8.50676 86.1231 8.93473L83.2065 11.851Z" fill="url(#paint10_linear_13_2285)"></path><path id="Vector_22" d="M83.2066 11.8509L86.123 8.93453C86.1923 8.86522 86.2511 8.78917 86.3017 8.70891C86.268 8.5853 86.2164 8.46507 86.1444 8.35277C84.3579 5.56923 81.9923 3.20373 79.2087 1.41729C78.6995 1.09049 78.0314 1.16249 77.6034 1.5903L75.2747 3.91904L83.2066 11.8509Z" fill="url(#paint11_linear_13_2285)"></path><path id="Vector_23" d="M86.2962 7.32963C85.9937 6.85815 85.6731 6.39982 85.3382 5.95312C85.261 6.15244 85.1429 6.33844 84.9843 6.49729L81.4185 10.0631L83.2068 11.8514L86.1232 8.93496C86.551 8.50699 86.623 7.83889 86.2962 7.32963Z" fill="url(#paint12_linear_13_2285)"></path><path id="Vector_24" d="M78.9706 16.959L83.8964 12.0333C84.0883 11.8414 84.0883 11.5304 83.8964 11.3387L75.3516 2.79383C75.1597 2.60193 74.8487 2.60193 74.657 2.79383L69.7312 7.7196L78.9706 16.959Z" fill="url(#paint13_linear_13_2285)"></path><path id="Vector_25" d="M72.212 5.23237V23.7175L81.4655 14.4703L72.22 5.22461L72.212 5.23237Z" fill="url(#paint14_linear_13_2285)"></path><path id="Vector_26" d="M81.1694 14.2618L72.4284 5.52085C71.9907 5.08293 71.9907 4.37318 72.4284 3.93525C72.8663 3.49749 73.5761 3.49749 74.014 3.93525L82.755 12.6762C83.1927 13.1141 83.1927 13.8239 82.755 14.2618C82.3171 14.6996 81.6071 14.6996 81.1694 14.2618Z" fill="url(#paint15_linear_13_2285)"></path><path id="Vector_27" d="M38.9298 38.5207L34.3445 51.3473C34.1226 51.9679 34.7221 52.5673 35.3426 52.3454L48.1693 47.7601C50.7284 45.2012 41.4889 35.9616 38.9298 38.5207Z" fill="url(#paint16_linear_13_2285)"></path><path id="Vector_28" d="M41.1661 40.6454L34.4182 51.9214C34.4072 51.9396 34.3993 51.9576 34.39 51.9756C34.5612 52.2942 34.947 52.4868 35.3424 52.3455L48.1691 47.7601C48.1888 47.7404 48.2058 47.719 48.2242 47.6984C48.9856 44.7078 43.6664 38.6463 41.1661 40.6454Z" fill="url(#paint17_linear_13_2285)"></path><path id="Vector_29" d="M79.7514 16.1779L48.1693 47.76C48.0469 47.5477 47.8939 47.3477 47.7128 47.1666C46.5823 46.0361 44.7492 46.0361 43.6187 47.1666C43.5678 47.2175 43.7647 47.0084 43.7647 47.0084C44.7468 45.8712 44.6981 44.152 43.6179 43.0718C42.5376 41.9916 40.8185 41.9428 39.6813 42.9249C39.6813 42.9249 39.4722 43.1219 39.5231 43.071C40.6536 41.9405 40.6536 40.1073 39.5231 38.9769C39.342 38.7957 39.142 38.643 38.9297 38.5204L70.5119 6.93848L79.7514 16.1779Z" fill="url(#paint18_linear_13_2285)"></path><path id="Vector_30" d="M77.1734 13.6001L43.7649 47.0086C44.747 45.8713 44.6982 44.1522 43.618 43.0719C42.5378 41.9917 40.8186 41.943 39.6814 42.9251L73.0899 9.5166L77.1734 13.6001Z" fill="url(#paint19_linear_13_2285)"></path><path id="Vector_31" d="M39.5233 43.0713C39.4723 43.1222 39.6814 42.9253 39.6814 42.9253C40.8186 41.9432 42.5378 41.9919 43.618 43.0721C44.6983 44.1524 44.7468 45.8715 43.7649 47.0088C43.7649 47.0088 43.5679 47.2178 43.6189 47.1669C44.7494 46.0364 46.5825 46.0364 47.713 47.1669C47.8941 47.348 48.0469 47.548 48.1695 47.7603L79.7514 16.1781L71.6109 8.0376L40.0151 39.6333C40.6176 40.7326 40.4542 42.1401 39.5233 43.0713Z" fill="url(#paint20_linear_13_2285)"></path><path id="Vector_32" d="M36.9338 49.7562C36.4483 49.2708 35.9058 48.8814 35.332 48.5854L34.3446 51.3472C34.1227 51.9678 34.7222 52.5673 35.3428 52.3453L38.1045 51.358C37.8086 50.784 37.4191 50.2415 36.9338 49.7562Z" fill="url(#paint21_linear_13_2285)"></path><path id="Vector_33" d="M69.0533 8.39106L69.0751 26.8607L78.3068 17.629L69.0613 8.3833L69.0533 8.39106Z" fill="url(#paint22_linear_13_2285)"></path><path id="Vector_34" d="M78.0089 17.4221L69.2679 8.68114C68.83 8.24321 68.83 7.53346 69.2679 7.09553C69.7058 6.65761 70.4156 6.65761 70.8535 7.09553L79.5945 15.8365C80.0324 16.2743 80.0324 16.9842 79.5945 17.4221C79.1566 17.8599 78.4466 17.8599 78.0089 17.4221Z" fill="url(#paint23_linear_13_2285)"></path><path id="Vector_35" d="M5.72543 37.8258H2.19538C1.25899 37.8258 0.5 37.0668 0.5 36.1304C0.5 35.1941 1.25899 34.4351 2.19538 34.4351H5.72543C6.66182 34.4351 7.42081 35.1942 7.42081 36.1304C7.42098 37.0668 6.66182 37.8258 5.72543 37.8258Z" fill="url(#paint24_linear_13_2285)"></path><path id="Vector_36" d="M37.7559 5.79525V2.2652C37.7559 1.32882 36.9967 0.569824 36.0605 0.569824C35.1241 0.569824 34.3651 1.32898 34.3651 2.2652V5.79525C34.3651 6.73164 35.1241 7.49063 36.0605 7.49063C36.9967 7.4908 37.7559 6.73164 37.7559 5.79525Z" fill="url(#paint25_linear_13_2285)"></path><path id="Vector_37" d="M13.4115 15.879L10.9155 13.383C10.2534 12.721 10.2534 11.6475 10.9155 10.9853C11.5775 10.3233 12.651 10.3233 13.3132 10.9853L15.8094 13.4815C16.4714 14.1435 16.4714 15.217 15.8094 15.8792C15.1472 16.5412 14.0737 16.5412 13.4115 15.879Z" fill="url(#paint26_linear_13_2285)"></path><path id="Vector_38" d="M58.7094 15.8792L61.2056 13.383C61.8676 12.721 61.8676 11.6475 61.2056 10.9853C60.5436 10.3233 59.4699 10.3233 58.8079 10.9853L56.3117 13.4815C55.6497 14.1435 55.6497 15.217 56.3117 15.8792C56.9737 16.5414 58.0472 16.5414 58.7094 15.8792Z" fill="url(#paint27_linear_13_2285)"></path></g><defs><linearGradient id="paint0_linear_13_2285" x1="26.0627" y1="51.5603" x2="80.7361" y2="107.648" gradientUnits="userSpaceOnUse"><stop stop-color="#FF7044"></stop><stop offset="1" stop-color="#D27824"></stop></linearGradient><linearGradient id="paint1_linear_13_2285" x1="41.7739" y1="68.5727" x2="45.4559" y2="96.1871" gradientUnits="userSpaceOnUse"><stop stop-color="#FE9738" stop-opacity="0"></stop><stop offset="1" stop-color="#FE9738"></stop></linearGradient><linearGradient id="paint2_linear_13_2285" x1="40.8184" y1="51.3365" x2="44.6127" y2="72.324" gradientUnits="userSpaceOnUse"><stop stop-color="#F9F7FC"></stop><stop offset="1" stop-color="#F0DDFC"></stop></linearGradient><linearGradient id="paint3_linear_13_2285" x1="40.8184" y1="51.3365" x2="44.6127" y2="72.324" gradientUnits="userSpaceOnUse"><stop stop-color="#F9F7FC"></stop><stop offset="1" stop-color="#F0DDFC"></stop></linearGradient><linearGradient id="paint4_linear_13_2285" x1="45.1582" y1="74.2668" x2="48.0667" y2="91.1673" gradientUnits="userSpaceOnUse"><stop stop-color="#F0DDFC" stop-opacity="0"></stop><stop offset="0.2889" stop-color="#C8B7E0" stop-opacity="0.289"></stop><stop offset="0.5915" stop-color="#A595C8" stop-opacity="0.592"></stop><stop offset="0.8395" stop-color="#8F81B8" stop-opacity="0.84"></stop><stop offset="1" stop-color="#8779B3"></stop></linearGradient><linearGradient id="paint5_linear_13_2285" x1="42.4967" y1="74.4219" x2="41.4567" y2="85.7876" gradientUnits="userSpaceOnUse"><stop stop-color="#F0DDFC" stop-opacity="0"></stop><stop offset="0.2889" stop-color="#C8B7E0" stop-opacity="0.289"></stop><stop offset="0.5915" stop-color="#A595C8" stop-opacity="0.592"></stop><stop offset="0.8395" stop-color="#8F81B8" stop-opacity="0.84"></stop><stop offset="1" stop-color="#8779B3"></stop></linearGradient><linearGradient id="paint6_linear_13_2285" x1="19.1761" y1="57.0838" x2="33.7917" y2="71.6994" gradientUnits="userSpaceOnUse"><stop stop-color="#F9F7FC"></stop><stop offset="1" stop-color="#F0DDFC"></stop></linearGradient><linearGradient id="paint7_linear_13_2285" x1="56.4165" y1="53.067" x2="70.2892" y2="70.9034" gradientUnits="userSpaceOnUse"><stop stop-color="#F9F7FC"></stop><stop offset="1" stop-color="#F0DDFC"></stop></linearGradient><linearGradient id="paint8_linear_13_2285" x1="23.4112" y1="61.9698" x2="9.96791" y2="49.5325" gradientUnits="userSpaceOnUse"><stop stop-color="#E9EDF5" stop-opacity="0"></stop><stop offset="1" stop-color="white"></stop></linearGradient><linearGradient id="paint9_linear_13_2285" x1="68.1418" y1="59.7678" x2="44.6465" y2="35.5979" gradientUnits="userSpaceOnUse"><stop stop-color="#F0DDFC" stop-opacity="0"></stop><stop offset="0.1613" stop-color="#E8D5F6" stop-opacity="0.161"></stop><stop offset="0.4171" stop-color="#D1BFE6" stop-opacity="0.417"></stop><stop offset="0.7332" stop-color="#AC9CCD" stop-opacity="0.733"></stop><stop offset="1" stop-color="#8779B3"></stop></linearGradient><linearGradient id="paint10_linear_13_2285" x1="78.3698" y1="2.80513" x2="84.5473" y2="8.98261" gradientUnits="userSpaceOnUse"><stop stop-color="#FF7044"></stop><stop offset="1" stop-color="#FE9738"></stop></linearGradient><linearGradient id="paint11_linear_13_2285" x1="80.7091" y1="7.33436" x2="81.5077" y2="-1.67876" gradientUnits="userSpaceOnUse"><stop stop-color="#FF7044" stop-opacity="0"></stop><stop offset="1" stop-color="#FFA425"></stop></linearGradient><linearGradient id="paint12_linear_13_2285" x1="86.6219" y1="4.4833" x2="83.1992" y2="10.5682" gradientUnits="userSpaceOnUse"><stop stop-color="#FE9738" stop-opacity="0"></stop><stop offset="1" stop-color="#FE9738"></stop></linearGradient><linearGradient id="paint13_linear_13_2285" x1="73.9583" y1="6.6429" x2="80.7793" y2="13.4639" gradientUnits="userSpaceOnUse"><stop stop-color="#F9F7FC"></stop><stop offset="1" stop-color="#F0DDFC"></stop></linearGradient><linearGradient id="paint14_linear_13_2285" x1="74.9351" y1="12.7257" x2="79.4227" y2="5.95634" gradientUnits="userSpaceOnUse"><stop stop-color="#F0DDFC" stop-opacity="0"></stop><stop offset="0.2889" stop-color="#C8B7E0" stop-opacity="0.289"></stop><stop offset="0.5915" stop-color="#A595C8" stop-opacity="0.592"></stop><stop offset="0.8395" stop-color="#8F81B8" stop-opacity="0.84"></stop><stop offset="1" stop-color="#8779B3"></stop></linearGradient><linearGradient id="paint15_linear_13_2285" x1="78.1441" y1="8.49413" x2="76.8168" y2="9.93919" gradientUnits="userSpaceOnUse"><stop stop-color="#F9F7FC"></stop><stop offset="1" stop-color="#F0DDFC"></stop></linearGradient><linearGradient id="paint16_linear_13_2285" x1="35.3978" y1="42.0498" x2="44.636" y2="51.288" gradientUnits="userSpaceOnUse"><stop stop-color="#FFDAAA"></stop><stop offset="0.4213" stop-color="#FFD8A8"></stop><stop offset="0.6519" stop-color="#FED1A0"></stop><stop offset="0.8359" stop-color="#FDC592"></stop><stop offset="0.9951" stop-color="#FCB47F"></stop><stop offset="1" stop-color="#FCB37E"></stop></linearGradient><linearGradient id="paint17_linear_13_2285" x1="41.4468" y1="48.7984" x2="35.362" y2="40.4321" gradientUnits="userSpaceOnUse"><stop stop-color="#FFDAAA" stop-opacity="0"></stop><stop offset="0.2507" stop-color="#FFE7C8" stop-opacity="0.251"></stop><stop offset="0.5543" stop-color="#FFF4E6" stop-opacity="0.554"></stop><stop offset="0.8148" stop-color="#FFFCF8" stop-opacity="0.815"></stop><stop offset="1" stop-color="white"></stop></linearGradient><linearGradient id="paint18_linear_13_2285" x1="53.7442" y1="23.7034" x2="62.9824" y2="32.9416" gradientUnits="userSpaceOnUse"><stop stop-color="#FFDA45"></stop><stop offset="1" stop-color="#FFA425"></stop></linearGradient><linearGradient id="paint19_linear_13_2285" x1="56.1485" y1="25.9476" x2="63.4889" y2="33.2881" gradientUnits="userSpaceOnUse"><stop stop-color="#FFDA45"></stop><stop offset="1" stop-color="#FFA425"></stop></linearGradient><linearGradient id="paint20_linear_13_2285" x1="60.5295" y1="31.1426" x2="52.9549" y2="18.348" gradientUnits="userSpaceOnUse"><stop stop-color="#FFDA45" stop-opacity="0"></stop><stop offset="1" stop-color="#FCEE21"></stop></linearGradient><linearGradient id="paint21_linear_13_2285" x1="35.471" y1="50.6569" x2="37.8282" y2="53.0142" gradientUnits="userSpaceOnUse"><stop stop-color="#7E8595"></stop><stop offset="1" stop-color="#555A66"></stop></linearGradient><linearGradient id="paint22_linear_13_2285" x1="70.2966" y1="22.3491" x2="77.1039" y2="3.60052" gradientUnits="userSpaceOnUse"><stop stop-color="#FFDA45" stop-opacity="0"></stop><stop offset="1" stop-color="#B53759"></stop></linearGradient><linearGradient id="paint23_linear_13_2285" x1="74.9841" y1="11.6539" x2="73.6568" y2="13.099" gradientUnits="userSpaceOnUse"><stop stop-color="#F9F7FC"></stop><stop offset="1" stop-color="#F0DDFC"></stop></linearGradient><linearGradient id="paint24_linear_13_2285" x1="3.9604" y1="35.7355" x2="3.9604" y2="39.2242" gradientUnits="userSpaceOnUse"><stop stop-color="#3F889A"></stop><stop offset="1" stop-color="#073D4B"></stop></linearGradient><linearGradient id="paint25_linear_13_2285" x1="35.6657" y1="4.03023" x2="39.1543" y2="4.03023" gradientUnits="userSpaceOnUse"><stop stop-color="#3F889A"></stop><stop offset="1" stop-color="#073D4B"></stop></linearGradient><linearGradient id="paint26_linear_13_2285" x1="13.6354" y1="13.1443" x2="11.1689" y2="15.6109" gradientUnits="userSpaceOnUse"><stop stop-color="#3F889A"></stop><stop offset="1" stop-color="#073D4B"></stop></linearGradient><linearGradient id="paint27_linear_13_2285" x1="58.4876" y1="13.1446" x2="60.954" y2="15.611" gradientUnits="userSpaceOnUse"><stop stop-color="#3F889A"></stop><stop offset="1" stop-color="#073D4B"></stop></linearGradient><clipPath id="clip0_13_2285"><rect width="86" height="86" fill="white" transform="translate(0.5)"></rect></clipPath></defs></svg>