<svg xmlns="http://www.w3.org/2000/svg" width="248" height="247" viewBox="0 0 248 247" fill="none"><g id="fi_5516842" clip-path="url(#clip0_20_1840)"><g id="Group"><g id="Group_2"><path id="Vector" d="M178.261 114.534C164.189 103.919 148.179 99.778 130.298 102.109L129.543 104.659C129.573 104.559 129.824 103.709 130.298 102.109C116.552 90.4111 100.863 85.1853 83.2978 86.4309C80.635 86.6197 78.3734 88.4551 77.6159 91.0146L60.9172 147.442C60.2352 149.746 62.0472 152.041 64.4456 151.888C80.3015 150.879 94.6209 155.166 107.355 164.749C109.681 166.499 112.554 167.349 115.458 167.147C131.343 166.038 145.691 170.226 158.455 179.709C160.384 181.143 163.153 180.203 163.835 177.899C169.273 159.524 175.096 139.846 180.534 121.472C181.291 118.912 180.392 116.141 178.261 114.534Z" fill="url(#paint0_linear_20_1840)"></path><path id="Vector_2" d="M60.9171 147.441C60.2351 149.746 62.0471 152.041 64.4456 151.888C80.3014 150.879 94.6205 155.166 107.355 164.749C109.681 166.499 112.554 167.349 115.458 167.147C131.342 166.038 145.691 170.226 158.455 179.709C160.384 181.142 163.153 180.203 163.835 177.898C166.562 168.683 169.386 159.141 172.21 149.599L69.2917 119.142C66.4679 128.683 63.6439 138.226 60.9171 147.441Z" fill="url(#paint1_linear_20_1840)"></path><path id="Vector_3" d="M180.533 121.47L163.834 177.898C163.152 180.202 160.384 181.142 158.455 179.708C145.691 170.225 131.342 166.037 115.458 167.146C112.552 167.349 109.681 166.5 107.354 164.748C96.486 156.571 84.4622 152.25 71.3141 151.787L68.2459 146.14L85.9556 86.2965C102.45 85.7342 117.248 91.003 130.298 102.108C148.179 99.7766 164.188 103.919 178.262 114.532C180.392 116.141 181.29 118.91 180.533 121.47Z" fill="url(#paint2_linear_20_1840)"></path><g id="Group_3"><g id="Group_4"><path id="Vector_4" d="M115.964 150.544L112.714 161.527C100.468 151.106 86.5058 146.389 70.8887 147.383C68.7294 147.52 67.1004 145.456 67.7138 143.383L70.9638 132.401C70.3506 134.473 71.9796 136.537 74.1387 136.401C89.7558 135.407 103.718 140.124 115.964 150.544Z" fill="url(#paint3_linear_20_1840)"></path><path id="Vector_5" d="M163.591 159.813L160.341 170.795C159.727 172.868 157.236 173.716 155.5 172.424C142.927 163.084 128.645 159.449 112.714 161.527L115.964 150.545C131.895 148.467 146.177 152.101 158.75 161.441C160.486 162.734 162.977 161.885 163.591 159.813Z" fill="url(#paint4_linear_20_1840)"></path></g><path id="Vector_6" d="M156.395 169.4C143.822 160.06 129.54 156.426 113.609 158.504C101.363 148.083 87.4007 143.366 71.7836 144.36C69.6244 144.497 67.9954 142.433 68.6087 140.36L67.7138 143.384C67.1006 145.457 68.7296 147.521 70.8887 147.384C86.5058 146.39 100.468 151.108 112.714 161.528C128.645 159.45 142.927 163.084 155.5 172.424C157.236 173.717 159.727 172.868 160.341 170.796L161.236 167.772C160.622 169.844 158.131 170.693 156.395 169.4Z" fill="url(#paint5_linear_20_1840)"></path><g id="Group_5"><path id="Vector_7" d="M83.9967 88.3581L69.3144 137.972C68.7006 140.046 70.3315 142.111 72.4901 141.974C88.107 140.98 102.068 145.695 114.315 156.117C120.014 136.859 125.713 117.601 131.412 98.3433C119.041 87.8147 104.921 83.1111 89.1109 84.2324C86.7144 84.4025 84.6785 86.0543 83.9967 88.3581Z" fill="url(#paint6_linear_20_1840)"></path><path id="Vector_8" d="M131.412 98.3431L114.315 156.117C130.247 154.039 144.528 157.672 157.101 167.013C158.837 168.303 161.329 167.458 161.943 165.384C166.837 148.846 171.731 132.308 176.626 115.77C177.307 113.466 176.498 110.972 174.58 109.526C161.915 99.9723 147.506 96.2451 131.412 98.3431Z" fill="url(#paint7_linear_20_1840)"></path><path id="Vector_9" d="M164.741 138.339C162.031 136.604 159.247 135.122 156.387 133.891C154.878 133.242 153.141 134.039 152.675 135.614L147.241 153.977C146.846 155.312 147.519 156.729 148.804 157.264C151.477 158.377 154.084 159.707 156.626 161.257C157.946 162.063 159.67 161.415 160.109 159.932L165.718 140.977C166.014 139.979 165.618 138.9 164.741 138.339Z" fill="url(#paint8_linear_20_1840)"></path><path id="Vector_10" d="M85.7084 116.547C92.6955 116.74 99.3312 118.139 105.61 120.743C106.895 121.276 108.357 120.577 108.752 119.243L114.404 100.144C114.74 99.0086 114.181 97.7919 113.092 97.328C106.276 94.4249 99.0377 92.949 91.3832 92.903C90.3405 92.8967 89.4193 93.585 89.1234 94.5846L83.514 113.539C83.0755 115.02 84.1646 116.504 85.7084 116.547Z" fill="url(#paint9_linear_20_1840)"></path><g id="Group_6"><g id="Group_7"><path id="Vector_11" d="M78.7775 128.486C77.9574 128.243 77.3487 127.495 77.3242 126.594C77.2937 125.473 78.1776 124.538 79.299 124.507C91.8268 124.164 103.441 127.503 113.819 134.432C114.752 135.055 115.004 136.316 114.381 137.25C113.758 138.182 112.497 138.434 111.563 137.811C101.899 131.358 91.0808 128.249 79.4106 128.569C79.1903 128.574 78.9774 128.545 78.7775 128.486Z" fill="#7BACDF"></path><path id="Vector_12" d="M76.3695 136.624C75.5494 136.381 74.9407 135.633 74.9161 134.732C74.8857 133.61 75.7696 132.676 76.8909 132.645C89.4184 132.301 101.033 135.64 111.411 142.57C112.344 143.193 112.596 144.454 111.973 145.387C111.35 146.32 110.089 146.572 109.155 145.949C99.4901 139.495 88.6724 136.386 77.0026 136.706C76.7823 136.712 76.5694 136.683 76.3695 136.624Z" fill="#7BACDF"></path></g><g id="Group_8"><g id="Group_9"><path id="Vector_13" d="M147.115 143.585L147.115 143.587C146.795 144.667 145.661 145.271 144.58 144.955C139.145 143.368 133.452 142.649 127.54 142.81C127.321 142.816 127.109 142.787 126.909 142.728C126.088 142.485 125.479 141.737 125.454 140.838C125.422 139.715 126.308 138.783 127.428 138.75C133.786 138.576 139.91 139.35 145.755 141.063C146.828 141.377 147.433 142.513 147.115 143.585Z" fill="#7BACDF"></path><path id="Vector_14" d="M144.708 151.719C144.389 152.798 143.255 153.403 142.174 153.087C136.741 151.503 131.043 150.787 125.131 150.949C124.912 150.955 124.7 150.926 124.5 150.867C123.679 150.624 123.07 149.876 123.046 148.973C123.014 147.851 123.9 146.918 125.02 146.885C131.373 146.713 137.501 147.486 143.347 149.197C144.42 149.511 145.025 150.647 144.708 151.719Z" fill="#7BACDF"></path></g><g id="Group_10"><path id="Vector_15" d="M131.776 126.281C130.955 126.038 130.347 125.29 130.322 124.388C130.291 123.267 131.175 122.333 132.297 122.302C144.825 121.959 156.439 125.298 166.817 132.227C167.75 132.85 168.001 134.111 167.379 135.044C166.756 135.977 165.495 136.228 164.561 135.605C154.897 129.153 144.079 126.043 132.408 126.363C132.188 126.369 131.975 126.34 131.776 126.281Z" fill="#7BACDF"></path><path id="Vector_16" d="M149.575 135.274L149.574 135.277C149.254 136.357 148.12 136.961 147.039 136.645C141.604 135.057 135.911 134.338 129.999 134.5C129.78 134.506 129.568 134.477 129.368 134.418C128.547 134.175 127.938 133.427 127.913 132.527C127.881 131.405 128.767 130.472 129.887 130.439C136.245 130.266 142.369 131.04 148.214 132.752C149.287 133.066 149.892 134.202 149.575 135.274Z" fill="#7BACDF"></path></g><g id="Group_11"><path id="Vector_17" d="M136.643 109.834C135.823 109.591 135.214 108.843 135.189 107.941C135.159 106.82 136.043 105.886 137.164 105.855C149.692 105.511 161.306 108.851 171.685 115.78C172.617 116.403 172.869 117.664 172.246 118.597C171.623 119.53 170.363 119.781 169.429 119.158C159.764 112.706 148.946 109.596 137.276 109.916C137.056 109.922 136.843 109.893 136.643 109.834Z" fill="#7BACDF"></path><path id="Vector_18" d="M134.235 117.971C133.414 117.729 132.806 116.98 132.781 116.079C132.751 114.958 133.635 114.023 134.756 113.993C143.344 113.757 151.548 115.255 159.143 118.446C160.177 118.88 160.663 120.071 160.229 121.105C159.794 122.139 158.608 122.627 157.569 122.191C150.512 119.225 142.874 117.833 134.868 118.053C134.648 118.06 134.435 118.03 134.235 117.971Z" fill="#7BACDF"></path></g></g></g></g></g></g><path id="Vector_19" d="M83.9967 88.3571L69.3144 137.971C68.7006 140.045 70.3315 142.11 72.4901 141.973C88.107 140.979 102.068 145.694 114.315 156.116C120.014 136.858 125.713 117.6 131.412 98.3424C119.041 87.8137 104.921 83.1101 89.111 84.2314C86.7144 84.4015 84.6785 86.0533 83.9967 88.3571Z" fill="url(#paint10_linear_20_1840)"></path><path id="Vector_20" d="M131.412 98.3431L114.315 156.117C130.247 154.039 144.528 157.672 157.101 167.013C158.837 168.303 161.329 167.458 161.943 165.384C166.837 148.846 171.731 132.308 176.626 115.77C177.307 113.466 176.498 110.972 174.58 109.526C161.915 99.9723 147.506 96.2451 131.412 98.3431Z" fill="url(#paint11_linear_20_1840)"></path><g id="Group_12"><path id="Vector_21" d="M176.359 73.2636C181.999 54.208 171.123 34.1892 152.067 28.5497C133.053 22.9225 113.12 33.6872 107.403 52.6746C104.328 62.8851 106.006 73.3846 111.152 81.8117C115.076 88.2387 116.038 96.0469 113.901 103.268L113.901 103.268L143.423 112.005C145.582 104.712 150.763 98.7359 157.601 95.4064C166.364 91.1392 173.375 83.3472 176.359 73.2636Z" fill="url(#paint12_linear_20_1840)"></path><path id="Vector_22" d="M107.684 74.3281C108.552 76.9495 109.717 79.4611 111.152 81.8114C115.076 88.2384 116.038 96.0466 113.901 103.268L143.423 112.005C145.581 104.711 150.762 98.7356 157.601 95.4061C160.011 94.2323 162.289 92.7901 164.387 91.1084L107.684 74.3281Z" fill="url(#paint13_linear_20_1840)"></path><g id="Group_13"><path id="Vector_23" d="M121.008 133.503C126.617 135.163 132.51 131.961 134.17 126.352C135.83 120.742 132.628 114.849 127.019 113.189C121.41 111.529 115.517 114.731 113.857 120.34C112.197 125.95 115.398 131.843 121.008 133.503Z" fill="url(#paint14_linear_20_1840)"></path><path id="Vector_24" d="M136.257 127.264L111.61 119.97C108.842 119.151 107.263 116.244 108.082 113.476C108.901 110.709 111.808 109.13 114.575 109.949L139.222 117.243C141.989 118.061 143.569 120.969 142.75 123.736C141.931 126.503 139.024 128.083 136.257 127.264Z" fill="url(#paint15_linear_20_1840)"></path><path id="Vector_25" d="M139.222 117.242L114.575 109.948C111.808 109.13 110.229 106.222 111.047 103.455C111.866 100.688 114.774 99.1082 117.541 99.9272L142.188 107.221C144.955 108.04 146.535 110.947 145.716 113.715C144.897 116.482 141.989 118.061 139.222 117.242Z" fill="url(#paint16_linear_20_1840)"></path></g></g><path id="Vector_26" d="M130.967 99.8475C142.571 103.282 154.762 96.6585 158.196 85.0544C161.63 73.4503 155.007 61.2594 143.403 57.8253C131.799 54.3913 119.608 61.0144 116.174 72.6185C112.74 84.2226 119.363 96.4135 130.967 99.8475Z" fill="url(#paint17_linear_20_1840)"></path><g id="Group_14"><g id="Group_15"><g id="Group_16"><g id="Group_17"><g id="Group_18"><path id="Vector_27" d="M189.42 74.136C190.13 71.7385 192.649 70.3701 195.046 71.0796L204.073 73.751C206.471 74.4605 207.839 76.9793 207.13 79.3768C206.42 81.7743 203.901 83.1427 201.504 82.4332L192.477 79.7618C190.079 79.052 188.711 76.5333 189.42 74.136Z" fill="url(#paint18_linear_20_1840)"></path></g></g></g><g id="Group_19"><g id="Group_20"><g id="Group_21"><g id="Group_22"><path id="Vector_28" d="M189.773 62.0723C188.579 59.8754 189.393 57.1268 191.59 55.933L199.862 51.439C202.059 50.2454 204.807 51.0588 206.001 53.2558C207.195 55.4527 206.381 58.2012 204.184 59.395L195.912 63.8891C193.715 65.0826 190.967 64.2692 189.773 62.0723Z" fill="url(#paint19_linear_20_1840)"></path></g></g></g><g id="Group_23"><g id="Group_24"><g id="Group_25"><path id="Vector_29" d="M183.152 84.4445C185.349 83.251 188.098 84.0644 189.291 86.2614L193.785 94.5333C194.979 96.7302 194.166 99.4788 191.969 100.673C189.772 101.866 187.023 101.053 185.829 98.8558L181.335 90.5838C180.142 88.3869 180.955 85.6381 183.152 84.4445Z" fill="url(#paint20_linear_20_1840)"></path></g></g></g></g></g><g id="Group_26"><g id="Group_27"><g id="Group_28"><g id="Group_29"><path id="Vector_30" d="M95.9207 46.4657C96.6302 44.0682 95.2618 41.5494 92.8643 40.8399L83.8373 38.1685C81.4398 37.459 78.921 38.8274 78.2115 41.2249C77.502 43.6224 78.8704 46.1412 81.2679 46.8507L90.2949 49.5221C92.6925 50.2313 95.2113 48.8629 95.9207 46.4657Z" fill="url(#paint21_linear_20_1840)"></path></g></g></g><g id="Group_30"><g id="Group_31"><g id="Group_32"><g id="Group_33"><path id="Vector_31" d="M102.189 36.154C104.386 34.9605 105.199 32.212 104.006 30.0148L99.5119 21.7428C98.3184 19.5459 95.5698 18.7325 93.3727 19.926C91.1758 21.1195 90.3624 23.8681 91.5558 26.0652L96.0499 34.3372C97.2437 36.5342 99.9923 37.3476 102.189 36.154Z" fill="url(#paint22_linear_20_1840)"></path></g></g></g><g id="Group_34"><g id="Group_35"><g id="Group_36"><path id="Vector_32" d="M95.5682 58.5263C94.3747 56.3294 91.6261 55.516 89.429 56.7095L81.157 61.2035C78.9601 62.3971 78.1467 65.1456 79.3402 67.3428C80.5337 69.5397 83.2823 70.3531 85.4794 69.1596L93.7514 64.6656C95.9486 63.4721 96.7618 60.7232 95.5682 58.5263Z" fill="url(#paint23_linear_20_1840)"></path></g></g></g></g></g></g></g></g><defs><linearGradient id="paint0_linear_20_1840" x1="86.6371" y1="97.0063" x2="165.15" y2="180.803" gradientUnits="userSpaceOnUse"><stop stop-color="#D9B1EE"></stop><stop offset="1" stop-color="#814AA0"></stop></linearGradient><linearGradient id="paint1_linear_20_1840" x1="116.428" y1="148.978" x2="112.259" y2="163.063" gradientUnits="userSpaceOnUse"><stop stop-color="#5B3374" stop-opacity="0"></stop><stop offset="1" stop-color="#5B3374"></stop></linearGradient><linearGradient id="paint2_linear_20_1840" x1="153.177" y1="177.181" x2="126.219" y2="135.028" gradientUnits="userSpaceOnUse"><stop stop-color="#5B3374" stop-opacity="0"></stop><stop offset="1" stop-color="#5B3374"></stop></linearGradient><linearGradient id="paint3_linear_20_1840" x1="94.8194" y1="116.111" x2="91.1596" y2="153.63" gradientUnits="userSpaceOnUse"><stop stop-color="#E6EEFF"></stop><stop offset="1" stop-color="#BAC8FA"></stop></linearGradient><linearGradient id="paint4_linear_20_1840" x1="137.022" y1="132.777" x2="138.336" y2="165.19" gradientUnits="userSpaceOnUse"><stop stop-color="#E6EEFF"></stop><stop offset="1" stop-color="#BAC8FA"></stop></linearGradient><linearGradient id="paint5_linear_20_1840" x1="109.497" y1="169.829" x2="121.94" y2="134.217" gradientUnits="userSpaceOnUse"><stop stop-color="#A7B7F1" stop-opacity="0"></stop><stop offset="1" stop-color="#A7B7F1"></stop></linearGradient><linearGradient id="paint6_linear_20_1840" x1="82.3084" y1="99.9586" x2="128.48" y2="149.386" gradientUnits="userSpaceOnUse"><stop stop-color="#E6EEFF"></stop><stop offset="1" stop-color="#BAC8FA"></stop></linearGradient><linearGradient id="paint7_linear_20_1840" x1="125.617" y1="112.661" x2="170.185" y2="160.229" gradientUnits="userSpaceOnUse"><stop stop-color="#E6EEFF"></stop><stop offset="1" stop-color="#BAC8FA"></stop></linearGradient><linearGradient id="paint8_linear_20_1840" x1="145.52" y1="127.419" x2="160.574" y2="155.129" gradientUnits="userSpaceOnUse"><stop stop-color="#A7B7F1" stop-opacity="0"></stop><stop offset="1" stop-color="#A7B7F1"></stop></linearGradient><linearGradient id="paint9_linear_20_1840" x1="88.651" y1="79.2956" x2="115.674" y2="151.501" gradientUnits="userSpaceOnUse"><stop stop-color="#A7B7F1" stop-opacity="0"></stop><stop offset="1" stop-color="#A7B7F1"></stop></linearGradient><linearGradient id="paint10_linear_20_1840" x1="88.4785" y1="129.532" x2="117.76" y2="107.562" gradientUnits="userSpaceOnUse"><stop stop-color="#A7B7F1" stop-opacity="0"></stop><stop offset="1" stop-color="#FFF5C6"></stop></linearGradient><linearGradient id="paint11_linear_20_1840" x1="154.062" y1="149.98" x2="133.866" y2="112.807" gradientUnits="userSpaceOnUse"><stop stop-color="#A7B7F1" stop-opacity="0"></stop><stop offset="1" stop-color="#FFF5C6"></stop></linearGradient><linearGradient id="paint12_linear_20_1840" x1="129.789" y1="48.9896" x2="156.208" y2="97.6172" gradientUnits="userSpaceOnUse"><stop stop-color="#FEE45A"></stop><stop offset="1" stop-color="#FEA613"></stop></linearGradient><linearGradient id="paint13_linear_20_1840" x1="134.165" y1="89.0379" x2="129.874" y2="103.538" gradientUnits="userSpaceOnUse"><stop stop-color="#FE7701" stop-opacity="0"></stop><stop offset="0.1854" stop-color="#F87204" stop-opacity="0.185"></stop><stop offset="0.4314" stop-color="#E7630C" stop-opacity="0.431"></stop><stop offset="0.7114" stop-color="#CB4B19" stop-opacity="0.711"></stop><stop offset="1" stop-color="#A72B2B"></stop></linearGradient><linearGradient id="paint14_linear_20_1840" x1="125.313" y1="118.954" x2="122.869" y2="127.212" gradientUnits="userSpaceOnUse"><stop stop-color="#5A5A5A"></stop><stop offset="1" stop-color="#444444"></stop></linearGradient><linearGradient id="paint15_linear_20_1840" x1="126.057" y1="116.439" x2="124.852" y2="120.514" gradientUnits="userSpaceOnUse"><stop stop-color="#B4D2E2"></stop><stop offset="1" stop-color="#7BACDF"></stop></linearGradient><linearGradient id="paint16_linear_20_1840" x1="129.023" y1="106.418" x2="127.817" y2="110.492" gradientUnits="userSpaceOnUse"><stop stop-color="#B4D2E2"></stop><stop offset="1" stop-color="#7BACDF"></stop></linearGradient><linearGradient id="paint17_linear_20_1840" x1="134.674" y1="87.3228" x2="148.505" y2="40.5836" gradientUnits="userSpaceOnUse"><stop stop-color="#FFF5C6" stop-opacity="0"></stop><stop offset="1" stop-color="#FFF5C6"></stop></linearGradient><linearGradient id="paint18_linear_20_1840" x1="199.426" y1="72.8665" x2="195.858" y2="84.9232" gradientUnits="userSpaceOnUse"><stop stop-color="#FEE45A"></stop><stop offset="1" stop-color="#FEA613"></stop></linearGradient><linearGradient id="paint19_linear_20_1840" x1="196.013" y1="53.7203" x2="202.015" y2="64.7672" gradientUnits="userSpaceOnUse"><stop stop-color="#FEE45A"></stop><stop offset="1" stop-color="#FEA613"></stop></linearGradient><linearGradient id="paint20_linear_20_1840" x1="191.437" y1="90.5889" x2="180.39" y2="96.5905" gradientUnits="userSpaceOnUse"><stop stop-color="#FEE45A"></stop><stop offset="1" stop-color="#FEA613"></stop></linearGradient><linearGradient id="paint21_linear_20_1840" x1="88.2174" y1="39.9554" x2="84.6494" y2="52.0121" gradientUnits="userSpaceOnUse"><stop stop-color="#FEE45A"></stop><stop offset="1" stop-color="#FEA613"></stop></linearGradient><linearGradient id="paint22_linear_20_1840" x1="101.515" y1="25.756" x2="90.4685" y2="31.7577" gradientUnits="userSpaceOnUse"><stop stop-color="#FEE45A"></stop><stop offset="1" stop-color="#FEA613"></stop></linearGradient><linearGradient id="paint23_linear_20_1840" x1="85.2902" y1="59.1773" x2="91.2918" y2="70.2242" gradientUnits="userSpaceOnUse"><stop stop-color="#FEE45A"></stop><stop offset="1" stop-color="#FEA613"></stop></linearGradient><clipPath id="clip0_20_1840"><rect width="198.211" height="198.211" fill="white" transform="translate(57.0353 0.425781) rotate(16.4853)"></rect></clipPath></defs></svg>