<svg xmlns="http://www.w3.org/2000/svg" width="114" height="113" viewBox="0 0 114 113" fill="none"><g id="fi_9592924" clip-path="url(#clip0_20_1492)"><g id="Group"><g id="Group_2"><path id="Vector" d="M86.9958 48.9347L61.5425 43.2547C51.1467 40.9349 40.8384 47.4817 38.5185 57.8777L35.5389 71.2298C33.219 81.6257 39.7658 91.934 50.1619 94.2539L64.7711 97.514C65.0304 97.5719 65.2325 97.7671 65.3127 98.0205C66.6076 102.112 70.4095 105.671 75.8278 108.44C76.4978 108.782 77.1725 108.003 76.7545 107.378C75.0642 104.848 74.4612 102.587 74.7267 100.563C74.7831 100.133 75.1913 99.8393 75.6153 99.9339C86.0112 102.254 96.3195 95.707 98.6394 85.3109L101.619 71.959C103.939 61.5628 97.3916 51.2546 86.9958 48.9347Z" fill="url(#paint0_linear_20_1492)"></path><path id="Vector_2" d="M86.9959 48.9348L70.1092 45.1665L58.7286 96.1655L64.7713 97.5139C65.0306 97.5718 65.2327 97.767 65.3129 98.0204C66.6078 102.112 70.4096 105.67 75.828 108.44C76.498 108.782 77.1727 108.003 76.7547 107.378C75.0644 104.848 74.4614 102.587 74.7269 100.563C74.7833 100.133 75.1915 99.8392 75.6155 99.9338C86.0115 102.254 96.3197 95.7067 98.6395 85.3108L101.619 71.959C103.939 61.5629 97.3918 51.2547 86.9959 48.9348Z" fill="url(#paint1_linear_20_1492)"></path><path id="Vector_3" d="M101.55 72.2676L98.6394 85.3106C96.3195 95.7065 86.0113 102.254 75.6153 99.9336C75.1913 99.839 74.7833 100.132 74.7267 100.563C74.4614 102.586 75.0642 104.848 76.7545 107.378C77.1725 108.003 76.4978 108.782 75.8278 108.439C70.4097 105.67 66.6076 102.112 65.3127 98.0202C65.2326 97.767 65.0304 97.5715 64.7711 97.5137L50.1619 94.2536C39.766 91.9337 33.219 81.6255 35.5389 71.2295L38.4495 58.1865L101.55 72.2676Z" fill="url(#paint2_linear_20_1492)"></path></g><g id="Group_3"><path id="Vector_4" d="M44.9303 5.25874L76.7957 12.3696C89.8106 15.2739 98.0068 28.179 95.1025 41.1939L91.3723 57.9095C88.468 70.9243 75.5629 79.1206 62.5481 76.2163L44.2583 72.1348C43.9338 72.0624 43.6007 72.1762 43.3752 72.4204C39.7302 76.3683 33.5281 78.3766 25.9147 78.6306C24.9733 78.6621 24.623 77.4205 25.4296 76.9342C28.6915 74.9672 30.5783 72.7258 31.3545 70.2916C31.5198 69.7736 31.2134 69.224 30.6826 69.1055C17.6678 66.2011 9.47155 53.296 12.3759 40.2811L16.106 23.5655C19.0103 10.5507 31.9154 2.35442 44.9303 5.25874Z" fill="url(#paint3_linear_20_1492)"></path><path id="Vector_5" d="M76.7957 12.3694L57.3357 8.02686L42.8476 72.9511C43.027 72.7769 43.2067 72.6027 43.3752 72.4202C43.6007 72.1758 43.9338 72.0622 44.2583 72.1346L62.5481 76.2161C75.5629 79.1204 88.468 70.9241 91.3723 57.9093L95.1025 41.1937C98.0068 28.1788 89.8105 15.2737 76.7957 12.3694Z" fill="url(#paint4_linear_20_1492)"></path><path id="Vector_6" d="M16.0197 23.9521L12.3758 40.2809C9.47152 53.2957 17.6678 66.2008 30.6826 69.1051C31.2134 69.2236 31.5196 69.7733 31.3545 70.2914C30.5782 72.7255 28.6915 74.967 25.4296 76.9339C24.623 77.4204 24.9733 78.6618 25.9147 78.6304C33.5281 78.3764 39.7301 76.368 43.3752 72.4202C43.6007 72.1758 43.9338 72.0622 44.2583 72.1346L62.5481 76.216C75.5629 79.1203 88.468 70.9241 91.3723 57.9092L95.0161 41.5805L16.0197 23.9521Z" fill="url(#paint5_linear_20_1492)"></path></g><path id="Vector_7" d="M86.9958 48.9352L61.5426 43.2552C51.1467 40.9354 40.8384 47.4822 38.5185 57.8782L35.5389 71.2303C35.0878 73.2519 34.9734 75.27 35.156 77.2268C38.5504 76.1987 41.3557 74.6079 43.3751 72.4209C43.6007 72.1764 43.9338 72.0628 44.2583 72.1352L62.548 76.2167C75.5629 79.121 88.468 70.9247 91.3723 57.9099L92.8486 51.2941C91.0873 50.2188 89.1222 49.4097 86.9958 48.9352Z" fill="url(#paint6_linear_20_1492)"></path><path id="Vector_8" d="M41.7317 17.7572L23.8709 39.0933L44.9547 72.2901L62.5483 76.2161C67.8931 77.4088 73.2185 76.7282 77.8412 74.6119L41.7317 17.7572Z" fill="url(#paint7_linear_20_1492)"></path><g id="Group_4"><g id="Group_5"><path id="Vector_9" d="M29.4312 42.9889C27.0326 42.4536 25.1802 41.1556 23.8708 39.0936C22.5614 37.0319 22.1656 34.8403 22.684 32.5172C22.7506 32.2186 22.8944 31.8378 23.1159 31.3748C23.3368 30.9134 23.8058 30.1334 24.523 29.0344C25.2397 27.9372 26.3163 26.3673 27.7555 24.329C29.193 22.2901 31.1624 19.5443 33.6639 16.0915C34.2216 15.3514 34.8485 14.9217 35.5447 14.8005C36.2386 14.6808 36.8863 14.6868 37.4867 14.8208C38.6842 15.0881 39.8366 15.7397 40.9445 16.7723C42.0503 17.8061 42.4452 19.0353 42.1278 20.4577C41.9937 21.0583 41.7091 21.6232 41.2769 22.1555L37.1132 27.597C38.2776 28.7233 39.1245 30.0331 39.6576 31.5271C40.1884 33.0225 40.2706 34.5948 39.903 36.2419C39.3678 38.6405 38.0871 40.4967 36.0641 41.8148C34.0389 43.1322 31.828 43.5237 29.4312 42.9889ZM51.9071 48.0044C49.5085 47.4692 47.6561 46.1712 46.3465 44.1092C45.0371 42.0474 44.6413 39.8558 45.1597 37.5327C45.2263 37.2342 45.3703 36.8534 45.5916 36.3904C45.8125 35.929 46.2815 35.1489 46.9986 34.0499C47.7154 32.9528 48.792 31.3828 50.231 29.3445C51.6685 27.3056 53.6381 24.5599 56.1396 21.1071C56.6973 20.367 57.3241 19.9372 58.0202 19.8161C58.7143 19.6963 59.3618 19.7023 59.9624 19.8364C61.1599 20.1036 62.3123 20.7552 63.4202 21.7878C64.5259 22.8216 64.9207 24.0508 64.6033 25.4732C64.4692 26.0738 64.1848 26.6388 63.7526 27.171L59.5889 32.6126C60.7533 33.7388 61.6002 35.0486 62.1333 36.5426C62.6641 38.038 62.7465 39.6104 62.3789 41.2575C61.8437 43.6561 60.563 45.5123 58.5399 46.8304C56.5148 48.1478 54.3039 48.5393 51.9071 48.0044Z" fill="url(#paint8_linear_20_1492)"></path></g><g id="Group_6"><path id="Vector_10" d="M78.691 51.3664C80.1607 51.6943 81.2956 52.4897 82.098 53.7531C82.9003 55.0164 83.1428 56.3592 82.8252 57.7825C82.7843 57.9654 82.6962 58.1988 82.5606 58.4825C82.4253 58.7651 82.1379 59.2431 81.6985 59.9165C81.2593 60.5888 80.5996 61.5507 79.7178 62.7997C78.8371 64.049 77.6304 65.7313 76.0977 67.847C75.7559 68.3004 75.372 68.5637 74.9453 68.6379C74.5201 68.7114 74.1233 68.7075 73.7555 68.6254C73.0217 68.4617 72.3157 68.0624 71.6369 67.4297C70.9594 66.7963 70.7174 66.043 70.9119 65.1717C70.994 64.8036 71.1683 64.4575 71.4331 64.1315L73.9843 60.7973C73.2709 60.1073 72.7519 59.3047 72.4253 58.3895C72.1001 57.4732 72.0497 56.5097 72.2749 55.5006C72.6028 54.0309 73.3875 52.8935 74.6271 52.0859C75.8679 51.2785 77.2225 51.0387 78.691 51.3664ZM64.9198 48.2933C66.3895 48.6212 67.5244 49.4166 68.3268 50.68C69.1291 51.9433 69.3716 53.2861 69.054 54.7094C69.0132 54.8923 68.925 55.1257 68.7892 55.4093C68.6539 55.692 68.3665 56.17 67.9271 56.8433C67.488 57.5157 66.8282 58.4775 65.9464 59.7266C65.0657 60.9758 63.8588 62.6582 62.3262 64.7738C61.9844 65.2272 61.6004 65.4905 61.1739 65.5648C60.7486 65.6382 60.352 65.6344 59.9839 65.5523C59.2502 65.3885 58.5441 64.9892 57.8653 64.3566C57.1879 63.7231 56.946 62.9699 57.1405 62.0985C57.2226 61.7305 57.3969 61.3843 57.6617 61.0584L60.2129 57.7242C59.4995 57.0342 58.9806 56.2316 58.654 55.3163C58.3287 54.4001 58.2783 53.4366 58.5035 52.4274C58.8315 50.9577 59.6161 49.8204 60.8558 49.0128C62.0965 48.2054 63.4512 47.9656 64.9198 48.2933Z" fill="url(#paint9_linear_20_1492)"></path></g></g><g id="Group_7"><path id="Vector_11" d="M89.681 62.8814L64.2074 22.7728L46.3466 44.1089L67.1016 76.788C76.7211 77.0797 85.6287 71.5669 89.681 62.8814Z" fill="url(#paint10_linear_20_1492)"></path><g id="Group_8"><path id="Vector_12" d="M51.9069 48.0045C49.5083 47.4692 47.6559 46.1712 46.3465 44.1093C45.0371 42.0475 44.6413 39.8559 45.1597 37.5328C45.2263 37.2342 45.3702 36.8534 45.5916 36.3905C45.8125 35.929 46.2815 35.149 46.9987 34.0501C47.7154 32.9528 48.792 31.3829 50.2312 29.3446C51.6687 27.3058 53.6381 24.56 56.1396 21.1071C56.6973 20.367 57.3242 19.9373 58.0204 19.8162C58.7143 19.6964 59.362 19.7025 59.9624 19.8365C61.1599 20.1037 62.3123 20.7553 63.4202 21.7879C64.5261 22.8217 64.9209 24.0509 64.6035 25.4733C64.4694 26.0739 64.1848 26.6389 63.7526 27.1711L59.5889 32.6127C60.7533 33.7389 61.6002 35.0487 62.1333 36.5427C62.6641 38.0381 62.7463 39.6104 62.3787 41.2575C61.8435 43.6561 60.5628 45.5123 58.5398 46.8304C56.5148 48.1479 54.3038 48.5394 51.9069 48.0045Z" fill="url(#paint11_linear_20_1492)"></path></g></g></g></g><defs><linearGradient id="paint0_linear_20_1492" x1="64.3754" y1="50.5093" x2="74.2308" y2="99.9457" gradientUnits="userSpaceOnUse"><stop stop-color="#66ADC0"></stop><stop offset="1" stop-color="#1B667B"></stop></linearGradient><linearGradient id="paint1_linear_20_1492" x1="86.7807" y1="79.8982" x2="99.0323" y2="82.6322" gradientUnits="userSpaceOnUse"><stop stop-color="#1B667B" stop-opacity="0"></stop><stop offset="0.2761" stop-color="#1B667B" stop-opacity="0.276"></stop><stop offset="0.5628" stop-color="#1B667B" stop-opacity="0.563"></stop><stop offset="0.8535" stop-color="#1B667B" stop-opacity="0.854"></stop><stop offset="1" stop-color="#1B667B"></stop></linearGradient><linearGradient id="paint2_linear_20_1492" x1="66.0295" y1="83.0193" x2="62.4529" y2="99.0466" gradientUnits="userSpaceOnUse"><stop stop-color="#1B667B" stop-opacity="0"></stop><stop offset="0.2761" stop-color="#1B667B" stop-opacity="0.276"></stop><stop offset="0.5628" stop-color="#1B667B" stop-opacity="0.563"></stop><stop offset="0.8535" stop-color="#1B667B" stop-opacity="0.854"></stop><stop offset="1" stop-color="#1B667B"></stop></linearGradient><linearGradient id="paint3_linear_20_1492" x1="45.9796" y1="9.58184" x2="59.9215" y2="65.5603" gradientUnits="userSpaceOnUse"><stop stop-color="#FEF0AE"></stop><stop offset="1" stop-color="#FAC600"></stop></linearGradient><linearGradient id="paint4_linear_20_1492" x1="77.9347" y1="46.7023" x2="93.272" y2="50.1248" gradientUnits="userSpaceOnUse"><stop stop-color="#FE9738" stop-opacity="0"></stop><stop offset="1" stop-color="#FE9738"></stop></linearGradient><linearGradient id="paint5_linear_20_1492" x1="50.5473" y1="55.0406" x2="46.0698" y2="75.1054" gradientUnits="userSpaceOnUse"><stop stop-color="#FE9738" stop-opacity="0"></stop><stop offset="1" stop-color="#FE9738"></stop></linearGradient><linearGradient id="paint6_linear_20_1492" x1="41.8293" y1="38.1517" x2="87.9175" y2="92.4205" gradientUnits="userSpaceOnUse"><stop stop-color="#1B667B" stop-opacity="0"></stop><stop offset="0.2761" stop-color="#1B667B" stop-opacity="0.276"></stop><stop offset="0.5628" stop-color="#1B667B" stop-opacity="0.563"></stop><stop offset="0.8535" stop-color="#1B667B" stop-opacity="0.854"></stop><stop offset="1" stop-color="#1B667B"></stop></linearGradient><linearGradient id="paint7_linear_20_1492" x1="44.3576" y1="45.8021" x2="24.6977" y2="30.7122" gradientUnits="userSpaceOnUse"><stop stop-color="#FE9738" stop-opacity="0"></stop><stop offset="1" stop-color="#FE9738"></stop></linearGradient><linearGradient id="paint8_linear_20_1492" x1="40.4651" y1="19.6726" x2="46.82" y2="40.3917" gradientUnits="userSpaceOnUse"><stop stop-color="#F5FBFF"></stop><stop offset="1" stop-color="#D8ECFE"></stop></linearGradient><linearGradient id="paint9_linear_20_1492" x1="69.0972" y1="50.2029" x2="70.5746" y2="65.2162" gradientUnits="userSpaceOnUse"><stop stop-color="#F5FBFF"></stop><stop offset="1" stop-color="#D8ECFE"></stop></linearGradient><linearGradient id="paint10_linear_20_1492" x1="62.3747" y1="47.263" x2="48.2265" y2="36.4034" gradientUnits="userSpaceOnUse"><stop stop-color="#FE9738" stop-opacity="0"></stop><stop offset="1" stop-color="#FE9738"></stop></linearGradient><linearGradient id="paint11_linear_20_1492" x1="52.8309" y1="25.858" x2="57.2684" y2="40.3257" gradientUnits="userSpaceOnUse"><stop stop-color="#F5FBFF"></stop><stop offset="1" stop-color="#D8ECFE"></stop></linearGradient><clipPath id="clip0_20_1492"><rect width="94" height="94" fill="white" transform="translate(21.3647) rotate(12.5797)"></rect></clipPath></defs></svg>