<svg xmlns="http://www.w3.org/2000/svg" width="96" height="67" viewBox="0 0 96 67" fill="none"><g id="Group 6" opacity="0.3"><g id="Group 5"><path id="Vector" d="M67.0934 23.4863C62.4229 25.0163 59.5685 28.4509 62.0143 31.5083C62.363 30.2749 63.357 28.6097 64.5851 27.9253C63.4064 29.2446 63.2867 30.4935 62.7663 31.5759C67.351 31.0269 66.9061 25.9634 67.0934 23.4863Z" fill="white"></path><path id="Vector_2" d="M75.9612 8.38964C78.1781 5.15796 75.0765 1.94189 70.307 0.763184C70.6765 3.21947 70.6036 8.30117 75.2222 8.51454C74.6211 7.45813 74.4104 6.22998 73.1354 5.00444C74.4104 5.58469 75.524 7.18231 75.9612 8.38964Z" fill="white"></path><path id="Vector_3" d="M69.6123 4.4375C64.8922 5.80095 61.9233 9.13411 64.2573 12.2747C64.6476 11.0544 65.6988 9.41252 66.9504 8.78544C65.7249 10.0578 65.5609 11.3042 65.0041 12.3684C69.607 11.9807 69.339 6.9068 69.6123 4.4375Z" fill="white"></path><path id="Vector_4" d="M72.7268 24.2723C75.5734 21.5844 73.2264 17.7881 68.8108 15.6206C68.6521 18.1003 67.4942 23.0571 71.9748 24.2358C71.608 23.0909 71.6652 21.8368 70.679 20.3667C71.7927 21.2019 72.5421 23.0025 72.7268 24.2723Z" fill="white"></path><path id="Vector_5" d="M32.4296 2.29352C32.068 1.06278 32.0185 -0.886121 32.6924 -2.10646C32.3932 -0.365721 32.9552 0.758342 33.0931 1.95006C36.6865 -0.948569 33.6187 -5.00509 32.4583 -7.20117C29.3228 -3.42307 28.7296 1.00293 32.4296 2.29352Z" fill="white"></path><path id="Vector_6" d="M55.6681 6.77913C56.9275 3.07128 53.074 0.812747 48.1614 0.963662C49.1814 3.23 50.485 8.14518 54.9864 7.09918C54.1226 6.25613 53.5891 5.12166 52.0305 4.28381C53.4148 4.49718 54.9188 5.73573 55.6681 6.77913Z" fill="white"></path><path id="Vector_7" d="M83.9049 14.1195C87.2797 16.1023 90.2694 12.7847 91.1124 7.94238C88.69 8.4836 83.6135 8.76982 83.7332 13.3884C84.7323 12.7144 85.9527 12.4204 87.0845 11.0622C86.5928 12.3684 85.0758 13.5913 83.9049 14.1195Z" fill="white"></path><path id="Vector_8" d="M97.4588 8.8658C101.208 9.98727 103.326 6.05304 102.993 1.15088C100.769 2.25152 95.908 3.73727 97.1153 8.19709C97.9246 7.30721 99.0408 6.72696 99.8188 5.13974C99.6549 6.52921 98.4736 8.0774 97.4588 8.8658Z" fill="white"></path><path id="Vector_9" d="M90.4439 15.043C89.2002 17.1948 85.9633 21.1238 89.4499 24.1682C89.6321 22.9765 90.241 21.8784 90.0094 20.1247C90.6443 21.371 90.5168 23.3173 90.1083 24.5351C93.8525 23.3902 93.4336 18.9434 90.4439 15.043Z" fill="white"></path><path id="Vector_10" d="M83.7566 4.27594C86.5174 1.49961 84.0611 -2.22125 79.5804 -4.24561C79.4998 -1.7633 78.5266 3.22473 83.0073 4.26293C82.6039 3.12846 82.6222 1.87169 81.5892 0.437993C82.7419 1.23681 83.5329 3.01137 83.7566 4.27594Z" fill="white"></path><path id="Vector_11" d="M96.4883 -1.91943C91.5757 -1.81275 87.8471 0.646137 89.299 4.28373C89.9937 3.2039 91.43 1.88469 92.7987 1.60107C91.2895 2.51697 90.8134 3.68007 89.9989 4.56475C94.5498 5.37137 95.5906 0.393743 96.4883 -1.91943Z" fill="white"></path><path id="Vector_12" d="M41.1931 4.6325C45.8143 4.55704 45.8897 -0.527266 46.3295 -2.97314C41.5288 -1.91673 38.3361 1.19526 40.4568 4.48679C40.9303 3.29507 42.0908 1.72867 43.3788 1.18745C42.0726 2.37656 41.8254 3.60731 41.1931 4.6325Z" fill="white"></path><path id="Vector_13" d="M87.1653 41.6511C86.1245 46.1526 91.0423 47.451 93.3086 48.4709C93.4543 43.5584 91.201 39.7074 87.4827 40.9694C88.5391 41.7188 89.7699 43.2227 89.9833 44.6044C89.148 43.0484 88.0135 42.5124 87.1653 41.6511Z" fill="white"></path><path id="Vector_14" d="M77.1475 40.5403C75.7216 44.9351 80.5067 46.655 82.682 47.8649C83.2518 42.981 81.3289 38.9505 77.53 39.8898C78.5058 40.7224 79.609 42.3305 79.7027 43.7225C78.9976 42.1015 77.9125 41.4692 77.1475 40.5403Z" fill="white"></path><path id="Vector_15" d="M17.4889 29.5938C19.5106 34.0744 23.2341 36.5411 26.0078 33.7804C24.7459 33.567 22.9687 32.7604 22.1699 31.6103C23.6062 32.6407 24.863 32.6251 25.9974 33.0284C24.9566 28.5243 19.9712 29.5157 17.4889 29.5938Z" fill="white"></path><path id="Vector_16" d="M12.9198 35.4663C11.6474 35.3206 9.83124 34.6102 8.96737 33.5096C10.4531 34.4593 11.7073 34.376 12.8626 34.7143C11.585 30.2701 6.662 31.5269 4.1875 31.7402C6.44864 36.1038 10.297 38.3649 12.9198 35.4663Z" fill="white"></path><path id="Vector_17" d="M17.5228 39.0959C14.3119 36.8556 11.0698 39.9285 9.84949 44.6876C12.3084 44.3389 17.3823 44.4534 17.6451 39.8427C16.5913 40.4307 15.3553 40.6311 14.122 41.8956C14.7048 40.6259 16.3285 39.5252 17.5228 39.0959Z" fill="white"></path><path id="Vector_18" d="M26.6299 38.5626C22.8336 37.6129 20.8977 41.6382 21.4519 46.5222C23.6272 45.32 28.4175 43.6235 27.0046 39.2157C26.237 40.1447 25.1598 40.7717 24.4442 42.3798C24.5431 41.0007 25.6515 39.3927 26.6299 38.5626Z" fill="white"></path><path id="Vector_19" d="M37.6441 35.7731C33.9076 34.6126 31.7506 38.5234 32.0368 43.4308C34.2719 42.351 39.1507 40.9147 37.985 36.4444C37.1653 37.3265 36.0439 37.8938 35.2503 39.4732C35.4246 38.0863 36.6215 36.5459 37.6441 35.7731Z" fill="white"></path><path id="Vector_20" d="M90.5974 36.9651C93.3711 39.7284 97.0946 37.2591 99.119 32.781C96.6367 32.703 91.6512 31.7116 90.6104 36.2079C91.7423 35.8072 92.9991 35.8228 94.4354 34.7924C93.6339 35.9451 91.862 36.7517 90.5974 36.9651Z" fill="white"></path><path id="Vector_21" d="M9.33441 10.5361C8.2806 11.1267 7.04465 11.3271 5.8035 12.5812C6.39676 11.3141 8.00739 10.2108 9.23033 9.79449C6.02987 7.54376 2.77998 10.6089 1.54663 15.3654C3.99251 15.0219 9.07421 15.1494 9.33441 10.5361Z" fill="white"></path><g id="Clip path group"><mask id="mask0_109_1363" style="mask-type:luminance" maskUnits="userSpaceOnUse" x="0" y="18" width="8" height="9"><g id="4c30309ab1"><path id="Vector_22" d="M0.25061 18.7197H7.88487V26.7131H0.25061V18.7197Z" fill="white"></path></g></mask><g mask="url(#mask0_109_1363)"><g id="Group"><path id="Vector_23" d="M7.29955 25.6695C6.14166 25.1179 4.66372 23.8533 4.20317 22.5315C5.29861 23.9158 6.51374 24.2436 7.4947 24.9435C7.72888 20.3276 2.66018 19.9165 0.250732 19.3076C0.968885 24.1682 3.87271 27.5612 7.29955 25.6695Z" fill="white"></path></g></g></g><path id="Vector_24" d="M21.863 -3.21506C20.7545 -1.84121 20.6973 -0.579239 20.2315 0.521406C24.785 -0.266999 24.0825 -5.29406 24.1449 -7.77637C19.5602 -6.01221 16.8828 -2.43707 19.49 0.490183C19.7554 -0.758777 20.6713 -2.4839 21.863 -3.21506Z" fill="white"></path><path id="Vector_25" d="M11.8478 14.9624C10.7758 19.7579 12.272 23.9679 16.1489 23.4267C15.2669 22.4978 14.3301 20.7909 14.3822 19.3884C14.9104 21.0745 15.9252 21.8135 16.5913 22.8126C18.4673 18.6 13.8878 16.3883 11.8478 14.9624Z" fill="white"></path><path id="Vector_26" d="M22.8907 12.4931C23.1743 11.2442 24.085 9.51643 25.2637 8.78526C24.1501 10.1591 24.0954 11.4211 23.6297 12.5243C28.1832 11.7333 27.4806 6.70887 27.5457 4.22656C22.9688 5.98812 20.2809 9.56326 22.8907 12.4931Z" fill="white"></path><path id="Vector_27" d="M16.0268 -0.902222C15.1239 -1.69323 14.5254 -2.80428 12.9252 -3.53805C14.3173 -3.40274 15.8889 -2.24746 16.6929 -1.24569C17.7467 -5.01598 13.7786 -7.06375 8.88428 -6.65004C10.024 -4.45395 11.5852 0.383165 16.0268 -0.902222Z" fill="white"></path><path id="Vector_28" d="M47.7736 39.0154C44.3884 37.0509 41.4117 40.3815 40.592 45.229C43.0119 44.6748 48.0884 44.3677 47.9505 39.7492C46.9565 40.4257 45.7388 40.7275 44.6121 42.091C45.0909 40.7744 46.6053 39.5436 47.7736 39.0154Z" fill="white"></path><path id="Vector_29" d="M31.5007 11.0283C27.4442 13.7994 25.6618 17.8976 28.8649 20.1483C28.8649 18.8655 29.3384 16.9869 30.3298 15.9903C29.5674 17.5854 29.8042 18.8187 29.6038 20.0078C33.8607 18.1968 32.0107 13.4586 31.5007 11.0283Z" fill="white"></path><path id="Vector_30" d="M52.171 30.0594C54.2786 26.7705 51.099 23.6429 46.2931 22.6021C46.7354 25.0453 46.8213 30.1296 51.432 30.2051C50.7998 29.1799 50.5552 27.9466 49.2464 26.7626C50.5265 27.2961 51.687 28.8781 52.171 30.0594Z" fill="white"></path><path id="Vector_31" d="M15.7247 7.36203C14.7724 6.62567 14.1089 5.55885 12.467 4.90835C13.8643 4.96039 15.5035 6.0168 16.3648 6.96653C17.1896 3.13899 13.1019 1.33841 8.23877 2.05396C9.51375 4.18499 11.3742 8.91803 15.7247 7.36203Z" fill="white"></path><path id="Vector_32" d="M42.7023 18.9121C47.3208 18.8393 47.3989 13.755 47.8386 11.3091C43.0353 12.3629 39.8427 15.4775 41.9633 18.769C42.4343 17.5773 43.5974 16.0083 44.8854 15.4671C43.5792 16.6562 43.332 17.8869 42.7023 18.9121Z" fill="white"></path><g id="Clip path group_2"><mask id="mask1_109_1363" style="mask-type:luminance" maskUnits="userSpaceOnUse" x="3" y="40" width="109" height="77"><g id="8189ef0bf3"><path id="Vector_33" d="M3.88818 40.0352H111.132V116.76H3.88818V40.0352Z" fill="white"></path></g></mask><g mask="url(#mask1_109_1363)"><g id="Group_2"><path id="Vector_34" d="M102.101 83.5977C99.6053 84.6724 97.9244 81.9142 95.1819 82.4685C91.383 83.2335 89.1973 82.5153 86.7957 82.0964C84.4851 81.5213 82.2474 81.0634 80.4286 80.0382C77.0798 78.1465 73.2262 79.0182 70.783 77.2072C69.2842 76.0936 67.978 73.6295 67.5929 71.6337C66.5859 66.4245 69.3415 61.5458 65.9667 51.117C65.6128 53.8101 65.095 58.9646 64.6917 60.2838C63.8148 63.1668 62.441 64.2727 58.8944 70.0231C57.8406 71.7092 58.2127 71.4646 57.518 73.5046C57.3671 73.8168 57.276 75.3494 56.5917 76.4448C55.8241 77.5689 55.262 78.7866 54.9004 80.098C55.8111 78.8309 57.2214 77.7276 57.9083 76.372C58.257 75.6929 58.2231 75.2505 58.5067 74.6521C58.8216 73.9912 59.1104 73.8611 59.4825 72.7214C60.0497 70.9963 61.9362 69.2503 62.7974 67.8661C62.5528 69.4325 60.9526 71.3345 60.466 72.7058C59.9821 74.077 59.3212 75.5732 58.7773 76.8221C57.6741 78.8439 56.1311 80.4441 54.1536 81.6228C52.9489 82.3306 51.6661 82.8275 50.3 83.1164C51.2602 82.4529 52.2619 81.7477 53.0451 80.7095C53.5733 80.0226 53.9428 79.0546 54.3279 78.3235C55.0461 77.0329 55.4988 75.6538 55.6862 74.1863C57.3358 68.1965 59.2405 66.5937 60.4739 64.2519C61.3611 62.5606 63.1617 61.296 63.7237 57.8926C64.6579 52.2593 64.7125 48.0206 67.0257 44.5938C68.155 42.9181 67.6163 42.2416 68.6051 40.519C67.0517 41.3959 66.2685 43.5712 64.9649 44.4715C64.1765 44.9997 63.3725 45.0387 62.5502 45.887C59.8754 48.6451 60.107 50.1438 58.9022 51.6842C58.0644 52.7406 56.9039 53.6071 55.9802 54.7338C55.1371 55.7642 54.5101 57.2057 53.7997 58.2569C52.6809 59.9091 51.8794 61.603 51.6921 63.682C51.5672 65.0975 51.4657 65.5997 51.9783 67.2208C52.0356 65.9224 52.2411 65.2276 52.7043 63.898C53.4797 61.6785 55.4858 60.4712 56.7036 57.8588C56.6229 60.7938 54.1666 62.7063 53.8049 64.1192C53.3262 65.9874 52.7849 66.6171 52.5612 68.5087C51.6427 76.3173 46.5453 76.0025 40.8756 79.216C36.4912 81.6931 29.7312 81.1987 23.8819 82.4216C17.6762 83.7408 18.1185 83.7877 11.3793 83.9776C7.39828 84.0895 4.87174 87.2535 4.37476 89.1608C6.66972 86.2882 10.3333 85.9682 12.0845 85.786C13.9293 85.5935 15.4775 86.5406 19.3206 85.8329C19.1307 87.7896 18.0014 89.4366 16.4688 90.0871C14.624 90.8781 12.7974 91.8253 12.1469 93.0846C14.1036 91.8799 14.9285 91.9814 17.1219 91.1409C19.3128 90.3005 19.9607 89.7905 21.3866 88.12C22.7319 86.5406 27.7693 85.6975 30.9125 85.9317C27.4857 87.8208 27.5508 90.0533 26.1691 91.5911C25.5134 92.3248 24.254 92.7099 22.6954 93.2486C20.7413 94.2425 18.5895 94.8097 17.0205 96.1498C15.8964 97.1151 15.6414 99.3554 16.4741 100.992C16.5651 99.2071 16.8904 97.8307 19.2035 96.6702C20.822 95.861 23.9756 95.377 25.7476 94.841C25.3937 97.4196 22.5341 98.7726 21.7951 101.211C21.5297 102.116 21.306 105.189 23.2366 107.273C22.901 105.306 21.8966 102.002 24.2905 99.8082C25.1881 98.9781 26.3512 97.8437 27.1709 97.5913C29.2238 101.19 29.1406 101.695 28.8283 104.422C31.4329 100.076 29.635 100.82 29.2681 95.9234C29.0053 92.3613 31.3106 89.3872 33.1425 88.081C35.2501 86.59 37.1183 87.6569 39.2415 87.4929C39.3768 88.5467 39.4107 89.7853 36.7488 91.2294C34.8728 92.2416 33.1008 93.7794 33.322 96.1081C33.5093 97.9946 34.6985 98.5618 34.3108 100.698C37.6908 98.0258 30.9724 95.0283 38.8747 92.6553C39.0386 95.2209 38.5494 95.913 37.7974 97.4846C36.9049 99.3424 37.6049 100.329 37.1443 102.015C36.7488 103.461 33.9855 103.742 33.3298 105.043C32.3567 106.932 32.557 108.863 33.1555 110.034C33.1919 104.237 35.3958 106.1 37.9301 103.865C39.2337 104.775 39.5798 106.501 39.4471 108.288C40.7377 106.774 39.7489 104.297 38.9189 102.069C38.5806 101.166 38.9345 100.24 39.062 99.587C39.4445 98.2288 40.4697 97.1958 40.7429 96.3059C41.2373 94.7265 41.7186 93.7924 42.4784 92.062C43.8497 88.937 44.7526 88.2709 47.5133 87.0532C48.8065 88.1694 47.6408 91.9267 44.8775 92.9441C44.0136 93.2616 43.2096 93.769 43.0327 94.7395C43.743 94.1514 45.1429 93.7247 45.8949 94.0031C45.4291 95.5669 44.1515 97.266 46.4673 99.8524C46.1837 97.9113 45.4993 96.8549 46.9955 95.0309C47.3233 94.6276 49.673 92.2754 50.6201 90.0975C50.8699 89.5563 52.0694 88.3334 52.7563 87.9379C53.386 88.2839 53.9793 90.5737 53.7815 91.4662C52.9905 95.0231 52.3868 96.6858 50.3235 98.4161C47.9192 100.425 44.5444 102.644 43.3839 105.431C42.9832 106.389 43.2668 111.603 40.2225 113.64C43.259 113.378 44.4846 109.316 44.5991 108.077C44.7656 106.246 44.2894 106.399 45.7465 104.929C47.0631 103.591 48.2393 102.962 50.5967 101.572C51.7884 102.811 52.1006 105.145 51.8638 105.978C51.5828 106.974 50.8803 107.557 50.7554 110.055C50.6253 112.691 52.2645 113.744 50.6513 116.909C52.4467 115.831 52.4207 113.908 52.1266 110.794C52.046 109.977 52.4571 109.225 52.9957 108.554C53.5681 107.838 53.4979 106.376 53.7399 105.673C54.929 106.433 57.3879 107.445 58.2804 108.436C59.1104 109.355 60.1538 110.484 59.9014 112.313C60.6924 111.829 60.8615 109.68 60.2345 108.53C58.3558 105.09 53.7399 105.496 54.0885 100.336C54.4424 95.1142 59.3134 92.8374 58.7071 86.3559C60.989 88.2969 61.8685 92.1531 61.5771 95.1896C61.4678 96.3319 60.9344 97.9608 60.6716 99.5558C60.3229 101.663 61.3065 102.782 63.1201 103.846C61.8633 102.595 61.6786 100.513 62.5138 98.3667C63.1851 96.652 63.9241 95.8037 64.7307 93.847C67.7907 95.658 67.1844 99.6156 66.9216 102.678C66.7239 104.994 65.7013 106.344 65.4879 107.325C65.298 108.202 65.7299 110.633 67.5019 111.447C66.4298 109.709 66.6224 108.124 67.0439 107.18C67.4654 106.238 68.5713 105.488 68.9824 104.762C71.129 105.551 72.8802 107.981 73.3772 109.334C74.0823 111.262 73.0883 112.834 73.4136 114.754C74.1135 112.121 75.6487 110.154 74.4414 107.531C74.0407 106.73 73.5385 105.998 72.9296 105.34C70.3302 102.379 68.8002 100.682 69.9555 95.9208C71.8706 96.0587 73.156 97.8463 74.0042 98.835C75.3885 100.453 76.1795 102.886 77.3712 105.538C77.6184 106.092 78.909 106.079 79.9446 106.857C81.04 107.666 82.2682 107.83 82.6871 109.639C83.4131 107.531 81.8024 106.11 80.0019 105.088C78.8414 104.427 78.5551 103.612 78.118 101.578C80.2699 103.529 84.9092 102.777 86.7905 104.31C87.2849 104.684 87.7402 105.098 88.1617 105.551C88.6873 106.162 89.0204 106.841 89.4783 107.302C88.4453 102.103 85.3177 102.116 82.6273 101.539C78.7893 100.748 79.4632 99.8498 77.9359 98.4239C75.9271 95.161 72.4352 93.5946 69.0813 91.8175C66.5651 90.5008 65.3916 89.7515 65.16 86.5692C68.3657 85.9812 73.169 89.5381 74.7198 90.722C76.3643 91.9736 78.5187 93.0196 80.1606 94.8071C80.7252 95.4238 81.8441 95.7647 82.4503 96.475C83.2413 97.4117 83.6316 98.2262 83.7097 99.8498C84.7063 98.2678 84.1208 96.5583 83.5015 95.6736C82.4477 94.1618 80.7148 93.8288 79.6272 91.1253C81.7686 91.3387 82.5258 90.9874 83.4625 91.2684C86.7462 92.2468 84.7791 96.1862 87.8209 97.2504C86.7072 95.3926 87.2302 93.8106 86.5823 92.0282C85.7783 89.8269 84.6204 89.7879 82.4842 89.6578C79.4502 89.4704 77.5221 88.042 76.3356 86.5068C78.3756 86.7149 78.5265 86.7982 80.1866 86.9855C85.1408 87.5476 88.4818 88.643 90.5764 93.9953C91.0708 95.1844 91.422 96.4152 91.6302 97.685C91.9294 99.8342 90.4749 100.677 93.3007 102.049C92.2703 99.9877 92.5487 101.497 93.0847 95.9442C95.9027 96.6884 98.0311 95.2417 101.143 98.2574C98.7727 92.5746 96.2435 97.0345 92.5305 92.3613C94.1932 91.4272 96.6937 91.9866 98.5073 92.036C101.104 92.1089 100.854 93.7351 102.832 94.2035C101.882 92.6865 100.779 91.219 98.8663 90.7246C96.7457 90.212 94.5965 89.8816 92.4212 89.7359C90.9823 89.624 90.6909 89.0177 89.8192 87.9561C88.7654 86.6655 87.9978 86.3064 84.9222 85.1225C87.6101 85.263 91.8462 85.5232 94.0266 86.8008C96.8654 88.7003 101.65 88.2137 104.252 89.3221C103.501 87.6881 100.748 87.5762 99.3347 87.2145C97.8151 86.8112 96.5323 86.0722 95.7387 84.7556C97.0918 84.6698 99.5767 85.8797 101.799 85.4087C102.855 85.185 103.487 84.8025 104.232 84.7114C105.793 84.5162 109.805 85.3723 111.085 86.9986C111.111 84.8649 105.751 82.0287 102.101 83.5977Z" fill="white"></path></g></g></g><path id="Vector_35" d="M53.4199 -4.39907C50.7711 -8.4634 47.6461 -12.5667 49.0563 -16.7117C46.1577 -13.2849 50.1102 -6.01231 50.4068 -5.56737C49.4336 -6.52491 42.3848 -5.65844 40.743 -9.65251C40.1835 -6.52231 45.1586 -5.2135 48.5542 -4.1701C50.8231 -3.47536 52.007 -2.43456 53.2976 -1.27147C54.5908 -0.110981 56.0219 1.15619 57.2917 3.41473C58.7696 6.49809 58.6421 10.0654 58.3871 12.7767C56.3576 9.75319 53.3236 11.1765 50.4224 7.27349C50.8309 9.79743 52.1423 10.9371 53.8648 11.9727C59.1521 15.1367 57.2578 18.665 55.4208 23.0416C53.7738 26.9706 53.7972 28.8987 53.7087 32.1408C53.6046 36.114 54.8822 38.7447 55.0462 42.7231C54.8536 45.6582 55.1372 46.5298 53.8128 50.2533C53.066 52.3479 51.3539 54.3541 51.8093 59.6491C52.275 57.4843 53.3028 56.3212 54.2239 55.1997C56.4122 52.5379 56.7088 51.419 57.0107 49.1995C57.4296 46.1057 59.0975 43.8472 59.6439 42.3614C61.4263 37.5347 59.4357 33.6161 59.2328 28.8935C58.6447 15.1055 68.9851 18.306 69.6538 10.6067C67.6737 15.3501 63.3543 14.5799 60.9579 16.9607C63.3283 12.2589 61.5772 7.87716 64.5252 3.13111C68.1472 -2.69997 78.9299 -2.6167 78.1181 -8.37753C76.2733 -4.25596 71.509 -4.39387 70.3173 -3.68092C71.1421 -4.4277 73.856 -13.0924 68.7769 -19.0327C70.9418 -13.7611 70.502 -9.5068 68.6806 -5.32799C67.8974 -3.63929 66.763 -2.23421 65.2798 -1.11275C66.3961 -3.42853 63.7759 -5.51273 64.226 -8.13815C62.5815 -5.55176 65.3214 -3.04604 62.925 0.222075C61.9857 1.51006 61.6474 2.31408 60.7237 4.01059C58.7904 -0.269703 54.6923 -2.44237 55.0592 -4.22474C55.6862 -7.27168 59.9769 -9.66812 59.3785 -12.8478C59.0428 -9.39491 53.4225 -7.77387 53.4199 -4.39907Z" fill="white"></path><path id="Vector_36" d="M103.524 28.6153C104.159 28.6413 108.965 25.5528 108.411 18.7589C107.195 27.7436 98.6063 29.807 90.9278 29.2528C94.5055 25.9431 94.8828 25.5241 97.0997 20.0938C98.0937 17.6661 98.6817 15.2645 99.8864 13.3416C101.364 10.9712 104.289 8.65539 108.991 9.14977C102.808 6.35002 97.4432 12.9435 97.006 15.1266C97.1647 13.5445 92.5488 5.63707 98.7806 -0.891348C90.4282 5.56681 95.2367 14.463 95.1586 16.3521C94.8958 22.5813 91.6953 25.3134 86.9545 29.0993C87.2798 27.2831 87.5868 24.3741 86.1193 22.7244C86.9103 30.3821 81.3368 31.5348 75.3938 32.3388C81.5241 24.9413 77.1007 20.7157 89.0127 15.2254C85.271 15.6496 82.1304 16.8335 79.6195 19.4589C79.76 16.4328 79.8198 14.7519 80.9361 12.6651C82.2137 10.2582 91.6979 3.94837 87.2095 -5.08057C89.2911 3.94056 81.4591 7.35178 80.4261 9.67797C80.2986 6.9771 77.7486 5.43151 78.1832 -2.31724C75.1857 4.21898 79.4269 7.50791 77.6081 15.457C76.164 12.6729 75.3262 11.5046 72.5238 10.8957C78.688 15.7406 76.5413 21.8423 73.7103 26.6456C72.1856 29.2372 70.3772 32.5573 68.4673 33.965C65.8315 35.9035 63.1957 38.8542 61.9545 41.1986C61.3066 42.83 60.3985 43.8838 59.428 46.0669C58.6682 47.7764 57.9734 48.9421 58.1608 50.8962C58.6161 49.6134 59.199 48.3957 59.9119 47.2378C60.9866 45.4555 62.1575 44.5213 64.3926 43.1215C65.2825 42.5594 66.3831 39.718 69.1881 38.7527C71.3945 37.6469 72.9219 37.0276 74.8006 36.9079C76.9472 36.7804 79.0678 36.9599 81.1625 37.4413C81.9509 37.6234 82.924 38.0372 83.8841 38.326C86.4445 39.117 89.442 40.2775 92.2782 40.8031C95.5541 41.4093 99.4675 41.3313 101.448 38.0632C98.0208 40.202 95.1456 39.7415 92.4265 39.0701C87.9979 37.9773 83.957 34.4256 82.0289 34.462C83.8607 34.0457 85.8174 32.932 87.6284 32.2711C90.4074 31.2563 93.9539 31.7429 98.9133 30.5954C104.906 29.2164 109.618 32.7993 114.127 28.5841C108.78 30.7229 105.07 28.9822 103.524 28.6153Z" fill="white"></path><path id="Vector_37" d="M11.6683 28.6306C16.8125 27.4597 17.9105 27.5612 23.1015 27.824C28.1077 28.0868 30.0254 30.962 34.3656 31.6775C31.2562 31.8024 24.2724 40.1835 14.8636 35.1226C19.7735 40.9224 27.7279 36.8893 33.114 34.8728C35.7498 33.8918 39.3041 33.4651 42.5697 34.6256C44.2063 35.2084 45.5932 35.8043 46.7511 36.6525C47.8075 37.4175 49.6523 38.6223 50.4771 40.0456C50.8232 40.6388 51.5492 41.9684 51.8094 42.5409C52.2855 43.5947 53.1286 46.0796 53.2014 48.0753C53.753 46.8003 53.6177 44.7968 53.5761 43.3735C53.4928 41.5651 53.0531 39.8478 52.2569 38.2215C51.2317 36.1452 49.8084 34.394 47.9844 32.9707C45.83 31.2768 44.0294 28.5031 44.1048 26.8248C44.1569 25.5628 43.6885 22.7188 46.8473 20.9625C48.3747 20.8246 52.171 21.0614 52.91 18.0639C51.1589 20.1012 49.0486 19.5704 47.7815 19.7552C48.2524 19.5834 51.2864 16.4246 49.2308 12.8859C50.1805 19.8644 43.4309 19.3987 41.3025 25.3338C39.6476 22.4326 38.5886 17.9182 39.7205 14.3794C40.8784 10.7184 43.9539 5.50922 48.4762 4.16919C43.829 4.10674 40.3866 8.29596 37.9953 12.0428C35.5807 4.22123 40.6728 1.43969 37.1887 -4.90138C38.2087 2.80834 34.67 3.74246 34.7506 6.44594C33.5407 4.1848 25.8622 1.86382 27.2621 -7.25879C23.4658 2.02254 33.0073 7.13807 34.4618 9.45905C37.5816 14.4471 34.9458 23.9001 41.5263 30.8059C37.9693 29.9108 33.7411 28.9272 31.4929 26.4735C30.1373 24.9956 29.3853 22.672 29.3463 19.75C28.6151 21.9382 28.8571 24.6157 29.7964 26.6453C14.2989 16.3283 25.1727 5.73559 17.4083 0.817816C20.9366 4.90556 18.3372 11.3013 18.6131 12.8807C18.0146 10.7288 13.6693 7.85622 9.86253 10.0965C19.006 8.79294 17.2938 20.312 23.0417 24.9436C15.2148 25.1647 10.5443 27.1735 7.81216 18.3371C7.77313 25.1543 12.2694 26.8742 12.9017 26.8118C11.3873 27.2853 7.32298 29.3617 1.83276 27.5455C4.67154 29.6688 8.7853 29.2863 11.6683 28.6306Z" fill="white"></path></g></g></svg>