<svg xmlns="http://www.w3.org/2000/svg" width="25" height="24" viewBox="0 0 25 24" fill="none"><g id="head_fill" clip-path="url(#clip0_20_35)"><g id="Group"><path id="Vector" fill-rule="evenodd" clip-rule="evenodd" d="M5.5 10.0002C5.50032 8.59594 5.87024 7.21654 6.57258 6.00059C7.27493 4.78464 8.28496 3.77498 9.50117 3.07308C10.7174 2.37117 12.0969 2.00176 13.5011 2.00195C14.9053 2.00215 16.2848 2.37195 17.5008 3.0742C18.7168 3.77644 19.7265 4.78639 20.4285 6.00254C21.1305 7.21868 21.5001 8.59819 21.5 10.0024C21.4999 11.4066 21.1302 12.7861 20.4281 14.0021C19.7259 15.2182 18.7161 16.228 17.5 16.9302V20.5002C17.5 20.898 17.342 21.2795 17.0607 21.5608C16.7794 21.8421 16.3978 22.0002 16 22.0002H12C11.6022 22.0002 11.2206 21.8421 10.9393 21.5608C10.658 21.2795 10.5 20.898 10.5 20.5002V19.0002H9.266C8.53475 19.0002 7.82866 18.7331 7.28046 18.2492C6.73225 17.7653 6.37968 17.0978 6.289 16.3722L6.149 15.2492L5.402 15.1002C5.18439 15.0566 4.97917 14.9653 4.80112 14.8328C4.62307 14.7003 4.47663 14.53 4.37237 14.3341C4.2681 14.1382 4.2086 13.9216 4.19816 13.6999C4.18772 13.4782 4.2266 13.257 4.312 13.0522L5.502 10.1942C5.50056 10.1295 5.4999 10.0648 5.5 10.0002Z" fill="white"></path></g></g><defs><clipPath id="clip0_20_35"><rect width="24" height="24" fill="white" transform="translate(0.5)"></rect></clipPath></defs></svg>