<svg xmlns="http://www.w3.org/2000/svg" width="24" height="25" viewBox="0 0 24 25" fill="none"><g id="instagram_line" clip-path="url(#clip0_169_1886)"><g id="Group"><path id="Vector" fill-rule="evenodd" clip-rule="evenodd" d="M16 3.2168C17.3261 3.2168 18.5979 3.74358 19.5355 4.68126C20.4732 5.61894 21 6.89071 21 8.2168V16.2168C21 17.5429 20.4732 18.8146 19.5355 19.7523C18.5979 20.69 17.3261 21.2168 16 21.2168H8C6.67392 21.2168 5.40215 20.69 4.46447 19.7523C3.52678 18.8146 3 17.5429 3 16.2168V8.2168C3 6.89071 3.52678 5.61894 4.46447 4.68126C5.40215 3.74358 6.67392 3.2168 8 3.2168H16ZM16 5.2168H8C7.20435 5.2168 6.44129 5.53287 5.87868 6.09548C5.31607 6.65809 5 7.42115 5 8.2168V16.2168C5 17.0124 5.31607 17.7755 5.87868 18.3381C6.44129 18.9007 7.20435 19.2168 8 19.2168H16C16.7956 19.2168 17.5587 18.9007 18.1213 18.3381C18.6839 17.7755 19 17.0124 19 16.2168V8.2168C19 7.42115 18.6839 6.65809 18.1213 6.09548C17.5587 5.53287 16.7956 5.2168 16 5.2168ZM12 8.2168C13.0609 8.2168 14.0783 8.63822 14.8284 9.38837C15.5786 10.1385 16 11.1559 16 12.2168C16 13.2777 15.5786 14.2951 14.8284 15.0452C14.0783 15.7954 13.0609 16.2168 12 16.2168C10.9391 16.2168 9.92172 15.7954 9.17157 15.0452C8.42143 14.2951 8 13.2777 8 12.2168C8 11.1559 8.42143 10.1385 9.17157 9.38837C9.92172 8.63822 10.9391 8.2168 12 8.2168ZM12 10.2168C11.4696 10.2168 10.9609 10.4275 10.5858 10.8026C10.2107 11.1777 10 11.6864 10 12.2168C10 12.7472 10.2107 13.2559 10.5858 13.631C10.9609 14.0061 11.4696 14.2168 12 14.2168C12.5304 14.2168 13.0391 14.0061 13.4142 13.631C13.7893 13.2559 14 12.7472 14 12.2168C14 11.6864 13.7893 11.1777 13.4142 10.8026C13.0391 10.4275 12.5304 10.2168 12 10.2168ZM16.5 6.7168C16.7652 6.7168 17.0196 6.82215 17.2071 7.00969C17.3946 7.19723 17.5 7.45158 17.5 7.7168C17.5 7.98201 17.3946 8.23637 17.2071 8.4239C17.0196 8.61144 16.7652 8.7168 16.5 8.7168C16.2348 8.7168 15.9804 8.61144 15.7929 8.4239C15.6054 8.23637 15.5 7.98201 15.5 7.7168C15.5 7.45158 15.6054 7.19723 15.7929 7.00969C15.9804 6.82215 16.2348 6.7168 16.5 6.7168Z" fill="#022E3C"></path></g></g><defs><clipPath id="clip0_169_1886"><rect width="24" height="24" fill="white" transform="translate(0 0.216797)"></rect></clipPath></defs></svg>