<svg xmlns="http://www.w3.org/2000/svg" width="24" height="25" viewBox="0 0 24 25" fill="none"><g id="linkedin_line" clip-path="url(#clip0_169_1881)"><g id="Group"><path id="Vector" d="M18 3.2168C18.7956 3.2168 19.5587 3.53287 20.1213 4.09548C20.6839 4.65809 21 5.42115 21 6.2168V18.2168C21 19.0124 20.6839 19.7755 20.1213 20.3381C19.5587 20.9007 18.7956 21.2168 18 21.2168H6C5.20435 21.2168 4.44129 20.9007 3.87868 20.3381C3.31607 19.7755 3 19.0124 3 18.2168V6.2168C3 5.42115 3.31607 4.65809 3.87868 4.09548C4.44129 3.53287 5.20435 3.2168 6 3.2168H18ZM18 5.2168H6C5.73478 5.2168 5.48043 5.32215 5.29289 5.50969C5.10536 5.69723 5 5.95158 5 6.2168V18.2168C5 18.482 5.10536 18.7364 5.29289 18.9239C5.48043 19.1114 5.73478 19.2168 6 19.2168H18C18.2652 19.2168 18.5196 19.1114 18.7071 18.9239C18.8946 18.7364 19 18.482 19 18.2168V6.2168C19 5.95158 18.8946 5.69723 18.7071 5.50969C18.5196 5.32215 18.2652 5.2168 18 5.2168ZM8 10.2168C8.24493 10.2168 8.48134 10.3068 8.66437 10.4695C8.84741 10.6323 8.96434 10.8565 8.993 11.0998L9 11.2168V16.2168C8.99972 16.4717 8.90212 16.7168 8.72715 16.9022C8.55218 17.0875 8.31305 17.199 8.05861 17.214C7.80416 17.2289 7.55362 17.1461 7.35817 16.9825C7.16271 16.8189 7.0371 16.5869 7.007 16.3338L7 16.2168V11.2168C7 10.9516 7.10536 10.6972 7.29289 10.5097C7.48043 10.3222 7.73478 10.2168 8 10.2168ZM11 9.2168C11.2342 9.21676 11.461 9.29892 11.6408 9.44896C11.8206 9.59899 11.9421 9.80738 11.984 10.0378C12.1852 9.92111 12.3933 9.81659 12.607 9.7248C13.274 9.4398 14.273 9.2828 15.175 9.5658C15.648 9.7158 16.123 9.9958 16.475 10.4728C16.79 10.8978 16.96 11.4148 16.994 11.9958L17 12.2168V16.2168C16.9997 16.4717 16.9021 16.7168 16.7272 16.9022C16.5522 17.0875 16.313 17.199 16.0586 17.214C15.8042 17.2289 15.5536 17.1461 15.3582 16.9825C15.1627 16.8189 15.0371 16.5869 15.007 16.3338L15 16.2168V12.2168C15 11.8868 14.92 11.7328 14.868 11.6618C14.7934 11.5689 14.6905 11.503 14.575 11.4738C14.227 11.3638 13.726 11.4218 13.393 11.5638C12.893 11.7778 12.435 12.1138 12.123 12.4248L12 12.5568V16.2168C11.9997 16.4717 11.9021 16.7168 11.7272 16.9022C11.5522 17.0875 11.313 17.199 11.0586 17.214C10.8042 17.2289 10.5536 17.1461 10.3582 16.9825C10.1627 16.8189 10.0371 16.5869 10.007 16.3338L10 16.2168V10.2168C10 9.95158 10.1054 9.69723 10.2929 9.50969C10.4804 9.32215 10.7348 9.2168 11 9.2168ZM8 7.2168C8.26522 7.2168 8.51957 7.32215 8.70711 7.50969C8.89464 7.69723 9 7.95158 9 8.2168C9 8.48201 8.89464 8.73637 8.70711 8.9239C8.51957 9.11144 8.26522 9.2168 8 9.2168C7.73478 9.2168 7.48043 9.11144 7.29289 8.9239C7.10536 8.73637 7 8.48201 7 8.2168C7 7.95158 7.10536 7.69723 7.29289 7.50969C7.48043 7.32215 7.73478 7.2168 8 7.2168Z" fill="#022E3C"></path></g></g><defs><clipPath id="clip0_169_1881"><rect width="24" height="24" fill="white" transform="translate(0 0.216797)"></rect></clipPath></defs></svg>