<svg xmlns="http://www.w3.org/2000/svg" width="24" height="24" viewBox="0 0 24 24" fill="none"><g id="location_3_fill" clip-path="url(#clip0_109_1316)"><g id="Group"><path id="Vector" fill-rule="evenodd" clip-rule="evenodd" d="M17.553 16.106C17.772 15.9964 18.0236 15.9711 18.2601 16.0346C18.4965 16.0982 18.7015 16.2464 18.836 16.451L18.894 16.553L20.894 20.553C20.9653 20.6956 21.0016 20.8533 20.9996 21.0128C20.9976 21.1723 20.9575 21.329 20.8826 21.4698C20.8078 21.6106 20.7003 21.7315 20.5692 21.8224C20.4381 21.9132 20.2871 21.9714 20.129 21.992L20 22H3.99999C3.84046 22.0001 3.68323 21.9619 3.54143 21.8888C3.39964 21.8157 3.27739 21.7098 3.1849 21.5798C3.0924 21.4498 3.03235 21.2996 3.00975 21.1417C2.98715 20.9837 3.00266 20.8227 3.05499 20.672L3.10499 20.552L5.10499 16.552C5.21708 16.3203 5.41421 16.1407 5.65534 16.0507C5.89648 15.9606 6.16304 15.967 6.39958 16.0686C6.63611 16.1701 6.82439 16.3589 6.92523 16.5957C7.02607 16.8325 7.03172 17.0991 6.94099 17.34L6.89399 17.447L5.61799 20H18.382L17.106 17.447C16.9876 17.2099 16.9681 16.9354 17.0519 16.684C17.1358 16.4325 17.316 16.2246 17.553 16.106ZM12 2C13.8565 2 15.637 2.7375 16.9497 4.05025C18.2625 5.36301 19 7.14348 19 9C19 11.382 17.711 13.317 16.377 14.69C15.6401 15.4384 14.83 16.1111 13.959 16.698L13.586 16.944L13.254 17.153C13.202 17.184 13.152 17.213 13.105 17.243L12.848 17.391C12.32 17.691 11.68 17.691 11.152 17.391L10.895 17.242L10.585 17.053C10.5278 17.017 10.4708 16.9807 10.414 16.944L10.041 16.698C9.16993 16.1111 8.35988 15.4384 7.62299 14.69C6.28899 13.317 4.99999 11.382 4.99999 9C4.99999 7.14348 5.73748 5.36301 7.05024 4.05025C8.36299 2.7375 10.1435 2 12 2ZM12 7C11.4696 7 10.9608 7.21071 10.5858 7.58579C10.2107 7.96086 9.99999 8.46957 9.99999 9C9.99999 9.53043 10.2107 10.0391 10.5858 10.4142C10.9608 10.7893 11.4696 11 12 11C12.5304 11 13.0391 10.7893 13.4142 10.4142C13.7893 10.0391 14 9.53043 14 9C14 8.46957 13.7893 7.96086 13.4142 7.58579C13.0391 7.21071 12.5304 7 12 7Z" fill="#09244B"></path></g></g><defs><clipPath id="clip0_109_1316"><rect width="24" height="24" fill="white"></rect></clipPath></defs></svg>