<svg xmlns="http://www.w3.org/2000/svg" width="24" height="24" viewBox="0 0 24 24" fill="none"><g id="map_fill" clip-path="url(#clip0_109_1355)"><g id="Group"><path id="Vector" fill-rule="evenodd" clip-rule="evenodd" d="M9 5.0542C8.935 6.6962 9 17.0272 9 17.0272C9.16 17.0272 9.32 17.0532 9.474 17.1042L15 18.9462V6.9732C14.8389 6.97316 14.6788 6.94716 14.526 6.8962L9 5.0542ZM8.526 3.1042C8.83369 3.00172 9.16631 3.00172 9.474 3.1042L15 4.94621L20.289 3.1832C20.4844 3.11809 20.6925 3.10033 20.896 3.13139C21.0996 3.16245 21.2929 3.24144 21.46 3.36185C21.6271 3.48225 21.7632 3.64064 21.8571 3.82395C21.951 4.00726 21.9999 4.21025 22 4.4162V17.6402C22 17.9551 21.9009 18.2619 21.7167 18.5173C21.5326 18.7727 21.2727 18.9637 20.974 19.0632L15.474 20.8962C15.166 20.9992 14.834 20.9992 14.526 20.8962L9 19.0542L3.711 20.8172C3.51561 20.8823 3.30755 20.9001 3.10395 20.869C2.90036 20.838 2.70705 20.759 2.53997 20.6386C2.37288 20.5182 2.23679 20.3598 2.14291 20.1765C2.04903 19.9931 2.00005 19.7902 2 19.5842V6.3602C2.00003 6.04534 2.09914 5.73847 2.28328 5.48308C2.46743 5.22768 2.72727 5.0367 3.026 4.9372L8.526 3.1042Z" fill="#022E3C"></path></g></g><defs><clipPath id="clip0_109_1355"><rect width="24" height="24" fill="white"></rect></clipPath></defs></svg>