<svg xmlns="http://www.w3.org/2000/svg" width="25" height="24" viewBox="0 0 25 24" fill="none"><g id="mortarboard_fill" clip-path="url(#clip0_20_178)"><g id="Group"><path id="Vector" d="M19.5 12.2822V14.0002C19.5 15.8567 18.7625 17.6372 17.4497 18.9499C16.137 20.2627 14.3565 21.0002 12.5 21.0002C10.6435 21.0002 8.86301 20.2627 7.55025 18.9499C6.2375 17.6372 5.5 15.8567 5.5 14.0002V12.2822L11.859 15.2892C12.0594 15.3839 12.2783 15.4331 12.5 15.4331C12.7217 15.4331 12.9406 15.3839 13.141 15.2892L19.5 12.2822ZM13.141 2.71219L22.221 7.0062C22.955 7.3522 23.048 8.30819 22.5 8.80919V13.0002C22.5 13.2654 22.3946 13.5198 22.2071 13.7073C22.0196 13.8948 21.7652 14.0002 21.5 14.0002C21.2348 14.0002 20.9804 13.8948 20.7929 13.7073C20.6054 13.5198 20.5 13.2654 20.5 13.0002V9.81019L13.141 13.2902C12.9406 13.3849 12.7217 13.4341 12.5 13.4341C12.2783 13.4341 12.0594 13.3849 11.859 13.2902L2.779 8.99519C2.59085 8.90602 2.43187 8.76527 2.32055 8.58931C2.20923 8.41335 2.15013 8.20941 2.15013 8.00119C2.15013 7.79298 2.20923 7.58904 2.32055 7.41308C2.43187 7.23712 2.59085 7.09637 2.779 7.00719L11.859 2.71319C12.0594 2.61847 12.2783 2.56934 12.5 2.56934C12.7217 2.56934 12.9406 2.61847 13.141 2.71319V2.71219Z" fill="white"></path></g></g><defs><clipPath id="clip0_20_178"><rect width="24" height="24" fill="white" transform="translate(0.5)"></rect></clipPath></defs></svg>