<svg xmlns="http://www.w3.org/2000/svg" width="66" height="66" viewBox="0 0 66 66" fill="none"><g id="motivation 1" clip-path="url(#clip0_90_5029)"><g id="Group"><g id="Group_2"><path id="Vector" d="M35.0754 1.28901L38.4914 8.19839L46.1098 9.30698C48.0047 9.57769 48.7652 11.9109 47.3859 13.2515L41.8688 18.6269L43.1707 26.2195C43.493 28.1015 41.5078 29.5453 39.8191 28.6558L33 25.0722L26.1809 28.6558C24.4793 29.5453 22.507 28.1015 22.8293 26.2195L24.1313 18.6269L18.6141 13.2515C17.2477 11.9109 17.9953 9.57769 19.8902 9.30698L27.5086 8.19839L30.9246 1.28901C31.7754 -0.425439 34.2246 -0.425439 35.0754 1.28901Z" fill="url(#paint0_linear_90_5029)"></path><path id="Vector_2" d="M43.1707 26.2195L41.8687 18.627L47.3859 13.2516C48.7523 11.9109 48.0047 9.57773 46.1098 9.30703L38.4914 8.19844L35.0754 1.28906C34.65 0.425391 33.825 0 33 0V25.0723L39.8191 28.6559C41.5078 29.5453 43.493 28.1016 43.1707 26.2195Z" fill="url(#paint1_linear_90_5029)"></path><g id="Group_3"><path id="Vector_3" d="M23.4094 28.1789C24.0797 28.8879 25.1754 29.1715 26.1809 28.643L33 25.0594V15.4688L23.4094 28.1789Z" fill="url(#paint2_linear_90_5029)"></path><path id="Vector_4" d="M23.4094 28.1789C24.0797 28.8879 25.1754 29.1715 26.1809 28.643L33 25.0594V15.4688L23.4094 28.1789Z" fill="url(#paint3_linear_90_5029)"></path></g><g id="Group_4"><path id="Vector_5" d="M42.5906 28.1789C41.9203 28.8879 40.8246 29.1715 39.8191 28.643L33 25.0723V15.4688L42.5906 28.1789Z" fill="url(#paint4_linear_90_5029)"></path><path id="Vector_6" d="M42.5906 28.1789C41.9203 28.8879 40.8246 29.1715 39.8191 28.643L33 25.0723V15.4688L42.5906 28.1789Z" fill="url(#paint5_linear_90_5029)"></path></g><path id="Vector_7" d="M42.5906 28.179C43.0547 27.6892 43.3125 26.9802 43.1836 26.2067L41.8816 18.6142L47.3988 13.2388C48.0949 12.5685 48.2367 11.6403 47.9789 10.854L33 15.4688L42.5906 28.179Z" fill="url(#paint6_linear_90_5029)"></path><path id="Vector_8" d="M23.4094 28.179C22.9453 27.6892 22.6875 26.9802 22.8164 26.2067L24.1184 18.6142L18.6012 13.2388C17.9051 12.5685 17.7633 11.6403 18.0211 10.854L33 15.4688L23.4094 28.179Z" fill="url(#paint7_linear_90_5029)"></path><path id="Vector_9" d="M47.966 10.8668L33 15.4688V0C33.825 0 34.65 0.425391 35.0754 1.28906L38.4785 8.19844L46.0969 9.30703C47.0508 9.43594 47.7082 10.0805 47.966 10.8668Z" fill="url(#paint8_linear_90_5029)"></path></g><g id="Group_5"><g id="Group_6"><path id="Vector_10" d="M54.7723 15.7139H53.4317C52.9032 15.7139 52.4778 15.2885 52.4778 14.76V14.7471V14.7342C52.4778 14.2057 52.9032 13.7803 53.4317 13.7803H54.7981C55.3782 13.7803 55.8293 14.283 55.752 14.8631C55.7004 15.3529 55.2622 15.7139 54.7723 15.7139Z" fill="url(#paint9_linear_90_5029)"></path><path id="Vector_11" d="M52.3746 26.1939L51.1113 25.6782C50.6215 25.4849 50.3895 24.9177 50.5957 24.4407C50.5957 24.4278 50.5957 24.4278 50.6086 24.4278C50.802 23.938 51.3563 23.706 51.8461 23.8993L53.1094 24.415C53.5992 24.6212 53.8442 25.1755 53.6379 25.6782C53.4317 26.1681 52.8645 26.4001 52.3746 26.1939Z" fill="url(#paint10_linear_90_5029)"></path><path id="Vector_12" d="M50.4668 4.75673C50.4668 4.75673 50.4668 4.74384 50.454 4.73095C50.2477 4.24111 50.4668 3.68681 50.9567 3.48056L52.22 2.95204C52.7098 2.74579 53.277 2.97782 53.4832 3.46767C53.6895 3.95751 53.4575 4.5247 52.9676 4.73095L51.7043 5.25947C51.2274 5.47861 50.6731 5.24658 50.4668 4.75673Z" fill="url(#paint11_linear_90_5029)"></path></g><g id="Group_7"><path id="Vector_13" d="M11.2278 15.7139H12.5684C13.0969 15.7139 13.5094 15.2885 13.5094 14.76V14.7471V14.7342C13.5094 14.2057 13.084 13.7803 12.5684 13.7803H11.202C10.6348 13.7803 10.1707 14.283 10.2481 14.8631C10.2996 15.3529 10.7379 15.7139 11.2278 15.7139Z" fill="url(#paint12_linear_90_5029)"></path><path id="Vector_14" d="M13.6254 26.1939L14.8887 25.6782C15.3786 25.4849 15.6106 24.9177 15.4043 24.4407C15.4043 24.4278 15.4043 24.4278 15.3914 24.4278C15.1981 23.938 14.6438 23.706 14.1539 23.8993L12.8907 24.415C12.4008 24.6212 12.1559 25.1755 12.3622 25.6782C12.5684 26.1681 13.1356 26.4001 13.6254 26.1939Z" fill="url(#paint13_linear_90_5029)"></path><path id="Vector_15" d="M15.5332 4.75673C15.5332 4.75673 15.5332 4.74384 15.5461 4.73095C15.7523 4.24111 15.5332 3.68681 15.0434 3.48056L13.7801 2.95204C13.2902 2.74579 12.7231 2.97782 12.5168 3.46767C12.3106 3.95751 12.5426 4.5247 13.0324 4.73095L14.2957 5.25947C14.7727 5.47861 15.327 5.24658 15.5332 4.75673Z" fill="url(#paint14_linear_90_5029)"></path></g></g><g id="Group_8"><path id="Vector_16" d="M24.4793 33.5802H20.4832V65.6134C20.4832 65.8196 20.3157 65.9872 20.1094 65.9872H14.7211C14.5149 65.9872 14.3473 65.8196 14.3473 65.6134V33.5802H10.3512C8.64964 33.5802 7.63128 31.6853 8.5594 30.2544L15.6235 19.5552C16.4742 18.2661 18.3434 18.2661 19.1942 19.5552L26.2582 30.2544C27.2121 31.6853 26.1809 33.5802 24.4793 33.5802Z" fill="url(#paint15_linear_90_5029)"></path><path id="Vector_17" d="M20.4961 33.5802H24.4922C26.1937 33.5802 27.2121 31.6853 26.284 30.2544L19.2199 19.5552C18.3691 18.2661 16.4871 18.2661 15.6492 19.5552L11.9883 25.0853L20.4961 33.5802Z" fill="url(#paint16_linear_90_5029)"></path><path id="Vector_18" d="M14.3473 55.2493V65.6133C14.3473 65.8196 14.5149 65.9872 14.7211 65.9872H20.1094C20.3156 65.9872 20.4832 65.8196 20.4832 65.6133V55.2493H14.3473Z" fill="url(#paint17_linear_90_5029)"></path><g id="Group_9"><path id="Vector_19" d="M20.4962 33.5932H24.4794C26.1809 33.5932 27.1993 31.6982 26.2712 30.2674L20.4962 21.5146V33.5932Z" fill="url(#paint18_linear_90_5029)"></path><path id="Vector_20" d="M8.5723 30.2674C7.63128 31.6854 8.64964 33.5932 10.3641 33.5932H14.3473V21.5276L8.5723 30.2674Z" fill="url(#paint19_linear_90_5029)"></path></g></g><g id="Group_10"><g id="Group_11"><g id="Group_12"><g id="Group_13"><path id="Vector_21" d="M19.7098 35.1526V46.2901C19.7098 48.4042 20.0578 50.5182 20.7926 52.4905C21.3727 54.0631 21.682 55.726 21.682 57.4276V63.7569C21.682 64.9944 22.6875 65.9999 23.925 65.9999H43.6219C44.8594 65.9999 45.8649 64.9944 45.8649 63.7569V57.4276V55.4811C45.8649 54.2694 46.1742 53.0963 46.7543 52.0393C47.2313 51.1627 47.6051 50.2346 47.85 49.2807C48.0949 48.3268 48.2238 47.3342 48.2238 46.3416V35.1526H19.7098Z" fill="url(#paint20_linear_90_5029)"></path><path id="Vector_22" d="M20.1223 35.1526H48.2109V46.3416C48.2109 47.3342 48.082 48.3268 47.8371 49.2807C47.5922 50.2475 47.2183 51.1627 46.7414 52.0393C46.1613 53.0963 45.8519 54.2823 45.8519 55.4811V57.4276C45.8519 58.8584 44.6918 60.0186 43.2609 60.0186H22.1074V57.4276C22.1074 55.6487 21.7723 53.8956 21.1277 52.2584C20.4445 50.5311 20.1351 48.6749 20.1351 46.8186V35.1526H20.1223Z" fill="url(#paint21_linear_90_5029)"></path><path id="Vector_23" d="M20.1223 35.1526H48.2109V46.3416C48.2109 47.3342 48.082 48.3268 47.8371 49.2807C47.5922 50.2475 47.2183 51.1627 46.7414 52.0393C46.1613 53.0963 45.8519 54.2823 45.8519 55.4811V57.4276C45.8519 58.8584 44.6918 60.0186 43.2609 60.0186H22.1074V57.4276C22.1074 55.6487 21.7723 53.8956 21.1277 52.2584C20.4445 50.5311 20.1351 48.6749 20.1351 46.8186V35.1526H20.1223Z" fill="url(#paint22_linear_90_5029)"></path><path id="Vector_24" d="M31.5305 65.9999H43.6219C44.8594 65.9999 45.8648 64.9944 45.8648 63.7569V55.4811C45.8648 54.2694 46.1742 53.0963 46.7543 52.0393C47.2312 51.1627 47.6051 50.2346 47.85 49.2807C48.0949 48.3268 48.2238 47.3342 48.2238 46.3416V35.1526H31.5305V65.9999Z" fill="url(#paint23_linear_90_5029)"></path><path id="Vector_25" d="M21.6821 60.9854V63.7568C21.6821 64.9943 22.6875 65.9998 23.925 65.9998H43.6219C44.8594 65.9998 45.8649 64.9943 45.8649 63.7568V60.9854H21.6821Z" fill="url(#paint24_linear_90_5029)"></path></g><g id="Group_14"><path id="Vector_26" d="M23.2031 42.9515C21.2051 42.9515 19.5809 41.3272 19.5809 39.3292V33.5929C19.5809 31.6722 21.3082 30.0737 23.2031 30.0737C26.5805 30.0737 26.8254 32.4069 26.8254 32.5616V32.5745V39.3163C26.8254 41.3272 25.2012 42.9515 23.2031 42.9515Z" fill="url(#paint25_linear_90_5029)"></path><path id="Vector_27" d="M23.2031 42.9515C21.2051 42.9515 19.5809 41.3272 19.5809 39.3292V33.5929C19.5809 31.6722 21.3082 30.0737 23.2031 30.0737C26.5805 30.0737 26.8254 32.4069 26.8254 32.5616V32.5745V39.3163C26.8254 41.3272 25.2012 42.9515 23.2031 42.9515Z" fill="url(#paint26_linear_90_5029)"></path><path id="Vector_28" d="M30.4606 42.9515C28.4625 42.9515 26.8383 41.3273 26.8383 39.3292V32.8324C26.8383 30.9117 28.5657 29.3132 30.4606 29.3132C33.8379 29.3132 34.0828 31.6464 34.0828 31.8011V39.3164C34.0828 41.3273 32.4586 42.9515 30.4606 42.9515Z" fill="url(#paint27_linear_90_5029)"></path><path id="Vector_29" d="M37.7051 42.9515C35.707 42.9515 34.0828 41.3272 34.0828 39.3292V33.5929C34.0828 31.6722 35.8102 30.0737 37.7051 30.0737C41.0824 30.0737 41.3274 32.4069 41.3274 32.5616V32.5745V39.3163C41.3402 41.3272 39.716 42.9515 37.7051 42.9515Z" fill="url(#paint28_linear_90_5029)"></path><path id="Vector_30" d="M37.7051 42.9515C35.707 42.9515 34.0828 41.3272 34.0828 39.3292V33.5929C34.0828 31.6722 35.8102 30.0737 37.7051 30.0737C41.0824 30.0737 41.3274 32.4069 41.3274 32.5616V32.5745V39.3163C41.3402 41.3272 39.716 42.9515 37.7051 42.9515Z" fill="url(#paint29_linear_90_5029)"></path><path id="Vector_31" d="M44.9625 42.9515C42.9645 42.9515 41.3403 41.3273 41.3403 39.3293V34.8304C41.3403 32.9097 43.0676 31.3113 44.9625 31.3113C48.3399 31.3113 48.5848 33.6445 48.5848 33.7992V33.8121V39.3164C48.5848 41.3273 46.9606 42.9515 44.9625 42.9515Z" fill="url(#paint30_linear_90_5029)"></path></g></g><path id="Vector_32" d="M32.4586 46.0967L30.0996 45.6327C29.8289 45.5811 29.5969 45.4006 29.4809 45.1686C29.2617 44.7432 29.0684 44.3049 28.9137 43.8538C30.2028 43.4928 31.4789 43.1061 32.7422 42.6678C34.9207 41.9202 36.0422 39.5096 35.2301 37.344C35.1399 37.0991 35.0238 36.867 34.8821 36.6479C33.9539 35.1397 32.1235 34.3663 30.3446 34.8303C29.9063 34.9463 29.3906 35.0624 28.8363 35.1784C28.1016 35.3202 27.3668 35.4491 26.6321 35.5651C26.1551 35.6295 24.3375 35.7198 22.5328 35.81C20.2125 35.9131 18.3047 37.6534 17.9696 39.9479C17.8149 41.0049 17.6473 42.1651 17.4926 43.235C17.1059 45.8776 17.7117 48.5846 19.1942 50.8147C20.4188 52.6452 21.6563 54.9268 21.6563 57.4534C21.6563 58.1624 21.9399 58.8198 22.4168 59.2838C22.8938 59.7479 23.5383 60.0444 24.2473 60.0444H33.0516C36.3129 60.0444 38.9684 57.4147 38.9813 54.1534C38.9813 54.1405 38.9813 54.1147 38.9813 54.1018V54.0631C38.9942 50.1702 36.2485 46.8573 32.4586 46.0967Z" fill="url(#paint31_linear_90_5029)"></path></g><path id="Vector_33" d="M39.0071 54.0375V54.0762V54.1277C38.9942 57.3891 36.3387 60.0188 33.0774 60.0188H24.2731C23.5512 60.0188 22.9067 59.7352 22.4426 59.2582C21.9786 58.7813 21.6821 58.1367 21.6821 57.4277C21.6821 55.5199 21.2953 53.6379 20.5606 51.9105C20.5219 51.8332 20.4961 51.743 20.4575 51.6656C21.0762 50.7762 21.5145 49.7449 21.7465 48.6234L22.2106 46.2645C22.2621 45.9937 22.4426 45.7617 22.6746 45.6457C23.1258 45.4137 23.5899 45.2203 24.0668 45.0527C24.5438 44.8852 25.0336 44.7691 25.5235 44.666L25.7684 44.6145C26.8125 44.3824 27.8567 44.1117 28.9008 43.8281C29.0555 44.2793 29.2489 44.7176 29.468 45.143C29.5969 45.3879 29.8289 45.5555 30.0868 45.607L32.4457 46.0711C36.2485 46.8574 39.0071 50.1703 39.0071 54.0375Z" fill="url(#paint32_linear_90_5029)"></path><path id="Vector_34" d="M39.0071 54.0375V54.0762V54.1277C38.9942 57.3891 36.3387 60.0188 33.0774 60.0188H24.2731C23.5512 60.0188 22.9067 59.7352 22.4426 59.2582C21.9786 58.7813 21.6821 58.1367 21.6821 57.4277C21.6821 55.5199 21.2953 53.6379 20.5606 51.9105C20.5219 51.8332 20.4961 51.743 20.4575 51.6656C21.0762 50.7762 21.5145 49.7449 21.7465 48.6234L22.2106 46.2645C22.2621 45.9937 22.4426 45.7617 22.6746 45.6457C23.1258 45.4137 23.5899 45.2203 24.0668 45.0527C24.5438 44.8852 25.0336 44.7691 25.5235 44.666L25.7684 44.6145C26.8125 44.3824 27.8567 44.1117 28.9008 43.8281C29.0555 44.2793 29.2489 44.7176 29.468 45.143C29.5969 45.3879 29.8289 45.5555 30.0868 45.607L32.4457 46.0711C36.2485 46.8574 39.0071 50.1703 39.0071 54.0375Z" fill="url(#paint33_linear_90_5029)"></path><path id="Vector_35" d="M32.7422 42.655C31.4789 43.0932 30.2028 43.48 28.9137 43.8409C27.8824 44.1245 26.8383 44.3823 25.7813 44.6272L25.5364 44.6788C25.0336 44.769 24.5567 44.8979 24.0797 45.0655C23.6028 45.2331 23.1387 45.4264 22.6875 45.6585C22.4426 45.7874 22.275 46.0194 22.2235 46.2772L21.7594 48.6362C21.5403 49.7577 21.0891 50.7889 20.4703 51.6784C19.9805 50.4667 19.7227 49.1776 19.7227 47.8757V44.1761C19.6711 43.4284 19.4391 41.8944 19.1942 40.3475C18.8203 38.0272 20.5606 35.9003 22.9067 35.7971C24.5824 35.7198 26.2067 35.6425 26.6578 35.578C27.3926 35.4749 28.1274 35.346 28.8621 35.1913C29.4293 35.0753 29.9321 34.9593 30.3703 34.8432C32.1492 34.3792 33.9797 35.1397 34.9078 36.6608C35.0367 36.88 35.1528 37.112 35.2559 37.3569C36.0551 39.4968 34.9336 41.9073 32.7422 42.655Z" fill="url(#paint34_linear_90_5029)"></path></g><path id="Vector_36" d="M39.8836 52.6711L45.8649 58.6524V55.4813C45.8649 54.5145 46.0711 53.5606 46.4449 52.6711H39.8836Z" fill="url(#paint35_linear_90_5029)"></path><g id="Group_15"><path id="Vector_37" d="M55.6488 53.4317H51.6527V65.6263C51.6527 65.8325 51.4852 66.0001 51.2789 66.0001H45.8777C45.6715 66.0001 45.5039 65.8325 45.5039 65.6263V53.4317H41.5078C39.8063 53.4317 38.7879 51.5368 39.716 50.106L46.7801 39.4067C47.6309 38.1177 49.5 38.1177 50.3508 39.4067L57.4148 50.106C58.3688 51.5368 57.3504 53.4317 55.6488 53.4317Z" fill="url(#paint36_linear_90_5029)"></path><path id="Vector_38" d="M51.6528 53.4317H55.6489C57.3504 53.4317 58.3688 51.5368 57.4407 50.106L50.3766 39.4067C49.5258 38.1177 47.6567 38.1177 46.8059 39.4067L43.1578 44.9239L51.6528 53.4317Z" fill="url(#paint37_linear_90_5029)"></path><path id="Vector_39" d="M45.5039 55.2493V65.6133C45.5039 65.8196 45.6715 65.9872 45.8777 65.9872H51.2789C51.4852 65.9872 51.6527 65.8196 51.6527 65.6133V55.2493H45.5039Z" fill="url(#paint38_linear_90_5029)"></path><g id="Group_16"><path id="Vector_40" d="M51.6528 53.4318H55.636C57.3375 53.4318 58.3559 51.5369 57.4278 50.106L51.6528 41.3533V53.4318Z" fill="url(#paint39_linear_90_5029)"></path><path id="Vector_41" d="M39.7289 50.119C38.7879 51.537 39.8063 53.4448 41.5207 53.4448H45.5039V41.3792L39.7289 50.119Z" fill="url(#paint40_linear_90_5029)"></path></g></g></g></g><defs><linearGradient id="paint0_linear_90_5029" x1="28.5723" y1="9.82764" x2="39.5216" y2="24.6093" gradientUnits="userSpaceOnUse"><stop stop-color="#F4BC6C"></stop><stop offset="1" stop-color="#F9970C"></stop></linearGradient><linearGradient id="paint1_linear_90_5029" x1="37.3633" y1="14.4006" x2="29.0424" y2="16.0429" gradientUnits="userSpaceOnUse"><stop stop-color="#FE9738" stop-opacity="0"></stop><stop offset="0.1" stop-color="#FE9738" stop-opacity="0.02"></stop><stop offset="0.23" stop-color="#FE9738" stop-opacity="0.08"></stop><stop offset="0.36" stop-color="#FE9738" stop-opacity="0.17"></stop><stop offset="0.5" stop-color="#FE9738" stop-opacity="0.31"></stop><stop offset="0.65" stop-color="#FE9738" stop-opacity="0.48"></stop><stop offset="0.81" stop-color="#FE9738" stop-opacity="0.69"></stop><stop offset="0.96" stop-color="#FE9738" stop-opacity="0.94"></stop><stop offset="1" stop-color="#FE9738"></stop></linearGradient><linearGradient id="paint2_linear_90_5029" x1="29.1" y1="22.7462" x2="31.4358" y2="25.1541" gradientUnits="userSpaceOnUse"><stop stop-color="#FE9738" stop-opacity="0"></stop><stop offset="0.1" stop-color="#FE9738" stop-opacity="0.02"></stop><stop offset="0.23" stop-color="#FE9738" stop-opacity="0.08"></stop><stop offset="0.36" stop-color="#FE9738" stop-opacity="0.17"></stop><stop offset="0.5" stop-color="#FE9738" stop-opacity="0.31"></stop><stop offset="0.65" stop-color="#FE9738" stop-opacity="0.48"></stop><stop offset="0.81" stop-color="#FE9738" stop-opacity="0.69"></stop><stop offset="0.96" stop-color="#FE9738" stop-opacity="0.94"></stop><stop offset="1" stop-color="#FE9738"></stop></linearGradient><linearGradient id="paint3_linear_90_5029" x1="28.3287" y1="21.9887" x2="26.4132" y2="19.4156" gradientUnits="userSpaceOnUse"><stop stop-color="#FEF0AE" stop-opacity="0"></stop><stop offset="0.1" stop-color="#FEF0AE" stop-opacity="0.02"></stop><stop offset="0.22" stop-color="#FEF0AE" stop-opacity="0.08"></stop><stop offset="0.36" stop-color="#FEF0AE" stop-opacity="0.18"></stop><stop offset="0.51" stop-color="#FEF0AE" stop-opacity="0.32"></stop><stop offset="0.66" stop-color="#FEF0AE" stop-opacity="0.5"></stop><stop offset="0.82" stop-color="#FEF0AE" stop-opacity="0.72"></stop><stop offset="0.98" stop-color="#FEF0AE" stop-opacity="0.97"></stop><stop offset="1" stop-color="#FEF0AE"></stop></linearGradient><linearGradient id="paint4_linear_90_5029" x1="36.9001" y1="22.7462" x2="34.5643" y2="25.1541" gradientUnits="userSpaceOnUse"><stop stop-color="#FE9738" stop-opacity="0"></stop><stop offset="0.1" stop-color="#FE9738" stop-opacity="0.02"></stop><stop offset="0.23" stop-color="#FE9738" stop-opacity="0.08"></stop><stop offset="0.36" stop-color="#FE9738" stop-opacity="0.17"></stop><stop offset="0.5" stop-color="#FE9738" stop-opacity="0.31"></stop><stop offset="0.65" stop-color="#FE9738" stop-opacity="0.48"></stop><stop offset="0.81" stop-color="#FE9738" stop-opacity="0.69"></stop><stop offset="0.96" stop-color="#FE9738" stop-opacity="0.94"></stop><stop offset="1" stop-color="#FE9738"></stop></linearGradient><linearGradient id="paint5_linear_90_5029" x1="37.6713" y1="21.9886" x2="39.5869" y2="19.4156" gradientUnits="userSpaceOnUse"><stop stop-color="#FEF0AE" stop-opacity="0"></stop><stop offset="0.1" stop-color="#FEF0AE" stop-opacity="0.02"></stop><stop offset="0.22" stop-color="#FEF0AE" stop-opacity="0.08"></stop><stop offset="0.36" stop-color="#FEF0AE" stop-opacity="0.18"></stop><stop offset="0.51" stop-color="#FEF0AE" stop-opacity="0.32"></stop><stop offset="0.66" stop-color="#FEF0AE" stop-opacity="0.5"></stop><stop offset="0.82" stop-color="#FEF0AE" stop-opacity="0.72"></stop><stop offset="0.98" stop-color="#FEF0AE" stop-opacity="0.97"></stop><stop offset="1" stop-color="#FEF0AE"></stop></linearGradient><linearGradient id="paint6_linear_90_5029" x1="41.9304" y1="15.1093" x2="37.9678" y2="9.78808" gradientUnits="userSpaceOnUse"><stop stop-color="#FE9738" stop-opacity="0"></stop><stop offset="0.1" stop-color="#FE9738" stop-opacity="0.02"></stop><stop offset="0.23" stop-color="#FE9738" stop-opacity="0.08"></stop><stop offset="0.36" stop-color="#FE9738" stop-opacity="0.17"></stop><stop offset="0.5" stop-color="#FE9738" stop-opacity="0.31"></stop><stop offset="0.65" stop-color="#FE9738" stop-opacity="0.48"></stop><stop offset="0.81" stop-color="#FE9738" stop-opacity="0.69"></stop><stop offset="0.96" stop-color="#FE9738" stop-opacity="0.94"></stop><stop offset="1" stop-color="#FE9738"></stop></linearGradient><linearGradient id="paint7_linear_90_5029" x1="24.0697" y1="15.1093" x2="28.0322" y2="9.78808" gradientUnits="userSpaceOnUse"><stop stop-color="#FE9738" stop-opacity="0"></stop><stop offset="0.1" stop-color="#FE9738" stop-opacity="0.02"></stop><stop offset="0.23" stop-color="#FE9738" stop-opacity="0.08"></stop><stop offset="0.36" stop-color="#FE9738" stop-opacity="0.17"></stop><stop offset="0.5" stop-color="#FE9738" stop-opacity="0.31"></stop><stop offset="0.65" stop-color="#FE9738" stop-opacity="0.48"></stop><stop offset="0.81" stop-color="#FE9738" stop-opacity="0.69"></stop><stop offset="0.96" stop-color="#FE9738" stop-opacity="0.94"></stop><stop offset="1" stop-color="#FE9738"></stop></linearGradient><linearGradient id="paint8_linear_90_5029" x1="36.5978" y1="8.22976" x2="31.4157" y2="7.50015" gradientUnits="userSpaceOnUse"><stop stop-color="#FEF0AE" stop-opacity="0"></stop><stop offset="0.1" stop-color="#FEF0AE" stop-opacity="0.02"></stop><stop offset="0.22" stop-color="#FEF0AE" stop-opacity="0.08"></stop><stop offset="0.36" stop-color="#FEF0AE" stop-opacity="0.18"></stop><stop offset="0.51" stop-color="#FEF0AE" stop-opacity="0.32"></stop><stop offset="0.66" stop-color="#FEF0AE" stop-opacity="0.5"></stop><stop offset="0.82" stop-color="#FEF0AE" stop-opacity="0.72"></stop><stop offset="0.98" stop-color="#FEF0AE" stop-opacity="0.97"></stop><stop offset="1" stop-color="#FEF0AE"></stop></linearGradient><linearGradient id="paint9_linear_90_5029" x1="54.1264" y1="2.67371" x2="54.1264" y2="29.5378" gradientUnits="userSpaceOnUse"><stop stop-color="#CEF5FF"></stop><stop offset="1" stop-color="#0F6177"></stop></linearGradient><linearGradient id="paint10_linear_90_5029" x1="52.1138" y1="2.67362" x2="52.1138" y2="29.5377" gradientUnits="userSpaceOnUse"><stop stop-color="#CEF5FF"></stop><stop offset="1" stop-color="#0F6177"></stop></linearGradient><linearGradient id="paint11_linear_90_5029" x1="51.9768" y1="2.67361" x2="51.9768" y2="29.5377" gradientUnits="userSpaceOnUse"><stop stop-color="#CEF5FF"></stop><stop offset="1" stop-color="#0F6177"></stop></linearGradient><linearGradient id="paint12_linear_90_5029" x1="11.8737" y1="2.67371" x2="11.8737" y2="29.5378" gradientUnits="userSpaceOnUse"><stop stop-color="#CEF5FF"></stop><stop offset="1" stop-color="#0F6177"></stop></linearGradient><linearGradient id="paint13_linear_90_5029" x1="13.8862" y1="2.67362" x2="13.8862" y2="29.5377" gradientUnits="userSpaceOnUse"><stop stop-color="#CEF5FF"></stop><stop offset="1" stop-color="#0F6177"></stop></linearGradient><linearGradient id="paint14_linear_90_5029" x1="14.0232" y1="2.67361" x2="14.0232" y2="29.5377" gradientUnits="userSpaceOnUse"><stop stop-color="#CEF5FF"></stop><stop offset="1" stop-color="#0F6177"></stop></linearGradient><linearGradient id="paint15_linear_90_5029" x1="7.58616" y1="36.9021" x2="26.9724" y2="48.8839" gradientUnits="userSpaceOnUse"><stop stop-color="#3695AE"></stop><stop offset="1" stop-color="#073D4B"></stop></linearGradient><linearGradient id="paint16_linear_90_5029" x1="20.5381" y1="26.3322" x2="23.4437" y2="24.6551" gradientUnits="userSpaceOnUse"><stop stop-color="#073D4B" stop-opacity="0"></stop><stop offset="0.12" stop-color="#073D4B" stop-opacity="0.04"></stop><stop offset="0.29" stop-color="#073D4B" stop-opacity="0.15"></stop><stop offset="0.48" stop-color="#073D4B" stop-opacity="0.33"></stop><stop offset="0.7" stop-color="#073D4B" stop-opacity="0.59"></stop><stop offset="0.94" stop-color="#073D4B" stop-opacity="0.91"></stop><stop offset="1" stop-color="#073D4B"></stop></linearGradient><linearGradient id="paint17_linear_90_5029" x1="17.4172" y1="62.7104" x2="17.4172" y2="65.447" gradientUnits="userSpaceOnUse"><stop stop-color="#073D4B" stop-opacity="0"></stop><stop offset="0.12" stop-color="#073D4B" stop-opacity="0.04"></stop><stop offset="0.29" stop-color="#073D4B" stop-opacity="0.15"></stop><stop offset="0.48" stop-color="#073D4B" stop-opacity="0.33"></stop><stop offset="0.7" stop-color="#073D4B" stop-opacity="0.59"></stop><stop offset="0.94" stop-color="#073D4B" stop-opacity="0.91"></stop><stop offset="1" stop-color="#073D4B"></stop></linearGradient><linearGradient id="paint18_linear_90_5029" x1="23.5803" y1="31.4277" x2="23.5794" y2="34.0205" gradientUnits="userSpaceOnUse"><stop stop-color="#073D4B" stop-opacity="0"></stop><stop offset="0.12" stop-color="#073D4B" stop-opacity="0.04"></stop><stop offset="0.29" stop-color="#073D4B" stop-opacity="0.15"></stop><stop offset="0.48" stop-color="#073D4B" stop-opacity="0.33"></stop><stop offset="0.7" stop-color="#073D4B" stop-opacity="0.59"></stop><stop offset="0.94" stop-color="#073D4B" stop-opacity="0.91"></stop><stop offset="1" stop-color="#073D4B"></stop></linearGradient><linearGradient id="paint19_linear_90_5029" x1="11.3013" y1="31.4276" x2="11.3004" y2="34.0205" gradientUnits="userSpaceOnUse"><stop stop-color="#073D4B" stop-opacity="0"></stop><stop offset="0.12" stop-color="#073D4B" stop-opacity="0.04"></stop><stop offset="0.29" stop-color="#073D4B" stop-opacity="0.15"></stop><stop offset="0.48" stop-color="#073D4B" stop-opacity="0.33"></stop><stop offset="0.7" stop-color="#073D4B" stop-opacity="0.59"></stop><stop offset="0.94" stop-color="#073D4B" stop-opacity="0.91"></stop><stop offset="1" stop-color="#073D4B"></stop></linearGradient><linearGradient id="paint20_linear_90_5029" x1="25.0148" y1="37.654" x2="44.459" y2="61.5146" gradientUnits="userSpaceOnUse"><stop stop-color="#FFDFCF"></stop><stop offset="1" stop-color="#FFA78F"></stop></linearGradient><linearGradient id="paint21_linear_90_5029" x1="34.1763" y1="46.963" x2="34.1763" y2="39.8577" gradientUnits="userSpaceOnUse"><stop stop-color="#F89580" stop-opacity="0"></stop><stop offset="0.1" stop-color="#F5937E" stop-opacity="0.05"></stop><stop offset="0.27" stop-color="#EE8E79" stop-opacity="0.18"></stop><stop offset="0.49" stop-color="#E38671" stop-opacity="0.39"></stop><stop offset="0.75" stop-color="#D57C65" stop-opacity="0.69"></stop><stop offset="1" stop-color="#C5715A"></stop></linearGradient><linearGradient id="paint22_linear_90_5029" x1="34.3355" y1="45.612" x2="32.4122" y2="41.0256" gradientUnits="userSpaceOnUse"><stop stop-color="#F89580" stop-opacity="0"></stop><stop offset="0.1" stop-color="#F5937E" stop-opacity="0.05"></stop><stop offset="0.27" stop-color="#EE8E79" stop-opacity="0.18"></stop><stop offset="0.49" stop-color="#E38671" stop-opacity="0.39"></stop><stop offset="0.75" stop-color="#D57C65" stop-opacity="0.69"></stop><stop offset="1" stop-color="#C5715A"></stop></linearGradient><linearGradient id="paint23_linear_90_5029" x1="41.3222" y1="50.573" x2="48.5267" y2="50.573" gradientUnits="userSpaceOnUse"><stop stop-color="#F89580" stop-opacity="0"></stop><stop offset="0.1" stop-color="#F5937E" stop-opacity="0.05"></stop><stop offset="0.27" stop-color="#EE8E79" stop-opacity="0.18"></stop><stop offset="0.49" stop-color="#E38671" stop-opacity="0.39"></stop><stop offset="0.75" stop-color="#D57C65" stop-opacity="0.69"></stop><stop offset="1" stop-color="#C5715A"></stop></linearGradient><linearGradient id="paint24_linear_90_5029" x1="33.7786" y1="63.7904" x2="33.7786" y2="65.8155" gradientUnits="userSpaceOnUse"><stop stop-color="#F89580" stop-opacity="0"></stop><stop offset="0.1" stop-color="#F5937E" stop-opacity="0.05"></stop><stop offset="0.27" stop-color="#EE8E79" stop-opacity="0.18"></stop><stop offset="0.49" stop-color="#E38671" stop-opacity="0.39"></stop><stop offset="0.75" stop-color="#D57C65" stop-opacity="0.69"></stop><stop offset="1" stop-color="#C5715A"></stop></linearGradient><linearGradient id="paint25_linear_90_5029" x1="21.4745" y1="36.5049" x2="26.7506" y2="36.5049" gradientUnits="userSpaceOnUse"><stop stop-color="#FFDFCF"></stop><stop offset="1" stop-color="#FFA78F"></stop></linearGradient><linearGradient id="paint26_linear_90_5029" x1="22.2875" y1="33.9624" x2="23.8653" y2="37.7768" gradientUnits="userSpaceOnUse"><stop stop-color="#F89580" stop-opacity="0"></stop><stop offset="0.1" stop-color="#F5937E" stop-opacity="0.05"></stop><stop offset="0.27" stop-color="#EE8E79" stop-opacity="0.18"></stop><stop offset="0.49" stop-color="#E38671" stop-opacity="0.39"></stop><stop offset="0.75" stop-color="#D57C65" stop-opacity="0.69"></stop><stop offset="1" stop-color="#C5715A"></stop></linearGradient><linearGradient id="paint27_linear_90_5029" x1="28.4445" y1="36.1234" x2="33.4396" y2="36.1234" gradientUnits="userSpaceOnUse"><stop stop-color="#FFDFCF"></stop><stop offset="1" stop-color="#FFA78F"></stop></linearGradient><linearGradient id="paint28_linear_90_5029" x1="35.8102" y1="36.5049" x2="40.581" y2="36.5049" gradientUnits="userSpaceOnUse"><stop stop-color="#FFDFCF"></stop><stop offset="1" stop-color="#FFA78F"></stop></linearGradient><linearGradient id="paint29_linear_90_5029" x1="37.4183" y1="36.6945" x2="32.5521" y2="39.7186" gradientUnits="userSpaceOnUse"><stop stop-color="#F89580" stop-opacity="0"></stop><stop offset="0.1" stop-color="#F5937E" stop-opacity="0.05"></stop><stop offset="0.27" stop-color="#EE8E79" stop-opacity="0.18"></stop><stop offset="0.49" stop-color="#E38671" stop-opacity="0.39"></stop><stop offset="0.75" stop-color="#D57C65" stop-opacity="0.69"></stop><stop offset="1" stop-color="#C5715A"></stop></linearGradient><linearGradient id="paint30_linear_90_5029" x1="42.7802" y1="37.1211" x2="47.3744" y2="37.1211" gradientUnits="userSpaceOnUse"><stop stop-color="#FFDFCF"></stop><stop offset="1" stop-color="#FFA78F"></stop></linearGradient><linearGradient id="paint31_linear_90_5029" x1="22.4051" y1="40.2445" x2="43.1732" y2="65.7306" gradientUnits="userSpaceOnUse"><stop stop-color="#FFDFCF"></stop><stop offset="1" stop-color="#FFA78F"></stop></linearGradient><linearGradient id="paint32_linear_90_5029" x1="31.7393" y1="51.9331" x2="44.6944" y2="51.9331" gradientUnits="userSpaceOnUse"><stop stop-color="#F89580" stop-opacity="0"></stop><stop offset="0.1" stop-color="#F5937E" stop-opacity="0.05"></stop><stop offset="0.27" stop-color="#EE8E79" stop-opacity="0.18"></stop><stop offset="0.49" stop-color="#E38671" stop-opacity="0.39"></stop><stop offset="0.75" stop-color="#D57C65" stop-opacity="0.69"></stop><stop offset="1" stop-color="#C5715A"></stop></linearGradient><linearGradient id="paint33_linear_90_5029" x1="30.9308" y1="46.8912" x2="31.7855" y2="42.3871" gradientUnits="userSpaceOnUse"><stop stop-color="#F89580" stop-opacity="0"></stop><stop offset="0.1" stop-color="#F5937E" stop-opacity="0.05"></stop><stop offset="0.27" stop-color="#EE8E79" stop-opacity="0.18"></stop><stop offset="0.49" stop-color="#E38671" stop-opacity="0.39"></stop><stop offset="0.75" stop-color="#D57C65" stop-opacity="0.69"></stop><stop offset="1" stop-color="#C5715A"></stop></linearGradient><linearGradient id="paint34_linear_90_5029" x1="27.3807" y1="43.7492" x2="31.721" y2="47.0364" gradientUnits="userSpaceOnUse"><stop stop-color="#F89580" stop-opacity="0"></stop><stop offset="0.1" stop-color="#F5937E" stop-opacity="0.05"></stop><stop offset="0.27" stop-color="#EE8E79" stop-opacity="0.18"></stop><stop offset="0.49" stop-color="#E38671" stop-opacity="0.39"></stop><stop offset="0.75" stop-color="#D57C65" stop-opacity="0.69"></stop><stop offset="1" stop-color="#C5715A"></stop></linearGradient><linearGradient id="paint35_linear_90_5029" x1="43.1649" y1="57.8403" x2="43.1649" y2="53.0824" gradientUnits="userSpaceOnUse"><stop stop-color="#F89580" stop-opacity="0"></stop><stop offset="0.1" stop-color="#F5937E" stop-opacity="0.05"></stop><stop offset="0.27" stop-color="#EE8E79" stop-opacity="0.18"></stop><stop offset="0.49" stop-color="#E38671" stop-opacity="0.39"></stop><stop offset="0.75" stop-color="#D57C65" stop-opacity="0.69"></stop><stop offset="1" stop-color="#C5715A"></stop></linearGradient><linearGradient id="paint36_linear_90_5029" x1="42.3702" y1="49.0644" x2="54.7297" y2="56.7034" gradientUnits="userSpaceOnUse"><stop stop-color="#50B7D2"></stop><stop offset="1" stop-color="#073D4B"></stop></linearGradient><linearGradient id="paint37_linear_90_5029" x1="51.702" y1="46.1824" x2="54.6076" y2="44.5067" gradientUnits="userSpaceOnUse"><stop stop-color="#073D4B" stop-opacity="0"></stop><stop offset="0.12" stop-color="#073D4B" stop-opacity="0.04"></stop><stop offset="0.29" stop-color="#073D4B" stop-opacity="0.15"></stop><stop offset="0.48" stop-color="#073D4B" stop-opacity="0.33"></stop><stop offset="0.7" stop-color="#073D4B" stop-opacity="0.59"></stop><stop offset="0.94" stop-color="#073D4B" stop-opacity="0.91"></stop><stop offset="1" stop-color="#073D4B"></stop></linearGradient><linearGradient id="paint38_linear_90_5029" x1="48.5815" y1="62.7104" x2="48.5815" y2="65.447" gradientUnits="userSpaceOnUse"><stop stop-color="#073D4B" stop-opacity="0"></stop><stop offset="0.12" stop-color="#073D4B" stop-opacity="0.04"></stop><stop offset="0.29" stop-color="#073D4B" stop-opacity="0.15"></stop><stop offset="0.48" stop-color="#073D4B" stop-opacity="0.33"></stop><stop offset="0.7" stop-color="#073D4B" stop-opacity="0.59"></stop><stop offset="0.94" stop-color="#073D4B" stop-opacity="0.91"></stop><stop offset="1" stop-color="#073D4B"></stop></linearGradient><linearGradient id="paint39_linear_90_5029" x1="54.7417" y1="51.2745" x2="54.7417" y2="53.8664" gradientUnits="userSpaceOnUse"><stop stop-color="#073D4B" stop-opacity="0"></stop><stop offset="0.12" stop-color="#073D4B" stop-opacity="0.04"></stop><stop offset="0.29" stop-color="#073D4B" stop-opacity="0.15"></stop><stop offset="0.48" stop-color="#073D4B" stop-opacity="0.33"></stop><stop offset="0.7" stop-color="#073D4B" stop-opacity="0.59"></stop><stop offset="0.94" stop-color="#073D4B" stop-opacity="0.91"></stop><stop offset="1" stop-color="#073D4B"></stop></linearGradient><linearGradient id="paint40_linear_90_5029" x1="42.4623" y1="51.2746" x2="42.4632" y2="53.8674" gradientUnits="userSpaceOnUse"><stop stop-color="#073D4B" stop-opacity="0"></stop><stop offset="0.12" stop-color="#073D4B" stop-opacity="0.04"></stop><stop offset="0.29" stop-color="#073D4B" stop-opacity="0.15"></stop><stop offset="0.48" stop-color="#073D4B" stop-opacity="0.33"></stop><stop offset="0.7" stop-color="#073D4B" stop-opacity="0.59"></stop><stop offset="0.94" stop-color="#073D4B" stop-opacity="0.91"></stop><stop offset="1" stop-color="#073D4B"></stop></linearGradient><clipPath id="clip0_90_5029"><rect width="66" height="66" fill="white"></rect></clipPath></defs></svg>