<svg xmlns="http://www.w3.org/2000/svg" width="33" height="33" viewBox="0 0 33 33" fill="none"><g id="Plus"><path id="Vector" d="M28.5 16.2168C28.5 16.482 28.3946 16.7364 28.2071 16.9239C28.0196 17.1114 27.7652 17.2168 27.5 17.2168H17.5V27.2168C17.5 27.482 17.3946 27.7364 17.2071 27.9239C17.0196 28.1114 16.7652 28.2168 16.5 28.2168C16.2348 28.2168 15.9804 28.1114 15.7929 27.9239C15.6054 27.7364 15.5 27.482 15.5 27.2168V17.2168H5.5C5.23478 17.2168 4.98043 17.1114 4.79289 16.9239C4.60536 16.7364 4.5 16.482 4.5 16.2168C4.5 15.9516 4.60536 15.6972 4.79289 15.5097C4.98043 15.3222 5.23478 15.2168 5.5 15.2168H15.5V5.2168C15.5 4.95158 15.6054 4.69723 15.7929 4.50969C15.9804 4.32215 16.2348 4.2168 16.5 4.2168C16.7652 4.2168 17.0196 4.32215 17.2071 4.50969C17.3946 4.69723 17.5 4.95158 17.5 5.2168V15.2168H27.5C27.7652 15.2168 28.0196 15.3222 28.2071 15.5097C28.3946 15.6972 28.5 15.9516 28.5 16.2168Z" fill="#022E3C"></path></g></svg>