<svg xmlns="http://www.w3.org/2000/svg" width="25" height="24" viewBox="0 0 25 24" fill="none"><g id="star_fill" clip-path="url(#clip0_20_124)"><g id="Group"><path id="Vector" d="M11.42 2.86819C11.53 2.67935 11.6877 2.52267 11.8772 2.41377C12.0667 2.30487 12.2814 2.24756 12.5 2.24756C12.7186 2.24756 12.9333 2.30487 13.1228 2.41377C13.3123 2.52267 13.47 2.67935 13.58 2.86819L16.375 7.66619L21.803 8.84219C22.0165 8.88859 22.2141 8.99014 22.3762 9.13673C22.5382 9.28331 22.659 9.4698 22.7265 9.67762C22.7939 9.88543 22.8058 10.1073 22.7608 10.3211C22.7158 10.5349 22.6155 10.7332 22.47 10.8962L18.77 15.0372L19.33 20.5622C19.3521 20.7798 19.3167 20.9993 19.2274 21.1989C19.1381 21.3985 18.998 21.5712 18.8211 21.6997C18.6442 21.8283 18.4367 21.9082 18.2192 21.9314C18.0018 21.9546 17.7821 21.9204 17.582 21.8322L12.5 19.5922L7.418 21.8322C7.21792 21.9204 6.99819 21.9546 6.78075 21.9314C6.56332 21.9082 6.35578 21.8283 6.17887 21.6997C6.00196 21.5712 5.86186 21.3985 5.77257 21.1989C5.68327 20.9993 5.64791 20.7798 5.67 20.5622L6.23 15.0372L2.53 10.8972C2.38423 10.7342 2.28376 10.5359 2.23861 10.3219C2.19347 10.108 2.20524 9.88592 2.27274 9.67795C2.34025 9.46997 2.46112 9.28335 2.62331 9.13669C2.78549 8.99004 2.9833 8.88849 3.197 8.84219L8.625 7.66619L11.42 2.86819Z" fill="white"></path></g></g><defs><clipPath id="clip0_20_124"><rect width="24" height="24" fill="white" transform="translate(0.5)"></rect></clipPath></defs></svg>