<svg xmlns="http://www.w3.org/2000/svg" width="24" height="24" viewBox="0 0 24 24" fill="none"><g id="up_line"><g id="Group"><path id="Vector" fill-rule="evenodd" clip-rule="evenodd" d="M12.7069 15.7072C12.5194 15.8947 12.2651 16 11.9999 16C11.7348 16 11.4805 15.8947 11.2929 15.7072L5.63594 10.0502C5.45378 9.86161 5.35299 9.60901 5.35527 9.34681C5.35755 9.08461 5.46272 8.8338 5.64812 8.64839C5.83353 8.46299 6.08435 8.35782 6.34654 8.35554C6.60874 8.35326 6.86134 8.45405 7.04994 8.63621L11.9999 13.5862L16.9499 8.63621C17.1385 8.45406 17.3911 8.35326 17.6533 8.35554C17.9155 8.35782 18.1664 8.46299 18.3518 8.64839C18.5372 8.8338 18.6423 9.08462 18.6446 9.34681C18.6469 9.60901 18.5461 9.86161 18.3639 10.0502L12.7069 15.7072Z" fill="#022E3C"></path></g></g></svg>