<svg xmlns="http://www.w3.org/2000/svg" width="25" height="24" viewBox="0 0 25 24" fill="none"><g id="user_5_fill" clip-path="url(#clip0_20_48)"><g id="Group"><path id="Vector" d="M10.086 15C10.5555 15.0001 11.0101 15.1654 11.37 15.467L11.5 15.586L12.5 16.586L13.5 15.586C13.832 15.254 14.2703 15.0494 14.738 15.008L14.914 15H18.938C19.5764 15 20.1982 15.2036 20.7129 15.5813C21.2277 15.9589 21.6085 16.491 21.8 17.1L21.849 17.272L22.315 19.136C22.3676 19.3464 22.3739 19.5657 22.3336 19.7788C22.2933 19.9918 22.2072 20.1936 22.0813 20.3702C21.9555 20.5468 21.7928 20.6941 21.6046 20.8018C21.4164 20.9094 21.207 20.975 20.991 20.994L20.86 21H4.14C3.92318 20.9999 3.70895 20.9529 3.51208 20.862C3.3152 20.7712 3.14036 20.6388 2.99959 20.4739C2.85883 20.3089 2.75549 20.1155 2.69669 19.9068C2.63789 19.6981 2.62503 19.4791 2.659 19.265L2.685 19.136L3.151 17.272C3.30587 16.6526 3.65432 16.0987 4.14567 15.691C4.63702 15.2833 5.24564 15.043 5.883 15.005L6.062 15H10.086ZM12.5 2C13.284 2 14.161 2.19 14.88 2.391C16.476 2.836 17.422 4.287 17.495 5.806L17.5 5.996V10.003C17.5 11.591 16.543 13.146 14.88 13.609C14.161 13.809 13.284 14 12.5 14C11.716 14 10.839 13.81 10.12 13.609C8.524 13.164 7.578 11.713 7.505 10.194L7.5 10.004V5.996C7.5 4.409 8.457 2.853 10.12 2.39C10.839 2.191 11.716 2 12.5 2Z" fill="white"></path></g></g><defs><clipPath id="clip0_20_48"><rect width="24" height="24" fill="white" transform="translate(0.5)"></rect></clipPath></defs></svg>