<svg xmlns="http://www.w3.org/2000/svg" width="77" height="180" viewBox="0 0 77 180" fill="none"><path id="XMLID_30137_" d="M1.02193 1.60291C1.83351 1.53584 2.10398 1.87101 2.10398 1.87101C2.10398 1.87101 2.71267 1.40179 3.05072 1.26774C3.38893 1.1337 4.13278 1.40179 4.13278 1.40179C4.13278 1.40179 4.26817 0.999644 4.8767 0.798449C5.48538 0.597334 6.02649 1.13369 6.02649 1.13369C6.02649 1.13369 7.31135 0.865432 7.71706 1.13369C8.12293 1.40179 8.7992 2.54134 8.7992 2.87658C8.7992 3.21175 9.81359 3.74803 10.1517 3.68088C10.4898 3.6139 10.7604 4.68653 10.6928 5.28972C10.625 5.89306 9.54303 6.89856 9.2049 7.50198C8.86677 8.10525 8.25809 8.97669 7.71706 9.04368C7.71706 9.04368 8.19051 11.2559 8.52864 12.1274C8.69306 12.5515 8.82455 13.068 8.91699 13.489C9.09608 13.4848 9.20914 13.4858 9.20914 13.4858L9.84066 16.3464C9.84066 16.3464 10.7425 18.4914 11.7342 19.2069C12.7259 19.9212 12.4554 22.2453 13.4476 23.407C14.4393 24.5696 14.89 25.8202 15.3412 27.251C15.7919 28.6808 18.7675 31.2731 19.579 32.5237C20.3905 33.7755 21.8335 37.7085 22.8252 38.691C23.8169 39.6745 23.7271 40.4789 25.0795 40.2998C26.4322 40.1217 26.1617 40.5679 27.1533 40.658C28.1451 40.7469 28.5059 40.747 29.588 40.2108C30.67 39.6744 30.8502 41.1042 32.2027 40.7469C32.8124 40.5857 33.2039 40.571 33.6299 40.5783C33.6331 40.0126 33.605 39.2775 33.2843 38.9067C32.8743 38.4333 32.533 38.1619 32.4648 37.4173C32.4648 37.4173 30.9612 36.4011 30.9612 35.5205C30.9612 34.6405 30.483 33.082 31.4398 33.1501C31.4398 33.1501 30.8931 28.0701 32.6012 26.5126C34.3093 24.9551 35.4711 23.1933 38.7511 23.1933C42.0311 23.1933 45.2425 25.6316 45.5842 28.002C45.9256 30.3733 45.7893 32.6085 45.7893 32.6085C45.7893 32.6085 46.5405 32.5404 46.5405 33.1502C46.5405 33.7597 45.8573 34.4374 45.9941 35.047C46.1305 35.6565 45.9941 36.1982 45.5155 36.6045C45.0373 37.0109 44.6273 36.8758 44.6273 36.8758C44.6273 36.8758 44.2856 39.5844 43.6705 39.9907C43.6705 39.9907 43.3933 40.7386 43.231 41.2446C43.7594 41.321 44.1704 41.3723 44.3759 41.3723C45.3682 41.3723 45.6388 42.3558 45.6388 42.3558L47.1715 41.9086C47.1715 41.9086 47.1715 41.9086 47.6222 41.1041C48.0734 40.2996 49.9669 41.1041 51.049 40.3898C51.9277 39.8084 52.6822 40.1542 53.1302 39.5445C53.1683 39.4869 53.2132 39.4292 53.2442 39.3728C53.3003 39.2585 53.3508 39.1256 53.3931 38.959C53.754 37.5294 55.6476 35.9204 56.3689 34.6688C57.0901 33.4182 57.7214 32.3456 58.1721 31.0049C58.6233 29.6642 59.7952 28.3236 60.3361 27.34C60.8772 26.3565 61.5085 25.4631 61.779 24.3014C62.0497 23.1388 63.6726 22.1564 63.8528 21.3519C64.0335 20.5475 63.9432 18.4024 64.3041 17.776C64.6643 17.1508 66.1072 16.0781 66.3777 15.3628C66.6483 14.6486 66.1072 13.4859 67.1893 12.4133C67.331 12.2729 67.5401 12.1797 67.7915 12.1221C67.958 11.6099 68.1319 11.104 68.2713 10.8275C68.6095 10.1571 69.1504 8.7494 68.4742 8.48122C67.7979 8.21312 66.5807 6.47023 66.513 6.06792C66.4453 5.66577 66.513 4.05693 66.9187 3.85582C67.3244 3.6547 67.7979 3.05136 67.7979 3.05136C67.7979 3.05136 68.0008 2.31396 68.0684 1.9788C68.136 1.64363 69.0152 0.570992 69.4886 0.369958C69.962 0.168843 71.1116 0.571074 71.1116 0.571074C71.1116 0.571074 71.3146 0.235908 71.8555 0.0348737C72.3966 -0.166241 72.7347 0.571073 73.2082 0.504088C73.6815 0.437023 73.8843 0.571074 73.8843 0.571074C73.8843 0.571074 74.493 0.973383 75.034 1.17442C75.575 1.37553 75.6427 1.30847 76.1161 1.30847C76.5895 1.30847 76.4541 2.04586 76.7248 2.51516C76.9953 2.98437 76.9624 3.97936 76.9953 4.79424C77.0629 6.47015 76.3866 6.26903 76.1837 6.93928C75.9809 7.60969 74.2901 9.15155 73.749 9.88894C73.4427 10.3058 72.8544 12.0779 72.4018 13.5361C72.6622 13.8304 72.7869 14.1477 72.6898 14.4693C72.1488 16.2571 71.8782 17.5078 71.8782 17.5078L72.2384 19.832C72.2384 19.832 71.8782 20.7256 72.0584 21.6199C72.2384 22.5134 71.8782 23.586 71.6076 24.6586C71.3371 25.7311 69.714 26.9827 69.1731 27.9652C68.632 28.9487 67.6398 30.6466 67.7302 31.6301C67.8205 32.6136 67.9103 32.8819 67.189 33.15C66.4679 33.4181 66.5577 36.8139 66.107 37.8863C65.6563 38.9588 63.582 42.4447 62.7705 43.1602C61.9589 43.8755 60.6967 47.0932 60.3359 47.6295C59.9756 48.1657 59.0737 50.2208 57.6309 51.5614C56.1884 52.9022 54.7455 53.9747 54.8358 55.0473C54.9257 56.1198 54.0244 62.2871 53.934 63.8068C53.8436 65.3267 53.2128 66.9354 53.6636 70.3311C54.1143 73.7279 56.2783 84.5426 56.6391 85.9733C57 87.4031 55.6473 88.2075 55.6473 88.2075L55.5571 89.4591C55.5571 89.4591 55.5518 89.4611 52.2216 91.3728C52.3415 92.1122 52.4916 93.279 52.3109 93.6823C52.0404 94.2856 52.7843 94.956 52.7843 95.9615C52.7843 96.967 53.0548 97.9055 53.19 98.777C53.3252 99.6484 53.5282 102.33 53.5282 102.33C53.5282 102.33 55.016 113.391 54.7455 117.882C54.475 122.373 53.9339 129.412 53.7987 131.222C53.6635 133.032 54.3396 137.121 54.1367 139.4C53.9339 141.679 51.2964 150.662 50.9583 150.796C50.62 150.93 51.7022 155.287 50.4848 160.784C49.2675 166.281 48.3884 166.281 48.8618 167.152C49.3352 168.024 49.4704 169.096 49.1999 170.638C49.014 171.699 48.7312 173.84 48.5733 175.072C49.1154 175.678 49.8655 176.37 50.5974 176.514C51.9499 176.782 52.4012 178.391 52.4012 179.196C52.4012 180 52.4012 180 52.4012 180H38.1541C38.1541 180 37.6664 177.854 38.2877 175.937C38.1164 174.94 37.9088 173.674 37.771 172.649C37.5004 170.638 37.0271 169.365 37.2299 167.622C37.4328 165.879 39.9351 151.533 40.4084 149.12C40.8819 146.707 42.0992 136.719 41.9639 134.305C41.8287 131.892 40.2056 121.099 39.7999 119.424C39.394 117.748 38.8531 112.854 38.3797 113.122C37.9063 113.39 37.1624 115.804 36.8243 116.541C36.4861 117.278 34.9308 122.842 34.7954 124.719C34.6601 126.596 33.9839 133.769 33.5781 135.11C33.1724 136.451 33.3752 142.685 33.5104 144.897C33.6457 147.109 33.3075 158.036 32.7665 161.32C32.2256 164.605 32.5636 167.488 32.2256 168.56C31.8873 169.633 31.9549 171.175 31.6169 172.515C31.377 173.466 31.2058 175.593 31.1261 176.752C31.2597 177.619 31.3912 178.764 31.3912 179.911H17.5053C17.5053 179.911 17.4149 177.141 18.5873 176.514C19.3835 176.09 20.0909 175.337 20.5797 174.672C20.2939 174.321 20.0964 174.007 20.0525 173.789C19.9172 173.119 19.9848 171.644 20.2554 170.37C20.5259 169.096 21.7432 167.219 21.7432 167.219C21.7432 167.219 19.3762 162.393 19.6467 158.907C19.9172 155.421 20.864 133.099 21.1346 127.535C21.405 121.971 21.5403 108.899 22.3518 105.547C23.1375 102.303 24.4895 92.4305 24.76 91.4942C22.5019 90.3849 21.2021 89.0119 21.2021 89.0119L20.9316 88.0283L19.8495 87.403C19.8209 87.425 19.8632 87.1056 19.9536 86.5557C20.0218 86.0288 20.1158 85.3689 20.2104 84.9008C20.2448 84.73 20.3093 84.4462 20.3954 84.068C20.9115 81.2714 21.6792 77.2997 22.2281 74.4862C22.8717 70.0892 23.2325 66.1143 22.5546 63.0915C21.8334 59.8737 22.1937 54.6901 21.4725 53.4384C20.7513 52.1877 18.4969 49.6844 15.882 46.3777C15.2111 45.5294 14.6135 44.6882 14.0805 43.888C13.3703 42.9674 12.7232 41.9587 12.2328 40.8934C11.6956 39.9697 11.2913 39.25 11.0129 38.8699C10.2912 37.8863 10.0206 34.5796 9.02899 33.6861C8.03726 32.7917 7.85654 31.8983 7.40591 31.0047C6.95521 30.1103 5.6026 26.8926 5.24189 26.0881C5.04486 25.6493 4.76844 24.6762 4.52805 23.6801C4.22106 23.2454 4.02452 22.9606 4.02452 22.9606L4.18779 22.1247C4.14019 21.8743 4.09804 21.6377 4.06943 21.4407C3.88928 20.1891 4.88101 18.5802 4.88101 18.5802L3.97968 15.7208C4.01294 15.5773 4.06266 15.4432 4.12551 15.3175C3.88765 14.3392 3.6828 13.0792 3.52425 12.5293C3.25377 11.5908 3.0508 9.84789 2.50985 9.44574C1.96875 9.04343 0.883107 7.88409 0.612471 6.81153C0.341999 5.73898 -0.0600432 4.82034 0.00753417 3.9489C0.0751115 3.0777 0.210345 1.66989 1.02193 1.60291Z" fill="url(#paint0_linear_159_277)"></path><defs><linearGradient id="paint0_linear_159_277" x1="-5.94397e-05" y1="89.9996" x2="76.9999" y2="89.9996" gradientUnits="userSpaceOnUse"><stop stop-color="#F9970C"></stop><stop offset="1" stop-color="#F5A01B"></stop></linearGradient></defs></svg>